<svg width="195" height="145" viewBox="0 0 195 145" fill="none" xmlns="http://www.w3.org/2000/svg">
<path d="M83.7363 118.297C84.6804 118.069 86.1777 118.688 86.939 119.419C91.0706 123.353 95.0041 127.499 99.1204 131.468C100.917 133.209 102.937 134.737 105.404 136.798C106.906 135.979 108.397 135.104 109.876 134.174C113.256 132.022 117.027 130.21 119.301 126.616C117.738 126.591 116.469 127.631 114.824 127.631C112.982 127.69 111.148 127.369 109.436 126.688C107.723 126.007 106.169 124.98 104.871 123.672C101.415 120.348 98.0444 116.932 94.6387 113.557" fill="black"/>
<path d="M105.571 136.954C100.328 138.812 95.3284 141.137 90.07 142.294C84.0948 143.627 78.0003 144.355 71.8791 144.466C58.3933 144.654 45.9175 140.913 34.3604 133.848C22.1028 126.331 13.0429 116.083 6.83034 103.237C0.998486 91.1978 -0.869332 78.4276 0.358961 65.2565C1.08042 57.3291 3.21179 49.5943 6.6527 42.4163C9.84524 35.7571 13.5098 29.57 18.5144 24.1797C24.0975 18.1804 32.655 18.5966 37.6646 24.8598C41.4763 29.6411 40.9789 36.4423 36.9185 41.0002C29.8758 48.7775 25.7062 58.7305 25.1025 69.2053C24.1736 82.8789 28.564 94.7355 37.6443 104.734C43.1909 110.774 50.2645 115.205 58.1192 117.56C66.4295 120.144 75.2883 120.404 83.7357 118.312C84.6798 118.083 86.1771 118.702 86.9384 119.433C91.0699 123.367 95.0035 127.514 99.1198 131.483C100.947 133.254 103.023 134.807 105.571 136.954Z" fill="#373636"/>
<path d="M114.162 96.9629C120.497 90.5829 126.212 84.7815 131.962 79.0359C145.433 65.5602 158.954 52.1352 172.39 38.6088C176.242 34.7361 180.759 33.1576 185.921 34.7869C195.534 37.8322 198.057 49.2219 190.849 56.4596C181.967 65.3792 173.061 74.2699 164.132 83.1319C150.935 96.2878 137.622 109.291 124.689 122.681C118.258 129.345 109.508 128.36 104.087 122.706C93.393 111.54 82.3435 100.734 71.4157 89.8012C66.0407 84.4262 65.8021 76.4575 70.9082 71.3261C76.0142 66.1946 83.9677 66.1693 89.3986 71.5291C96.9358 78.9699 104.397 86.4818 111.863 93.9936C112.689 94.9357 113.457 95.9272 114.162 96.9629Z" fill="#EC2028"/>
<path d="M70.6203 0C85.1822 0.106587 97.1758 3.2027 108.236 9.64363C116.275 14.3233 117.113 24.7435 110.048 30.6617C106.063 33.9912 100.683 34.5191 95.6633 31.7275C87.2037 26.9147 77.4684 24.8202 67.778 25.7282C65.2757 25.9515 62.8039 26.5047 60.327 26.9666C53.5511 28.2254 47.095 24.3222 45.4911 17.9676C43.7197 10.9531 47.3183 4.39039 54.1957 2.33985C56.5307 1.63841 58.9191 1.12915 61.3371 0.817171C65.0016 0.355292 68.6967 0.162419 70.6203 0Z" fill="#068241"/>
<path d="M139.481 47.7814C139.493 51.1755 138.163 54.4367 135.78 56.8537C133.397 59.2707 130.155 60.6474 126.761 60.6836C119.432 60.7445 113.281 54.4406 113.301 46.8983C113.312 43.4607 114.687 40.168 117.124 37.7439C119.562 35.3198 122.862 33.9626 126.299 33.9707C133.4 33.991 139.501 40.3812 139.481 47.7814Z" fill="#068241"/>
</svg>
