<svg width="1350" height="273" viewBox="0 0 1350 273" fill="none" xmlns="http://www.w3.org/2000/svg">
<path d="M157.729 222.828C159.507 222.398 162.327 223.564 163.761 224.941C171.544 232.35 178.953 240.161 186.707 247.638C190.091 250.917 193.896 253.795 198.543 257.676C201.373 256.134 204.18 254.486 206.966 252.734C213.333 248.68 220.436 245.267 224.72 238.498C221.775 238.45 219.385 240.41 216.287 240.41C212.818 240.521 209.362 239.916 206.137 238.633C202.911 237.35 199.984 235.416 197.539 232.953C191.028 226.691 184.68 220.256 178.265 213.898" fill="black"/>
<path d="M198.858 257.973C188.982 261.473 179.564 265.851 169.66 268.031C158.404 270.543 146.925 271.914 135.395 272.123C109.992 272.477 86.4921 265.431 64.7226 252.122C41.6337 237.963 24.5681 218.66 12.8659 194.462C1.88079 171.785 -1.63751 147.73 0.676154 122.92C2.03513 107.988 6.04986 93.4184 12.5313 79.8977C18.5449 67.3542 25.4477 55.6998 34.8744 45.5464C45.3911 34.2458 61.5102 35.0298 70.9465 46.8276C78.1265 55.8337 77.1896 68.6448 69.5411 77.2303C56.2752 91.8799 48.4212 110.628 47.2841 130.358C45.5345 156.115 53.8044 178.448 70.9083 197.283C81.3561 208.659 94.6803 217.006 109.476 221.442C125.129 226.309 141.816 226.798 157.728 222.857C159.506 222.427 162.327 223.593 163.761 224.97C171.543 232.38 178.953 240.191 186.706 247.667C190.148 251.004 194.058 253.929 198.858 257.973Z" fill="#373636"/>
<path d="M215.043 182.644C226.975 170.627 237.74 159.699 248.572 148.876C273.946 123.493 299.415 98.2051 324.722 72.7262C331.979 65.4314 340.488 62.4581 350.211 65.527C368.319 71.2634 373.07 92.7174 359.494 106.351C342.763 123.152 325.987 139.899 309.167 156.592C284.31 181.373 259.232 205.867 234.872 231.088C222.758 243.641 206.276 241.786 196.065 231.136C175.921 210.102 155.108 189.748 134.524 169.154C124.399 159.03 123.95 144.02 133.568 134.354C143.186 124.688 158.167 124.64 168.397 134.736C182.594 148.752 196.648 162.902 210.712 177.051C212.268 178.826 213.715 180.694 215.043 182.644Z" fill="#EC2028"/>
<path d="M133.026 0C160.456 0.200773 183.047 6.03274 203.88 18.1651C219.024 26.98 220.601 46.6079 207.293 57.7556C199.788 64.0273 189.654 65.0216 180.198 59.7633C164.263 50.6976 145.926 46.7524 127.672 48.4627C122.959 48.8833 118.303 49.9254 113.637 50.7955C100.874 53.1665 88.7129 45.8144 85.6917 33.8445C82.3551 20.6318 89.1335 8.26992 102.088 4.40744C106.486 3.08618 110.985 2.12692 115.54 1.53926C122.443 0.669242 129.403 0.305939 133.026 0Z" fill="#068241"/>
<path d="M262.732 90.0027C262.755 96.3959 260.249 102.539 255.76 107.092C251.272 111.644 245.166 114.238 238.773 114.306C224.967 114.42 213.38 102.546 213.418 88.3392C213.438 81.864 216.029 75.6617 220.62 71.0956C225.211 66.5295 231.428 63.9731 237.903 63.9883C251.278 64.0266 262.77 76.0634 262.732 90.0027Z" fill="#068241"/>
<path d="M1336.67 40.0938H1349V100.056H1336.67V40.0938Z" fill="#068241"/>
<path d="M1326.38 88.9252L1324.46 100.053H1278.9C1277.84 100.053 1277.3 98.185 1277.3 94.4491C1277.3 90.7665 1277.84 88.9252 1278.9 88.9252H1311.09V80.4392C1311.09 76.6499 1309.89 73.6611 1307.48 71.4729C1305.14 69.2313 1301.96 68.1105 1297.96 68.1105C1293.58 68.1105 1289.47 69.4982 1285.63 72.2734L1280.26 61.9462C1282.88 60.345 1285.68 59.1175 1288.67 58.2636C1291.71 57.4096 1294.81 56.9827 1297.96 56.9827C1302.81 56.9827 1307.16 57.9967 1311.01 60.0248C1314.9 61.9995 1317.94 64.7748 1320.13 68.3507C1322.32 71.9265 1323.42 75.956 1323.42 80.4392V88.9252H1326.38ZM1298.2 49.4574C1296.33 49.4574 1294.78 48.8436 1293.55 47.6161C1292.38 46.3885 1291.79 44.8141 1291.79 42.8927C1291.79 40.9714 1292.38 39.397 1293.55 38.1694C1294.78 36.9419 1296.33 36.3281 1298.2 36.3281C1300.07 36.3281 1301.59 36.9419 1302.76 38.1694C1303.99 39.397 1304.6 40.9714 1304.6 42.8927C1304.6 44.8141 1303.99 46.3885 1302.76 47.6161C1301.59 48.8436 1300.07 49.4574 1298.2 49.4574Z" fill="#068241"/>
<path d="M1278.91 88.9308C1279.98 88.9308 1280.51 90.7721 1280.51 94.4547C1280.51 98.1907 1279.98 100.059 1278.91 100.059H1274.67C1269.81 100.059 1265.94 98.751 1263.06 96.1359C1260.12 98.751 1256.01 100.059 1250.73 100.059H1245.37C1244.3 100.059 1243.77 98.1907 1243.77 94.4547C1243.77 90.7721 1244.3 88.9308 1245.37 88.9308H1249.21C1251.66 88.9308 1253.37 88.3971 1254.33 87.3297C1255.29 86.2623 1255.77 84.4743 1255.77 81.9659V59.6302H1268.1V82.046C1268.1 84.0207 1267.94 85.862 1267.62 87.5698C1268.85 88.4771 1270.4 88.9308 1272.27 88.9308H1278.91ZM1268.74 54.0262C1267.14 54.0262 1265.81 53.5192 1264.74 52.5052C1263.73 51.4377 1263.22 50.0768 1263.22 48.4223C1263.22 46.7678 1263.73 45.4068 1264.74 44.3394C1265.81 43.272 1267.14 42.7383 1268.74 42.7383C1270.34 42.7383 1271.65 43.272 1272.67 44.3394C1273.73 45.4068 1274.27 46.7678 1274.27 48.4223C1274.27 50.0768 1273.73 51.4377 1272.67 52.5052C1271.65 53.5192 1270.34 54.0262 1268.74 54.0262ZM1255.37 54.0262C1253.77 54.0262 1252.44 53.5192 1251.37 52.5052C1250.36 51.4377 1249.85 50.0768 1249.85 48.4223C1249.85 46.7678 1250.36 45.4068 1251.37 44.3394C1252.44 43.272 1253.77 42.7383 1255.37 42.7383C1256.97 42.7383 1258.28 43.272 1259.3 44.3394C1260.36 45.4068 1260.9 46.7678 1260.9 48.4223C1260.9 50.0768 1260.36 51.4377 1259.3 52.5052C1258.28 53.5192 1256.97 54.0262 1255.37 54.0262Z" fill="#068241"/>
<path d="M1245.35 88.9336C1246.42 88.9336 1246.95 90.7749 1246.95 94.4575C1246.95 98.1934 1246.42 100.061 1245.35 100.061H1229.26C1228.19 100.061 1227.66 98.1934 1227.66 94.4575C1227.66 90.7749 1228.19 88.9336 1229.26 88.9336H1245.35Z" fill="#068241"/>
<path d="M1229.27 88.9276C1230.33 88.9276 1230.87 90.7689 1230.87 94.4515C1230.87 98.1874 1230.33 100.055 1229.27 100.055H1225.02C1220.17 100.055 1216.3 98.7478 1213.41 96.1327C1210.48 98.7478 1206.37 100.055 1201.09 100.055H1195.72C1194.65 100.055 1194.12 98.1874 1194.12 94.4515C1194.12 90.7689 1194.65 88.9276 1195.72 88.9276H1199.56C1202.02 88.9276 1203.73 88.3939 1204.69 87.3265C1205.65 86.259 1206.13 84.4711 1206.13 81.9627V59.627H1218.46V82.0427C1218.46 84.0175 1218.3 85.8588 1217.98 87.5666C1219.21 88.4739 1220.75 88.9276 1222.62 88.9276H1229.27ZM1211.73 119.589C1209.87 119.589 1208.32 118.975 1207.09 117.748C1205.92 116.52 1205.33 114.946 1205.33 113.025C1205.33 111.103 1205.92 109.529 1207.09 108.301C1208.32 107.074 1209.87 106.46 1211.73 106.46C1213.6 106.46 1215.12 107.074 1216.3 108.301C1217.52 109.529 1218.14 111.103 1218.14 113.025C1218.14 114.946 1217.52 116.52 1216.3 117.748C1215.12 118.975 1213.6 119.589 1211.73 119.589Z" fill="#068241"/>
<path d="M1195.71 88.9336C1196.78 88.9336 1197.31 90.7749 1197.31 94.4575C1197.31 98.1934 1196.78 100.061 1195.71 100.061H1179.62C1178.55 100.061 1178.02 98.1934 1178.02 94.4575C1178.02 90.7749 1178.55 88.9336 1179.62 88.9336H1195.71Z" fill="#068241"/>
<path d="M1179.6 88.9336C1180.67 88.9336 1181.2 90.7749 1181.2 94.4575C1181.2 98.1934 1180.67 100.061 1179.6 100.061H1163.51C1162.44 100.061 1161.91 98.1934 1161.91 94.4575C1161.91 90.7749 1162.44 88.9336 1163.51 88.9336H1179.6Z" fill="#068241"/>
<path d="M1163.54 88.9281C1164.61 88.9281 1165.14 90.7694 1165.14 94.452C1165.14 98.188 1164.61 100.056 1163.54 100.056H1142.08V40.0938H1154.41V88.9281H1163.54Z" fill="#068241"/>
<path d="M1110.31 107.421C1113.41 107.527 1115.62 106.887 1116.96 105.499C1118.29 104.165 1118.96 101.817 1118.96 98.4543V59.627H1131.29V98.4543C1131.29 104.485 1129.55 109.262 1126.08 112.784C1122.67 116.36 1117.97 118.255 1111.99 118.468L1110.31 107.421Z" fill="#068241"/>
<path d="M1067.46 59.794C1071.89 61.8221 1075.47 64.0637 1078.19 66.5188C1080.91 68.9204 1082.91 71.8292 1084.19 75.2449C1085.47 78.6606 1086.01 82.8236 1085.79 87.7337L1085.31 100.062H1022.63C1021.56 100.062 1021.03 98.1944 1021.03 94.4584C1021.03 90.7758 1021.56 88.9345 1022.63 88.9345H1033.36C1032.29 84.9851 1031.76 81.2224 1031.76 77.6466C1031.76 74.3376 1032.24 71.3488 1033.2 68.6803C1034.21 65.9584 1035.63 63.7168 1037.44 61.9555C1035.36 61.3685 1032.9 60.728 1030.08 60.0342L1033.12 49.3066C1043.69 51.9752 1051.13 53.9766 1055.45 55.3109C1059.83 56.5918 1063.83 58.0862 1067.46 59.794ZM1042.48 77.5665C1042.48 81.1958 1043.1 84.9851 1044.33 88.9345H1055.37V75.6452C1055.37 73.1368 1054.84 71.0286 1053.77 69.3207C1052.7 67.6129 1051.21 66.7589 1049.29 66.7589C1047.21 66.7589 1045.55 67.7463 1044.33 69.721C1043.1 71.6424 1042.48 74.2575 1042.48 77.5665ZM1073.47 86.773C1073.63 82.9837 1073.15 79.9415 1072.03 77.6466C1070.9 75.3516 1068.82 73.3235 1065.78 71.5623C1065.99 72.6831 1066.1 74.0441 1066.1 75.6452V88.9345H1073.39L1073.47 86.773Z" fill="#068241"/>
<path d="M1022.62 88.9336C1023.69 88.9336 1024.22 90.7749 1024.22 94.4575C1024.22 98.1934 1023.69 100.061 1022.62 100.061H1006.53C1005.46 100.061 1004.93 98.1934 1004.93 94.4575C1004.93 90.7749 1005.46 88.9336 1006.53 88.9336H1022.62Z" fill="#068241"/>
<path d="M1006.51 88.9336C1007.58 88.9336 1008.11 90.7749 1008.11 94.4575C1008.11 98.1934 1007.58 100.061 1006.51 100.061H990.419C989.352 100.061 988.818 98.1934 988.818 94.4575C988.818 90.7749 989.352 88.9336 990.419 88.9336H1006.51Z" fill="#068241"/>
<path d="M990.455 88.931C991.522 88.931 992.056 90.7723 992.056 94.4549C992.056 98.1908 991.522 100.059 990.455 100.059H982.129C981.809 105.93 979.781 110.493 976.045 113.748C972.309 117.057 967.345 118.632 961.154 118.472L959.473 107.264C960.647 107.371 961.474 107.424 961.955 107.424C964.57 107.424 966.491 106.837 967.719 105.663C969 104.542 969.72 102.674 969.88 100.059H961.955C957.792 100.059 953.949 99.1515 950.427 97.3369C946.957 95.5223 944.182 93.0139 942.101 89.8116C940.073 86.6094 939.059 83.0602 939.059 79.1641C939.059 75.268 940.073 71.6922 942.101 68.4366C944.182 65.1276 946.984 62.5391 950.507 60.6711C954.029 58.7497 957.845 57.7891 961.955 57.7891C965.21 57.7891 968.626 58.4028 972.202 59.6304C975.778 60.8579 978.847 62.5124 981.408 64.5939L982.209 64.9141V88.931H990.455ZM951.387 79.1641C951.387 82.0995 952.375 84.4745 954.349 86.2891C956.377 88.0504 958.966 88.931 962.115 88.931H969.96V70.9183C967.292 69.584 964.677 68.9169 962.115 68.9169C958.966 68.9169 956.377 69.9043 954.349 71.879C952.375 73.8003 951.387 76.2287 951.387 79.1641Z" fill="#068241"/>
<path d="M930.474 59.627V100.055H909.66C908.592 100.055 908.059 98.1874 908.059 94.4515C908.059 90.7689 908.592 88.9276 909.66 88.9276H918.146V59.627H930.474ZM931.195 117.508C929.594 117.508 928.259 116.974 927.192 115.907C926.178 114.893 925.671 113.558 925.671 111.904C925.671 110.249 926.178 108.888 927.192 107.821C928.259 106.753 929.594 106.22 931.195 106.22C932.796 106.22 934.104 106.753 935.118 107.821C936.185 108.888 936.719 110.249 936.719 111.904C936.719 113.558 936.185 114.893 935.118 115.907C934.104 116.974 932.796 117.508 931.195 117.508ZM917.825 117.508C916.224 117.508 914.89 116.974 913.823 115.907C912.809 114.893 912.302 113.558 912.302 111.904C912.302 110.249 912.809 108.888 913.823 107.821C914.89 106.753 916.224 106.22 917.825 106.22C919.427 106.22 920.734 106.753 921.748 107.821C922.816 108.888 923.349 110.249 923.349 111.904C923.349 113.558 922.816 114.893 921.748 115.907C920.734 116.974 919.427 117.508 917.825 117.508Z" fill="#068241"/>
<path d="M859.154 52.9852C857.607 52.9852 856.299 52.4515 855.232 51.3841C854.164 50.3167 853.63 48.9824 853.63 47.3813C853.63 45.7268 854.164 44.3658 855.232 43.2984C856.299 42.231 857.607 41.6973 859.154 41.6973C860.755 41.6973 862.063 42.231 863.077 43.2984C864.144 44.3658 864.678 45.7268 864.678 47.3813C864.678 49.0358 864.144 50.3967 863.077 51.4641C862.063 52.4782 860.755 52.9852 859.154 52.9852ZM872.524 52.9852C870.976 52.9852 869.668 52.4515 868.601 51.3841C867.534 50.3167 867 48.9824 867 47.3813C867 45.7268 867.534 44.3658 868.601 43.2984C869.668 42.231 870.976 41.6973 872.524 41.6973C874.125 41.6973 875.432 42.231 876.446 43.2984C877.514 44.3658 878.048 45.7268 878.048 47.3813C878.048 49.0358 877.514 50.3967 876.446 51.4641C875.432 52.4782 874.125 52.9852 872.524 52.9852ZM909.67 88.9305C910.737 88.9305 911.271 90.7718 911.271 94.4544C911.271 98.1904 910.737 100.058 909.67 100.058H906.788C902.465 100.058 898.649 98.7508 895.34 96.1356C892.084 93.5204 889.816 90.3449 888.535 86.6089C886.293 81.1651 883.358 77.0021 879.729 74.1201C876.1 71.1847 871.296 69.717 865.319 69.717C858.327 69.717 854.831 71.4782 854.831 75.0007C854.831 76.2816 855.312 77.3757 856.272 78.283C857.233 79.137 858.434 79.8308 859.875 80.3645C861.369 80.8982 863.451 81.5653 866.119 82.3659C870.175 83.5401 873.484 84.6875 876.046 85.8083C878.608 86.9291 880.823 88.637 882.691 90.9319C884.559 93.2269 885.493 96.269 885.493 100.058C885.493 106.249 882.691 110.919 877.087 114.068C871.536 117.217 862.783 118.792 850.828 118.792C839.621 118.792 831.001 117.004 824.97 113.428C818.993 109.905 816.004 104.141 816.004 96.1356C816.004 94.3744 816.137 92.2929 816.404 89.8912C816.671 87.4361 817.071 85.1412 817.605 83.0064L829.613 85.6482C829.24 87.0359 828.92 88.717 828.653 90.6918C828.439 92.6665 828.333 94.4811 828.333 96.1356C828.333 98.9109 828.946 101.099 830.174 102.7C831.455 104.355 833.696 105.582 836.899 106.383C840.154 107.237 844.717 107.664 850.588 107.664C858.754 107.664 864.491 107.023 867.8 105.742C871.163 104.461 872.844 102.593 872.844 100.138C872.844 98.8575 872.337 97.7901 871.323 96.9362C870.362 96.0289 869.135 95.3083 867.64 94.7746C866.146 94.2409 864.064 93.6005 861.396 92.8533C857.446 91.7859 854.164 90.7184 851.549 89.651C848.987 88.5302 846.772 86.8757 844.904 84.6875C843.09 82.4993 842.182 79.5906 842.182 75.9614C842.182 70.6243 844.184 66.408 848.187 63.3125C852.243 60.1636 858.14 58.5892 865.879 58.5892C872.337 58.5892 877.621 59.6032 881.73 61.6313C885.893 63.6594 889.015 66.0611 891.097 68.8364C893.232 71.5583 895.313 74.9207 897.341 78.9235L898.462 81.0049C900.704 86.2887 903.959 88.9305 908.229 88.9305H909.67ZM858.434 135.203C856.833 135.203 855.498 134.669 854.431 133.602C853.417 132.588 852.91 131.254 852.91 129.599C852.91 127.945 853.417 126.584 854.431 125.516C855.498 124.449 856.833 123.915 858.434 123.915C860.035 123.915 861.343 124.449 862.357 125.516C863.424 126.584 863.958 127.945 863.958 129.599C863.958 131.254 863.424 132.588 862.357 133.602C861.343 134.669 860.035 135.203 858.434 135.203ZM845.064 135.203C843.463 135.203 842.129 134.669 841.062 133.602C840.048 132.588 839.541 131.254 839.541 129.599C839.541 127.945 840.048 126.584 841.062 125.516C842.129 124.449 843.463 123.915 845.064 123.915C846.665 123.915 847.973 124.449 848.987 125.516C850.055 126.584 850.588 127.945 850.588 129.599C850.588 131.254 850.055 132.588 848.987 133.602C847.973 134.669 846.665 135.203 845.064 135.203Z" fill="#068241"/>
<path d="M770.025 40.0938H782.354V100.056H770.025V40.0938Z" fill="#068241"/>
<path d="M757.647 40.0938V100.056H738.994C737.926 100.056 737.393 98.188 737.393 94.452C737.393 90.7694 737.926 88.9281 738.994 88.9281H745.318V40.0938H757.647Z" fill="#068241"/>
<path d="M738.986 88.9347C740.054 88.9347 740.587 90.776 740.587 94.4586C740.587 98.1945 740.054 100.063 738.986 100.063H738.186C733.062 100.063 728.792 98.8617 725.377 96.46C722.014 97.6341 718.545 98.5414 714.969 99.1819C711.447 99.769 708.298 100.063 705.523 100.063C700.239 100.063 695.089 98.9417 690.072 96.7001C687.403 98.9417 684.068 100.063 680.065 100.063H675.902C674.835 100.063 674.301 98.1945 674.301 94.4586C674.301 90.776 674.835 88.9347 675.902 88.9347H677.023C678.624 88.9347 679.851 88.5611 680.705 87.8139C681.613 87.0667 682.2 85.9192 682.467 84.3715L682.707 82.7703C683.24 78.8209 684.041 75.0582 685.108 71.4824C686.176 67.9065 688.097 64.5975 690.872 61.5554C693.701 58.5133 697.571 56.9922 702.481 56.9922C706.75 56.9922 710.726 58.2197 714.409 60.6748C718.145 63.1298 721.267 66.5456 723.776 70.922C726.337 75.245 728.045 80.1285 728.899 85.5723C729.593 86.7465 730.5 87.6004 731.621 88.1341C732.742 88.6678 734.236 88.9347 736.104 88.9347H738.986ZM694.715 86.0526C696.743 87.0667 698.585 87.8139 700.239 88.2942C701.947 88.7212 703.735 88.9347 705.603 88.9347C709.019 88.9347 712.728 88.401 716.731 87.3336C716.144 83.8644 715.13 80.6622 713.689 77.7268C712.248 74.738 710.566 72.3897 708.645 70.6818C706.777 68.974 704.882 68.12 702.961 68.12C700.933 68.12 699.332 69.0807 698.158 71.0021C697.037 72.9234 696.263 75.0582 695.836 77.4066C695.409 79.7549 695.035 82.6369 694.715 86.0526Z" fill="#068241"/>
<path d="M675.91 88.9328C676.977 88.9328 677.511 90.774 677.511 94.4566C677.511 98.1926 676.977 100.061 675.91 100.061H660.139C654.268 100.061 648.824 99.0732 643.807 97.0985C638.524 99.0732 633.613 100.061 629.077 100.061H618.91C617.842 100.061 617.309 98.1926 617.309 94.4566C617.309 90.774 617.842 88.9328 618.91 88.9328H629.077L631.318 88.8527C627.796 85.1167 625.127 80.6603 623.313 75.4833L633.56 58.5914C637.509 57.5773 641.406 57.0703 645.248 57.0703C649.998 57.0703 654.215 57.7108 657.897 58.9917C661.58 60.2726 664.435 62.0872 666.463 64.4355C668.491 66.7838 669.505 69.4524 669.505 72.4411C669.505 75.3232 668.571 78.1785 666.703 81.0072C664.835 83.7825 662.3 86.4243 659.098 88.9328H660.139H675.91ZM634.521 69.9594C636.229 76.4706 639.591 81.3808 644.608 84.6898C648.237 82.9285 651.252 80.9538 653.654 78.7656C656.056 76.524 657.257 74.5226 657.257 72.7614C657.257 71.4805 656.163 70.413 653.974 69.5591C651.84 68.6518 648.904 68.1981 645.168 68.1981C641.379 68.1981 637.83 68.7852 634.521 69.9594Z" fill="#068241"/>
<path d="M618.914 88.9276C619.982 88.9276 620.515 90.7689 620.515 94.4515C620.515 98.1874 619.982 100.055 618.914 100.055H614.671C609.815 100.055 605.945 98.7478 603.063 96.1327C600.128 98.7478 596.018 100.055 590.734 100.055H585.371C584.303 100.055 583.77 98.1874 583.77 94.4515C583.77 90.7689 584.303 88.9276 585.371 88.9276H589.213C591.668 88.9276 593.376 88.3939 594.337 87.3265C595.298 86.259 595.778 84.4711 595.778 81.9627V59.627H608.107V82.0427C608.107 84.0175 607.947 85.8588 607.626 87.5666C608.854 88.4739 610.402 88.9276 612.27 88.9276H618.914ZM608.747 117.508C607.146 117.508 605.812 116.974 604.744 115.907C603.73 114.893 603.223 113.558 603.223 111.904C603.223 110.249 603.73 108.888 604.744 107.821C605.812 106.753 607.146 106.22 608.747 106.22C610.348 106.22 611.656 106.753 612.67 107.821C613.737 108.888 614.271 110.249 614.271 111.904C614.271 113.558 613.737 114.893 612.67 115.907C611.656 116.974 610.348 117.508 608.747 117.508ZM595.378 117.508C593.777 117.508 592.442 116.974 591.375 115.907C590.361 114.893 589.854 113.558 589.854 111.904C589.854 110.249 590.361 108.888 591.375 107.821C592.442 106.753 593.777 106.22 595.378 106.22C596.979 106.22 598.286 106.753 599.3 107.821C600.368 108.888 600.902 110.249 600.902 111.904C600.902 113.558 600.368 114.893 599.3 115.907C598.286 116.974 596.979 117.508 595.378 117.508Z" fill="#068241"/>
<path d="M585.357 88.9336C586.424 88.9336 586.958 90.7749 586.958 94.4575C586.958 98.1934 586.424 100.061 585.357 100.061H569.265C568.198 100.061 567.664 98.1934 567.664 94.4575C567.664 90.7749 568.198 88.9336 569.265 88.9336H585.357Z" fill="#068241"/>
<path d="M569.251 88.9336C570.318 88.9336 570.852 90.7749 570.852 94.4575C570.852 98.1934 570.318 100.061 569.251 100.061H553.16C552.092 100.061 551.559 98.1934 551.559 94.4575C551.559 90.7749 552.092 88.9336 553.16 88.9336H569.251Z" fill="#068241"/>
<path d="M553.146 88.9336C554.213 88.9336 554.747 90.7749 554.747 94.4575C554.747 98.1934 554.213 100.061 553.146 100.061H537.054C535.987 100.061 535.453 98.1934 535.453 94.4575C535.453 90.7749 535.987 88.9336 537.054 88.9336H553.146Z" fill="#068241"/>
<path d="M537.082 88.9281C538.149 88.9281 538.683 90.7694 538.683 94.452C538.683 98.188 538.149 100.056 537.082 100.056H515.627V40.0938H527.956V88.9281H537.082Z" fill="#068241"/>
<path d="M483.854 107.421C486.949 107.527 489.164 106.887 490.498 105.499C491.832 104.165 492.5 101.817 492.5 98.4543V59.627H504.828V98.4543C504.828 104.485 503.094 109.262 499.625 112.784C496.209 116.36 491.512 118.255 485.535 118.468L483.854 107.421Z" fill="#068241"/>
<path d="M445.932 118.79C434.724 118.79 426.105 117.002 420.074 113.427C414.096 109.904 411.107 104.14 411.107 96.1345C411.107 94.3732 411.241 92.2918 411.508 89.8901C411.775 87.435 412.175 85.1401 412.709 83.0052L424.717 85.6471C424.343 87.0347 424.023 88.7159 423.756 90.6906C423.543 92.6653 423.436 94.48 423.436 96.1345C423.436 98.9097 424.05 101.098 425.277 102.699C426.558 104.354 428.8 105.581 432.002 106.382C435.258 107.236 439.821 107.663 445.692 107.663C453.858 107.663 459.595 107.022 462.904 105.741C466.266 104.46 467.947 102.592 467.947 100.137C467.947 98.8564 467.44 97.789 466.426 96.935C465.466 96.0277 464.238 95.3072 462.744 94.7735C461.249 94.2398 459.141 93.5727 456.419 92.7721C452.47 91.6513 449.214 90.5572 446.652 89.4898C444.091 88.369 441.876 86.7412 440.008 84.6063C438.193 82.4181 437.286 79.5628 437.286 76.0403C437.286 72.5712 438.166 69.5824 439.928 67.074C441.742 64.5122 444.277 62.5375 447.533 61.1498C450.789 59.7622 454.551 59.0684 458.821 59.0684C462.717 59.0684 466.533 59.6288 470.269 60.7495C474.058 61.8703 477.394 63.3647 480.276 65.2327L475.393 75.56C472.511 73.7454 469.442 72.331 466.186 71.317C462.984 70.2496 460.209 69.7159 457.86 69.7159C455.565 69.7159 453.671 70.1428 452.176 70.9968C450.682 71.8507 449.935 73.1583 449.935 74.9195C449.935 76.2004 450.415 77.2945 451.376 78.2018C452.39 79.1091 453.644 79.8563 455.138 80.4434C456.633 80.9771 458.741 81.6443 461.463 82.4448C465.466 83.619 468.721 84.7665 471.23 85.8872C473.792 87.008 475.98 88.6892 477.794 90.9308C479.662 93.119 480.596 96.001 480.596 99.5769C480.596 105.981 477.821 110.785 472.271 113.987C466.773 117.189 457.994 118.79 445.932 118.79ZM453.537 135.122C451.936 135.122 450.602 134.588 449.534 133.521C448.52 132.507 448.013 131.172 448.013 129.518C448.013 127.863 448.52 126.503 449.534 125.435C450.602 124.368 451.936 123.834 453.537 123.834C455.138 123.834 456.446 124.368 457.46 125.435C458.527 126.503 459.061 127.863 459.061 129.518C459.061 131.172 458.527 132.507 457.46 133.521C456.446 134.588 455.138 135.122 453.537 135.122ZM440.168 135.122C438.567 135.122 437.232 134.588 436.165 133.521C435.151 132.507 434.644 131.172 434.644 129.518C434.644 127.863 435.151 126.503 436.165 125.435C437.232 124.368 438.567 123.834 440.168 123.834C441.769 123.834 443.077 124.368 444.091 125.435C445.158 126.503 445.692 127.863 445.692 129.518C445.692 131.172 445.158 132.507 444.091 133.521C443.077 134.588 441.769 135.122 440.168 135.122Z" fill="#068241"/>
<path d="M1316.75 209.366L1316.75 209.374L1316.75 209.381C1317.59 211.472 1318.77 213.218 1320.3 214.608C1321.82 215.993 1323.61 217.014 1325.68 217.675C1327.75 218.388 1330.03 218.741 1332.51 218.741C1335 218.741 1337.28 218.388 1339.34 217.675C1341.41 217.014 1343.21 215.993 1344.73 214.608C1346.26 213.216 1347.41 211.468 1348.2 209.374C1349.04 207.224 1349.45 204.759 1349.45 201.99V200.949V200.449H1348.95H1339.27H1338.77V200.949V201.99C1338.77 204.652 1338.16 206.397 1337.07 207.378C1335.93 208.349 1334.43 208.855 1332.51 208.855C1330.6 208.855 1329.1 208.325 1327.97 207.302C1326.87 206.32 1326.26 204.599 1326.26 201.99V186.799H1346.51H1347.01V186.299V177.653V177.153H1346.51H1326.26V164.443V163.943H1325.76H1316.08H1315.58V164.443V201.99C1315.58 204.757 1315.96 207.219 1316.75 209.366Z" fill="black" stroke="black"/>
<path d="M1297.92 217.2V217.7H1298.42H1308.11H1308.61V217.2V196.625C1308.61 193.27 1308.11 190.299 1307.11 187.722C1306.17 185.154 1304.8 183.007 1303 181.296C1301.21 179.533 1299.06 178.242 1296.55 177.419C1294.05 176.545 1291.28 176.111 1288.25 176.111C1285.22 176.111 1282.45 176.545 1279.95 177.42C1277.44 178.297 1275.29 179.614 1273.5 181.376C1271.71 183.086 1270.31 185.231 1269.31 187.798L1269.31 187.798L1269.31 187.804C1268.36 190.327 1267.9 193.271 1267.9 196.625V217.2V217.7H1268.4H1278.08H1278.58V217.2V196.625C1278.58 192.908 1279.49 190.26 1281.2 188.576C1282.93 186.871 1285.26 185.998 1288.25 185.998C1291.24 185.998 1293.57 186.871 1295.31 188.576C1297.02 190.26 1297.92 192.908 1297.92 196.625V217.2Z" fill="black" stroke="black"/>
<path d="M1233.31 206.879C1231.57 205.496 1230.36 203.641 1229.71 201.288H1262.06H1262.56V200.788V197.426C1262.56 194.377 1262 191.536 1260.89 188.909C1259.84 186.289 1258.33 184.043 1256.39 182.179C1254.49 180.26 1252.18 178.783 1249.46 177.747C1246.74 176.654 1243.78 176.111 1240.57 176.111C1237.32 176.111 1234.32 176.654 1231.6 177.748C1228.94 178.784 1226.61 180.26 1224.6 182.174C1222.65 184.038 1221.12 186.284 1220.01 188.905L1220.01 188.905L1220.01 188.913C1218.95 191.539 1218.43 194.379 1218.43 197.426C1218.43 200.473 1218.95 203.313 1220.01 205.938L1220.01 205.939L1220.01 205.947C1221.12 208.566 1222.65 210.837 1224.6 212.753L1224.6 212.758L1224.61 212.763C1226.61 214.621 1228.94 216.093 1231.6 217.182L1231.6 217.182L1231.61 217.187C1234.33 218.225 1237.32 218.741 1240.57 218.741C1245.43 218.741 1249.65 217.6 1253.21 215.298C1256.77 213.001 1259.33 209.905 1260.89 206.018L1261.17 205.332H1260.43H1250.09H1249.85L1249.7 205.52C1247.82 207.871 1244.82 209.095 1240.57 209.095C1237.62 209.095 1235.22 208.345 1233.31 206.879ZM1229.99 192.683C1230.74 190.61 1231.95 188.97 1233.62 187.745C1235.48 186.43 1237.78 185.757 1240.57 185.757C1243.31 185.757 1245.59 186.429 1247.44 187.746C1249.17 188.972 1250.41 190.612 1251.16 192.683H1229.99Z" fill="black" stroke="black"/>
<path d="M1176.56 217.2V217.7H1177.06H1186.75H1187.25V217.2V194.624C1187.25 191.487 1187.99 189.328 1189.37 188.022C1190.78 186.679 1192.58 185.998 1194.8 185.998C1197.08 185.998 1198.9 186.681 1200.32 188.022L1200.32 188.022L1200.32 188.028C1201.69 189.278 1202.44 191.429 1202.44 194.624V217.2V217.7H1202.94H1212.62H1213.12V217.2V194.624C1213.12 191.485 1212.68 188.752 1211.79 186.44C1210.9 184.09 1209.67 182.158 1208.09 180.658C1206.57 179.11 1204.74 177.977 1202.62 177.26C1200.5 176.493 1198.22 176.111 1195.78 176.111C1192.62 176.111 1189.8 176.739 1187.33 178.007C1185.1 179.132 1183.27 180.731 1181.86 182.798C1180.39 180.73 1178.51 179.131 1176.23 178.007C1173.82 176.738 1171.05 176.111 1167.95 176.111C1165.51 176.111 1163.23 176.493 1161.11 177.26C1158.98 177.978 1157.13 179.111 1155.55 180.658C1154.03 182.158 1152.83 184.091 1151.94 186.44C1151.04 188.752 1150.6 191.485 1150.6 194.624V217.2V217.7H1151.1H1160.79H1161.29V217.2V194.624C1161.29 191.429 1162.03 189.278 1163.4 188.028L1163.4 188.028L1163.41 188.022C1164.82 186.681 1166.65 185.998 1168.92 185.998C1171.15 185.998 1172.94 186.679 1174.36 188.022L1174.36 188.022L1174.36 188.028C1175.79 189.335 1176.56 191.492 1176.56 194.624V217.2Z" fill="black" stroke="black"/>
<path d="M1133.71 189.064L1133.75 189.52H1134.21H1143.81H1144.33L1144.31 189.005C1144.26 187.174 1143.83 185.473 1143.04 183.91C1142.24 182.348 1141.11 180.987 1139.65 179.825C1138.24 178.66 1136.53 177.753 1134.53 177.097L1134.37 177.572L1134.53 177.097C1132.52 176.437 1130.27 176.111 1127.78 176.111C1125.3 176.111 1123.02 176.437 1120.96 177.096L1120.96 177.096L1120.95 177.097C1118.95 177.755 1117.21 178.69 1115.74 179.909C1114.33 181.076 1113.23 182.494 1112.44 184.16C1111.65 185.781 1111.25 187.564 1111.25 189.5C1111.25 192.337 1111.83 194.617 1113.06 196.281C1114.25 197.897 1115.75 199.125 1117.56 199.961L1117.56 199.962L1117.58 199.967C1119.35 200.733 1121.24 201.251 1123.24 201.524L1123.24 201.524C1125.24 201.791 1127.11 202.057 1128.85 202.323L1128.85 202.324L1128.86 202.325C1130.57 202.535 1131.96 202.874 1133.04 203.331L1133.05 203.334L1133.06 203.338C1133.56 203.525 1133.89 203.779 1134.11 204.08C1134.32 204.381 1134.44 204.768 1134.44 205.272C1134.44 206.497 1133.95 207.471 1132.93 208.234L1132.93 208.234L1132.92 208.241C1131.98 208.986 1130.28 209.415 1127.7 209.415C1125.47 209.415 1123.85 209.021 1122.78 208.302C1121.76 207.587 1121.25 206.661 1121.2 205.491L1121.18 205.012H1120.7H1110.94H1110.42L1110.44 205.526C1110.49 207.465 1110.95 209.248 1111.8 210.868C1112.65 212.483 1113.83 213.873 1115.35 215.035C1116.87 216.197 1118.69 217.102 1120.8 217.757C1122.92 218.415 1125.27 218.741 1127.86 218.741C1130.45 218.741 1132.81 218.415 1134.93 217.758C1137.09 217.104 1138.93 216.199 1140.45 215.035L1140.45 215.035L1140.46 215.028C1141.98 213.811 1143.14 212.367 1143.94 210.696C1144.78 209.023 1145.21 207.213 1145.21 205.272C1145.21 202.487 1144.63 200.257 1143.4 198.644C1142.21 197.083 1140.7 195.885 1138.9 195.051C1137.11 194.228 1135.19 193.681 1133.14 193.408C1131.19 193.142 1129.35 192.875 1127.61 192.609C1125.9 192.346 1124.51 191.981 1123.42 191.521C1122.92 191.31 1122.57 191.037 1122.36 190.718C1122.14 190.401 1122.02 190.004 1122.02 189.5C1122.02 188.318 1122.46 187.366 1123.38 186.607C1124.34 185.855 1125.83 185.437 1127.94 185.437C1129.78 185.437 1131.16 185.8 1132.14 186.47C1133.11 187.139 1133.62 187.996 1133.71 189.064Z" fill="black" stroke="black"/>
<path d="M1095.09 189.064L1095.13 189.52H1095.59H1105.19H1105.71L1105.69 189.005C1105.64 187.174 1105.21 185.473 1104.42 183.91C1103.62 182.348 1102.49 180.987 1101.03 179.825C1099.62 178.66 1097.91 177.753 1095.91 177.097L1095.75 177.572L1095.91 177.097C1093.9 176.437 1091.65 176.111 1089.16 176.111C1086.68 176.111 1084.4 176.437 1082.34 177.096L1082.34 177.096L1082.33 177.097C1080.33 177.755 1078.59 178.69 1077.13 179.909C1075.71 181.076 1074.61 182.494 1073.82 184.16C1073.03 185.781 1072.63 187.564 1072.63 189.5C1072.63 192.337 1073.21 194.617 1074.44 196.281C1075.63 197.897 1077.13 199.125 1078.94 199.961L1078.94 199.962L1078.96 199.967C1080.74 200.733 1082.62 201.251 1084.62 201.524L1084.62 201.524C1086.63 201.791 1088.49 202.057 1090.23 202.323L1090.23 202.324L1090.24 202.325C1091.95 202.535 1093.34 202.874 1094.42 203.331L1094.43 203.334L1094.44 203.338C1094.94 203.525 1095.27 203.779 1095.49 204.08C1095.7 204.381 1095.82 204.768 1095.82 205.272C1095.82 206.497 1095.33 207.471 1094.32 208.234L1094.31 208.234L1094.31 208.241C1093.36 208.986 1091.66 209.415 1089.08 209.415C1086.85 209.415 1085.23 209.021 1084.16 208.302C1083.14 207.587 1082.63 206.661 1082.58 205.491L1082.56 205.012H1082.08H1072.32H1071.8L1071.82 205.526C1071.87 207.465 1072.33 209.248 1073.18 210.868C1074.03 212.483 1075.22 213.873 1076.73 215.035C1078.25 216.197 1080.07 217.102 1082.18 217.757C1084.3 218.415 1086.65 218.741 1089.24 218.741C1091.83 218.741 1094.19 218.415 1096.31 217.758C1098.47 217.104 1100.32 216.199 1101.84 215.035L1101.84 215.035L1101.84 215.028C1103.36 213.811 1104.52 212.367 1105.32 210.696C1106.17 209.023 1106.59 207.213 1106.59 205.272C1106.59 202.487 1106.01 200.257 1104.78 198.644C1103.59 197.083 1102.09 195.885 1100.28 195.051C1098.49 194.228 1096.57 193.681 1094.52 193.408C1092.57 193.142 1090.73 192.875 1088.99 192.609C1087.28 192.346 1085.89 191.981 1084.8 191.521C1084.3 191.31 1083.96 191.037 1083.74 190.718C1083.52 190.401 1083.4 190.004 1083.4 189.5C1083.4 188.318 1083.84 187.366 1084.76 186.607C1085.72 185.855 1087.21 185.437 1089.33 185.437C1091.17 185.437 1092.55 185.8 1093.52 186.47C1094.49 187.139 1095 187.996 1095.09 189.064Z" fill="black" stroke="black"/>
<path d="M1038.78 206.879C1037.03 205.496 1035.83 203.641 1035.17 201.288H1067.52H1068.02V200.788V197.426C1068.02 194.377 1067.47 191.536 1066.36 188.909C1065.3 186.289 1063.8 184.043 1061.85 182.179C1059.95 180.26 1057.64 178.783 1054.93 177.747C1052.21 176.654 1049.24 176.111 1046.04 176.111C1042.78 176.111 1039.79 176.654 1037.07 177.748C1034.4 178.784 1032.07 180.26 1030.07 182.174C1028.12 184.038 1026.59 186.284 1025.48 188.905L1025.48 188.905L1025.47 188.913C1024.42 191.539 1023.89 194.379 1023.89 197.426C1023.89 200.473 1024.42 203.313 1025.47 205.938L1025.47 205.939L1025.48 205.947C1026.59 208.566 1028.12 210.837 1030.06 212.753L1030.07 212.758L1030.07 212.763C1032.07 214.621 1034.4 216.093 1037.06 217.182L1037.06 217.182L1037.07 217.187C1039.79 218.225 1042.78 218.741 1046.04 218.741C1050.89 218.741 1055.11 217.6 1058.68 215.298C1062.24 213.001 1064.8 209.905 1066.36 206.018L1066.63 205.332H1065.89H1055.56H1055.32L1055.17 205.52C1053.29 207.871 1050.28 209.095 1046.04 209.095C1043.09 209.095 1040.68 208.345 1038.78 206.879ZM1035.45 192.683C1036.2 190.61 1037.41 188.97 1039.09 187.745C1040.94 186.43 1043.25 185.757 1046.04 185.757C1048.77 185.757 1051.06 186.429 1052.91 187.746C1054.63 188.972 1055.87 190.612 1056.62 192.683H1035.45Z" fill="black" stroke="black"/>
<path d="M1008.63 189.064L1008.67 189.52H1009.13H1018.73H1019.25L1019.23 189.005C1019.18 187.174 1018.75 185.473 1017.96 183.91C1017.17 182.348 1016.03 180.987 1014.57 179.825C1013.16 178.66 1011.45 177.753 1009.45 177.097L1009.3 177.572L1009.45 177.097C1007.44 176.437 1005.19 176.111 1002.7 176.111C1000.22 176.111 997.943 176.437 995.879 177.096L995.879 177.096L995.875 177.097C993.87 177.755 992.131 178.69 990.667 179.909C989.255 181.076 988.152 182.494 987.362 184.16C986.567 185.781 986.173 187.564 986.173 189.5C986.173 192.337 986.754 194.617 987.979 196.281C989.168 197.897 990.672 199.125 992.485 199.961L992.485 199.962L992.497 199.967C994.276 200.733 996.165 201.251 998.161 201.524L998.162 201.524C1000.17 201.791 1002.03 202.057 1003.77 202.323L1003.77 202.324L1003.78 202.325C1005.49 202.535 1006.88 202.874 1007.96 203.331L1007.97 203.334L1007.98 203.338C1008.48 203.525 1008.82 203.779 1009.03 204.08C1009.24 204.381 1009.36 204.768 1009.36 205.272C1009.36 206.497 1008.87 207.471 1007.86 208.234L1007.86 208.234L1007.85 208.241C1006.9 208.986 1005.2 209.415 1002.62 209.415C1000.39 209.415 998.773 209.021 997.698 208.302C996.682 207.587 996.171 206.661 996.124 205.491L996.104 205.012H995.624H985.859H985.345L985.36 205.526C985.416 207.465 985.867 209.248 986.719 210.868C987.568 212.483 988.756 213.873 990.275 215.035C991.794 216.197 993.612 217.102 995.72 217.757C997.837 218.415 1000.19 218.741 1002.79 218.741C1005.38 218.741 1007.73 218.415 1009.85 217.758C1012.01 217.104 1013.86 216.199 1015.38 215.035L1015.38 215.035L1015.39 215.028C1016.9 213.811 1018.06 212.367 1018.86 210.696C1019.71 209.023 1020.13 207.213 1020.13 205.272C1020.13 202.487 1019.55 200.257 1018.32 198.644C1017.13 197.083 1015.63 195.885 1013.82 195.051C1012.03 194.228 1010.11 193.681 1008.06 193.408C1006.11 193.142 1004.27 192.875 1002.54 192.609C1000.82 192.346 999.43 191.981 998.341 191.521C997.839 191.31 997.496 191.037 997.277 190.718C997.059 190.401 996.938 190.004 996.938 189.5C996.938 188.318 997.385 187.366 998.298 186.607C999.258 185.855 1000.75 185.437 1002.87 185.437C1004.71 185.437 1006.09 185.8 1007.06 186.47C1008.03 187.139 1008.54 187.996 1008.63 189.064Z" fill="black" stroke="black"/>
<path d="M970.013 189.064L970.054 189.52H970.511H980.114H980.629L980.613 189.005C980.557 187.174 980.133 185.473 979.339 183.91C978.545 182.348 977.413 180.987 975.953 179.825C974.542 178.66 972.831 177.753 970.83 177.097L970.674 177.572L970.83 177.097C968.818 176.437 966.567 176.111 964.083 176.111C961.598 176.111 959.322 176.437 957.258 177.096L957.258 177.096L957.254 177.097C955.249 177.755 953.51 178.69 952.046 179.909C950.634 181.076 949.531 182.494 948.741 184.16C947.946 185.781 947.552 187.564 947.552 189.5C947.552 192.337 948.133 194.617 949.358 196.281C950.547 197.897 952.051 199.125 953.864 199.961L953.864 199.962L953.876 199.967C955.655 200.733 957.544 201.251 959.539 201.524L959.541 201.524C961.546 201.791 963.414 202.057 965.146 202.323L965.154 202.324L965.161 202.325C966.868 202.535 968.257 202.874 969.341 203.331L969.35 203.334L969.359 203.338C969.858 203.525 970.195 203.779 970.409 204.08C970.623 204.381 970.744 204.768 970.744 205.272C970.744 206.497 970.252 207.471 969.235 208.234L969.235 208.234L969.226 208.241C968.278 208.986 966.579 209.415 964.001 209.415C961.772 209.415 960.152 209.021 959.076 208.302C958.061 207.587 957.55 206.661 957.503 205.491L957.483 205.012H957.003H947.238H946.724L946.738 205.526C946.795 207.465 947.246 209.248 948.098 210.868C948.947 212.483 950.135 213.873 951.654 215.035C953.173 216.197 954.991 217.102 957.099 217.757C959.216 218.415 961.573 218.741 964.164 218.741C966.755 218.741 969.111 218.415 971.227 217.758C973.389 217.104 975.235 216.199 976.756 215.035L976.756 215.035L976.764 215.028C978.283 213.811 979.443 212.367 980.237 210.696C981.086 209.023 981.509 207.213 981.509 205.272C981.509 202.487 980.927 200.257 979.697 198.644C978.508 197.083 977.005 195.885 975.196 195.051C973.413 194.228 971.493 193.681 969.439 193.408C967.489 193.142 965.647 192.875 963.915 192.609C962.204 192.346 960.809 191.981 959.72 191.521C959.218 191.31 958.875 191.037 958.656 190.718C958.438 190.401 958.317 190.004 958.317 189.5C958.317 188.318 958.764 187.366 959.677 186.607C960.636 185.855 962.131 185.437 964.246 185.437C966.086 185.437 967.465 185.8 968.438 186.47C969.409 187.139 969.919 187.996 970.013 189.064Z" fill="black" stroke="black"/>
<path d="M929.665 217.204V217.704H930.165H940.581H941.081V217.204V186.543C941.081 182.972 940.559 179.763 939.504 176.923C938.45 174.032 936.893 171.592 934.829 169.615C932.819 167.584 930.314 166.027 927.327 164.938C924.386 163.847 921.016 163.307 917.227 163.307C913.437 163.307 910.041 163.847 907.047 164.938L907.047 164.938L907.044 164.939C904.109 166.029 901.631 167.586 899.622 169.617C897.613 171.595 896.083 174.034 895.03 176.925L895.03 176.925L895.028 176.93C894.03 179.768 893.535 182.974 893.535 186.543V217.204V217.704H894.035H904.207H904.707V217.204V202.013H929.665V217.204ZM926.543 177.115L926.543 177.115L926.547 177.119C928.603 179.294 929.665 182.41 929.665 186.543V191.727H904.707V186.543C904.707 182.407 905.744 179.289 907.748 177.115C909.736 174.959 912.832 173.833 917.145 173.833C921.458 173.833 924.555 174.959 926.543 177.115Z" fill="black" stroke="black"/>
<path d="M848.608 216.522C850.289 215.583 851.696 214.354 852.828 212.839V216.085C852.828 219.867 851.945 222.447 850.303 223.964L850.303 223.964L850.297 223.969C848.628 225.562 846.218 226.393 842.993 226.393C840.61 226.393 838.673 225.956 837.153 225.115C835.64 224.277 834.513 223.022 833.767 221.328L833.636 221.029H833.31H823.626H822.998L823.139 221.642C823.694 224.043 824.585 226.132 825.82 227.9L825.82 227.9L825.827 227.908C827.107 229.661 828.614 231.118 830.347 232.272L830.347 232.272L830.353 232.276C832.136 233.427 834.084 234.275 836.195 234.822L836.198 234.823C838.357 235.367 840.622 235.639 842.993 235.639C845.804 235.639 848.456 235.259 850.947 234.497C853.45 233.785 855.629 232.633 857.477 231.036C859.386 229.433 860.868 227.365 861.925 224.847C862.99 222.367 863.511 219.36 863.511 215.845V177.658V177.158H863.011H853.328H852.828V177.658V197.752C852.828 201.353 851.901 203.979 850.129 205.722C848.336 207.486 846.026 208.38 843.156 208.38C840.168 208.38 837.835 207.507 836.102 205.802C834.39 204.117 833.484 201.47 833.484 197.752V177.658V177.158H832.984H823.301H822.801V177.658V197.752C822.801 201.319 823.295 204.425 824.298 207.057L824.298 207.057L824.303 207.069C825.356 209.631 826.749 211.748 828.489 213.405C830.22 215.053 832.205 216.291 834.439 217.115L834.439 217.115L834.449 217.118C836.672 217.884 838.979 218.266 841.366 218.266C844.096 218.266 846.515 217.69 848.608 216.522Z" fill="black" stroke="black"/>
<path d="M784.873 209.366L784.875 209.374L784.878 209.381C785.717 211.472 786.897 213.218 788.423 214.608C789.943 215.993 791.741 217.014 793.81 217.675C795.876 218.388 798.154 218.741 800.641 218.741C803.127 218.741 805.406 218.388 807.471 217.675C809.54 217.014 811.338 215.993 812.858 214.608C814.386 213.216 815.54 211.467 816.325 209.374C817.165 207.224 817.578 204.759 817.578 201.99V200.949V200.449H817.078H807.395H806.895V200.949V201.99C806.895 204.652 806.282 206.396 805.194 207.378C804.056 208.349 802.554 208.855 800.641 208.855C798.731 208.855 797.231 208.325 796.092 207.302C794.999 206.32 794.387 204.599 794.387 201.99V186.799H814.637H815.137V186.299V177.653V177.153H814.637H794.387V164.443V163.943H793.887H784.203H783.703V164.443V201.99C783.703 204.757 784.089 207.219 784.873 209.366Z" fill="black" stroke="black"/>
<path d="M764.663 217.195V217.695H765.163H774.846H775.346V217.195V177.648V177.148H774.846H765.163H764.663V177.648V217.195ZM765.056 171.439C766.4 172.761 768.046 173.424 769.964 173.424C771.93 173.424 773.58 172.765 774.875 171.436C776.217 170.114 776.892 168.492 776.892 166.6C776.892 164.659 776.22 163.009 774.875 161.684C773.58 160.354 771.93 159.695 769.964 159.695C768.046 159.695 766.4 160.358 765.056 161.68C763.709 163.006 763.035 164.657 763.035 166.6C763.035 168.494 763.712 170.117 765.056 171.439Z" fill="black" stroke="black"/>
<path d="M725.351 209.366L725.354 209.374L725.357 209.381C726.196 211.472 727.376 213.218 728.902 214.608C730.422 215.993 732.22 217.014 734.289 217.675C736.354 218.388 738.633 218.741 741.119 218.741C743.606 218.741 745.884 218.388 747.95 217.675C750.019 217.014 751.817 215.993 753.337 214.608C754.864 213.216 756.019 211.467 756.803 209.374C757.643 207.224 758.057 204.759 758.057 201.99V200.949V200.449H757.557H747.873H747.373V200.949V201.99C747.373 204.652 746.761 206.396 745.672 207.378C744.534 208.349 743.032 208.855 741.119 208.855C739.21 208.855 737.709 208.325 736.571 207.302C735.477 206.32 734.865 204.599 734.865 201.99V186.799H755.116H755.616V186.299V177.653V177.153H755.116H734.865V164.443V163.943H734.365H724.682H724.182V164.443V201.99C724.182 204.757 724.568 207.219 725.351 209.366Z" fill="black" stroke="black"/>
<path d="M706.527 217.2V217.7H707.027H716.711H717.211V217.2V196.625C717.211 193.27 716.716 190.299 715.714 187.722C714.769 185.154 713.401 183.007 711.606 181.296C709.814 179.533 707.66 178.242 705.153 177.419C702.653 176.545 699.885 176.111 696.855 176.111C693.824 176.111 691.055 176.545 688.553 177.42C686.048 178.297 683.895 179.614 682.104 181.376C680.31 183.086 678.917 185.231 677.917 187.798L677.917 187.798L677.915 187.804C676.967 190.327 676.5 193.271 676.5 196.625V217.2V217.7H677H686.684H687.184V217.2V196.625C687.184 192.908 688.089 190.26 689.801 188.576C691.534 186.871 693.867 185.998 696.855 185.998C699.844 185.998 702.177 186.871 703.91 188.576C705.622 190.26 706.527 192.908 706.527 196.625V217.2Z" fill="black" stroke="black"/>
<path d="M641.919 206.879C640.175 205.496 638.97 203.641 638.311 201.288H670.662H671.162V200.788V197.426C671.162 194.377 670.608 191.536 669.496 188.909C668.441 186.289 666.94 184.043 664.991 182.179C663.094 180.26 660.783 178.783 658.068 177.747C655.346 176.654 652.381 176.111 649.179 176.111C645.923 176.111 642.93 176.654 640.206 177.748C637.545 178.784 635.211 180.26 633.209 182.174C631.259 184.038 629.729 186.284 628.619 188.905L628.619 188.905L628.615 188.913C627.559 191.539 627.033 194.379 627.033 197.426C627.033 200.473 627.559 203.313 628.615 205.938L628.615 205.939L628.619 205.947C629.728 208.566 631.257 210.837 633.204 212.753L633.209 212.758L633.215 212.763C635.214 214.621 637.544 216.093 640.201 217.182L640.201 217.182L640.212 217.187C642.934 218.225 645.925 218.741 649.179 218.741C654.034 218.741 658.254 217.6 661.819 215.298C665.377 213.001 667.94 209.905 669.498 206.018L669.773 205.332H669.034H658.7H658.459L658.309 205.52C656.427 207.871 653.424 209.095 649.179 209.095C646.23 209.095 643.822 208.345 641.919 206.879ZM638.592 192.683C639.341 190.61 640.554 188.97 642.229 187.745C644.081 186.43 646.387 185.757 649.179 185.757C651.915 185.757 654.196 186.429 656.05 187.746C657.776 188.972 659.014 190.612 659.765 192.683H638.592Z" fill="black" stroke="black"/>
<path d="M608.544 217.271L608.544 217.271L608.552 217.268C611.269 216.232 613.58 214.782 615.479 212.915C617.429 210.996 618.931 208.696 619.986 206.021C621.098 203.339 621.65 200.365 621.65 197.107V160.361V159.861H621.15H611.466H610.966V160.361V181.844C609.696 180.233 608.063 178.928 606.078 177.928C603.718 176.712 600.979 176.113 597.877 176.113C595.429 176.113 592.985 176.551 590.547 177.423C588.096 178.3 585.895 179.644 583.948 181.45C582.048 183.208 580.493 185.427 579.275 188.093L579.275 188.093L579.273 188.098C578.1 190.738 577.521 193.852 577.521 197.427C577.521 200.475 578.047 203.314 579.104 205.94L579.104 205.94L579.107 205.948C580.217 208.568 581.745 210.838 583.693 212.754L583.698 212.759L583.703 212.764C585.702 214.622 588.033 216.095 590.689 217.184L590.689 217.184L590.7 217.188C593.422 218.226 596.413 218.742 599.667 218.742C602.865 218.742 605.826 218.254 608.544 217.271ZM607.852 205.726L607.852 205.726C605.847 207.8 603.138 208.856 599.667 208.856C596.198 208.856 593.459 207.8 591.398 205.724C589.332 203.588 588.286 200.837 588.286 197.427C588.286 194.016 589.333 191.294 591.396 189.213L591.396 189.213L591.401 189.209C593.462 187.08 596.2 185.999 599.667 185.999C603.134 185.999 605.842 187.079 607.848 189.205L607.848 189.205L607.856 189.213C609.92 191.294 610.966 194.016 610.966 197.427C610.966 200.838 609.92 203.59 607.852 205.726Z" fill="black" stroke="black"/>
<path d="M559.246 217.205V217.705H559.746H570.162H570.662V217.205V164.848V164.348H570.162H559.746H559.246V164.848V217.205Z" fill="black" stroke="black"/>
<path d="M512.94 216.522C514.621 215.583 516.028 214.354 517.16 212.839V216.085C517.16 219.867 516.277 222.447 514.635 223.964L514.635 223.964L514.629 223.969C512.96 225.562 510.551 226.393 507.325 226.393C504.942 226.393 503.005 225.956 501.485 225.115C499.973 224.277 498.845 223.022 498.1 221.328L497.968 221.029H497.642H487.958H487.33L487.471 221.642C488.026 224.043 488.917 226.132 490.152 227.9L490.152 227.9L490.159 227.908C491.439 229.661 492.946 231.118 494.679 232.272L494.679 232.272L494.685 232.276C496.468 233.427 498.416 234.275 500.527 234.822L500.53 234.823C502.689 235.367 504.954 235.639 507.325 235.639C510.136 235.639 512.788 235.259 515.279 234.497C517.782 233.785 519.961 232.633 521.809 231.036C523.719 229.433 525.2 227.365 526.258 224.847C527.322 222.366 527.843 219.36 527.843 215.845V177.658V177.158H527.343H517.66H517.16V177.658V197.752C517.16 201.353 516.233 203.979 514.461 205.722C512.668 207.486 510.358 208.38 507.488 208.38C504.5 208.38 502.167 207.507 500.434 205.802C498.722 204.117 497.816 201.47 497.816 197.752V177.658V177.158H497.316H487.633H487.133V177.658V197.752C487.133 201.319 487.627 204.425 488.63 207.057L488.63 207.057L488.635 207.069C489.688 209.631 491.081 211.748 492.822 213.405C494.552 215.053 496.537 216.291 498.771 217.115L498.771 217.115L498.781 217.118C501.004 217.884 503.311 218.266 505.698 218.266C508.428 218.266 510.847 217.69 512.94 216.522Z" fill="black" stroke="black"/>
<path d="M422.48 217.704H422.98V217.204V183.501C422.98 179.993 423.833 177.57 425.423 176.103C427.059 174.594 429.078 173.833 431.513 173.833C434.005 173.833 436.02 174.596 437.597 176.097L437.597 176.097L437.603 176.103C439.193 177.57 440.045 179.993 440.045 183.501V217.204V217.704H440.545H450.961H451.461V217.204V183.501C451.461 179.991 452.288 177.566 453.826 176.1C455.459 174.595 457.503 173.833 459.994 173.833C462.429 173.833 464.448 174.594 466.084 176.103C467.674 177.57 468.527 179.993 468.527 183.501V217.204V217.704H469.027H479.442H479.942V217.204V183.501C479.942 180.094 479.448 177.122 478.445 174.596C477.501 172.03 476.162 169.91 474.42 168.251C472.737 166.597 470.721 165.359 468.379 164.536C466.043 163.715 463.545 163.307 460.889 163.307C457.403 163.307 454.31 164.015 451.623 165.446C449.183 166.723 447.224 168.545 445.748 170.904C444.226 168.546 442.244 166.724 439.804 165.447C437.17 164.014 434.103 163.307 430.618 163.307C427.962 163.307 425.464 163.715 423.128 164.536C420.786 165.359 418.744 166.596 417.009 168.248L417.009 168.248L417.003 168.254C415.317 169.912 413.979 172.03 412.982 174.593L412.982 174.593L412.98 174.599C412.031 177.123 411.564 180.094 411.564 183.501V217.204V217.704H412.064H422.48Z" fill="black" stroke="black"/>
</svg>
