<svg xmlns="http://www.w3.org/2000/svg" width="159.929" height="51.022" viewBox="0 0 159.929 51.022">
  <g id="ADGE-Header" transform="translate(-0.001)">
    <g id="ADEK_Colored_Logo_Horizontal-01" transform="translate(0 0)">
      <path id="Shape" d="M224.542,18.021a.51.51,0,0,1-.2.189.812.812,0,0,1-.468.109.512.512,0,0,1-.452-.229,8.271,8.271,0,0,1-.872-1.717c-.286-.71-.243-.592-.68-1.663a10.127,10.127,0,0,0-.8-1.6,3.8,3.8,0,0,0-1.129-.956,3.277,3.277,0,0,0-1.018-.22,6.3,6.3,0,0,0-1.68.137,1.764,1.764,0,0,0-.84.446.763.763,0,0,1-.254.217,2.979,2.979,0,0,0-.76.421.944.944,0,0,0-.2,1.462h.017c0-.186,0-.346.04-.341a1.29,1.29,0,0,0,.823.155c.352-.049.572.484.572.484l.057-.155a1.343,1.343,0,0,0,.206.409.326.326,0,0,0,.054-.077c.106.132.286.217.286.435a.857.857,0,0,1-.337.607c-.094.086-.649.544-1.237,1.145-.306.312-.46.5-.769.841a.711.711,0,0,1-.463.286h-.071a.523.523,0,0,1-.386-.175c-.063-.08-3.058-4.043-4.492-5.943,2.6-2.541,6.91-2.962,8-2.882.251.017.537.217.22.632a3.711,3.711,0,0,1,2.858,0c-.317-.415-.031-.615.223-.632a11.322,11.322,0,0,1,8.025,2.945c-1.4,1.851-3.267,4.2-4.287,5.657m12.654,7.743c.092-9.6-2-14.977-3.84-17.616.623-.824,1.006-1.331,1.034-1.356a1.866,1.866,0,0,1,1.143-.572,20.809,20.809,0,0,1,.66-2.753,15.389,15.389,0,0,1-2.444,1.431,1.716,1.716,0,0,1-.235,1.259c-.025.034-.317.426-.8,1.07a11.431,11.431,0,0,0-3.1-2.575c-.326-.186-.677-.363-1.054-.535a1.8,1.8,0,0,0-.492-1.348.978.978,0,0,0-.571-.784h0a1.237,1.237,0,0,0-1.012.286A2.285,2.285,0,0,0,225.109,3a26.434,26.434,0,0,0-3.844-.506,2.258,2.258,0,0,0-1.2-1.505,1.262,1.262,0,0,0-.94-.638h0a1.267,1.267,0,0,0-.941.638,2.259,2.259,0,0,0-1.2,1.505,26.47,26.47,0,0,0-3.835.5,2.285,2.285,0,0,0-1.366-.744,1.234,1.234,0,0,0-1.012-.286h0a.977.977,0,0,0-.571.784,1.782,1.782,0,0,0-.495,1.348c-.377.172-.729.349-1.054.535a10.06,10.06,0,0,0-3.038,2.541l-.726-.97a1.692,1.692,0,0,1-.235-1.259,15.486,15.486,0,0,1-2.446-1.431,20.738,20.738,0,0,1,.654,2.77,1.851,1.851,0,0,1,1.143.572c.026.023.36.466.915,1.2-1.835,2.621-3.973,8.041-3.881,17.7,0,.9-.372,9.266,2.352,14.906A13.39,13.39,0,0,0,206,44.155a9.952,9.952,0,0,0,4.347,2.421l.2.054a6.574,6.574,0,0,0,4.518-.175l-.1.255c-.028.066-.068.172-.091.229-.38,1.039-.126,2.112,1.274,2.275a3.6,3.6,0,0,1,1.269.286,3.856,3.856,0,0,1,1.143.859,5,5,0,0,1,.717,1.01h0a5.028,5.028,0,0,1,.715-1.01,3.928,3.928,0,0,1,1.143-.859,3.616,3.616,0,0,1,1.269-.286c1.4-.163,1.66-1.233,1.277-2.272-.023-.057-.063-.166-.094-.235l-.1-.252c.971.572,3.955,1,6.822-.818a11.844,11.844,0,0,0,4.547-4.928c2.724-5.643,2.358-14.179,2.346-14.946" transform="translate(-77.296 -0.348)" fill="#fff"/>
      <path id="Path" d="M249.926,31.595a24.849,24.849,0,0,1-4.058,2.741l-.649.355v-.469a25.617,25.617,0,0,0-2.9-11.861c-.2.258-.843,1.085-1.509,1.932a1.354,1.354,0,0,1,1.143.412,11.883,11.883,0,0,1,2.287,3.691,9.9,9.9,0,0,1,.514,3.457h0s-.374,6.461-1.112,12.648c-.668,5.62-1.037,6.358-1.037,6.358a4.092,4.092,0,0,1-.709-1.554l-.06.054a4.832,4.832,0,0,1-.626-1.668,24.615,24.615,0,0,1-.286-4.6h0a1.967,1.967,0,0,0-.249-.858,4.064,4.064,0,0,1-.286-.787h0a5.257,5.257,0,0,0-1.626-2.753,8.01,8.01,0,0,1-1.143-1.877l-.043.037a1.6,1.6,0,0,0-.512.71,6.85,6.85,0,0,1,.04,2.243c-.06-.034-.157-.132-.212-.172.069.667-.246,1.431-.046,2.055l-.395-.054a.618.618,0,0,0,.043.1.54.54,0,0,0,.2.172l.129.06c.034.014.134.054.406.143a1.206,1.206,0,0,0-.174-1.259c-.188-.226.04-.572.429-.389a5.479,5.479,0,0,1,1.62,1.085c.826.784,1.069,1.54.892,1.688s-.238.092-.4.034a.306.306,0,0,1,0,.089.465.465,0,0,1-.351.306l-.02.032c-.086.123-.228.169-.48.163a1.254,1.254,0,0,1-.48-.146.625.625,0,0,1-.163-.117c-.049.037-.1.074-.145.117a35.462,35.462,0,0,1,2.792,3.923,12.336,12.336,0,0,1,.934,2.089,1.613,1.613,0,0,1-.786,0,2.911,2.911,0,0,1,.209,1.165,2.362,2.362,0,0,1-1.266-.286,1.568,1.568,0,0,0,.04.223c.4.286.857.621,1.043.758a10.01,10.01,0,0,1-4.859.489l-.366-.052c-.017.052-.043.114-.069.18.191.455.638,1.511.734,1.717a6.484,6.484,0,0,0,4.181.644,5.594,5.594,0,0,0,1.06-.286,11.056,11.056,0,0,0,3.364-2.178,13.037,13.037,0,0,0,2.515-3.234c2.166-4.235,2.523-10.516,2.523-13.054V34.485c0-.859-.06-2.246-.091-2.89" transform="translate(-90.603 -8.808)" fill="#ea0029" fill-rule="evenodd"/>
      <path id="Path-2" data-name="Path" d="M215.84,53.8c.086-.235.478-1.173.678-1.648-.029-.083-.054-.163-.078-.246-.268.046-.54.086-.811.112a9.708,9.708,0,0,1-4.833-.486c.237-.166.683-.532,1.286-.924a.913.913,0,0,1,.023-.12,2.318,2.318,0,0,1-1.266.286,2.98,2.98,0,0,1,.212-1.165,1.594,1.594,0,0,1-.786,0,12.115,12.115,0,0,1,.932-2.089,23.408,23.408,0,0,1,2.14-3.028,1.581,1.581,0,0,1,.377-.678l.12-.129c-.083-.072-.16-.135-.235-.192a.6.6,0,0,1-.191.149,1.225,1.225,0,0,1-.48.143c-.251,0-.392-.037-.48-.16l-.017-.032a.477.477,0,0,1-.354-.306.327.327,0,0,1,0-.092.309.309,0,0,1-.355-.049c-.174-.149.066-.9.889-1.688a5.487,5.487,0,0,1,1.623-1.084c.388-.175.614.16.426.386a1.2,1.2,0,0,0-.169,1.265c.235-.08.326-.117.363-.132a.636.636,0,0,0,.326-.229.364.364,0,0,0,.037-.086l-.343.04c.174-.432-.094-1.494.083-2.178a1.3,1.3,0,0,1-.235.134,8.627,8.627,0,0,1-.06-2.1,1.417,1.417,0,0,0-.449-.6,6.807,6.807,0,0,1-1.1,1.791,5.194,5.194,0,0,0-1.626,2.75h0a3.991,3.991,0,0,1-.286.784,1.985,1.985,0,0,0-.249.858h0a25.3,25.3,0,0,1-.286,4.6,4.875,4.875,0,0,1-.628,1.668l-.06-.054a3.99,3.99,0,0,1-.708,1.554s-.369-.738-1.038-6.358c-.737-6.187-1.112-12.648-1.112-12.648h0a9.842,9.842,0,0,1,.515-3.428,11.871,11.871,0,0,1,2.286-3.691,1.363,1.363,0,0,1,1.269-.395c-.118-.163-.252-.341-.252-.341-.426-.572-.915-1.185-1.335-1.74a26.158,26.158,0,0,0-2.944,11.732v.678l-.529-.286a25.594,25.594,0,0,1-4.178-2.807c-.031.647-.1,2.833-.1,2.833v1.331c0,2.538.454,8.771,2.524,13.054a12.673,12.673,0,0,0,2.46,3.277,9.6,9.6,0,0,0,3.667,2.149c.08.026.237.08.317.1a6.525,6.525,0,0,0,4.993-.446Z" transform="translate(-77.619 -8.758)" fill="#ea0029" fill-rule="evenodd"/>
      <path id="Path-3" data-name="Path" d="M225.768,74.355a27.633,27.633,0,0,1,.32-2.847,1.717,1.717,0,0,1-.468.355c-.038,0-.08-.043-.129-.1l-1.143,2.8a1.321,1.321,0,0,1,1.429-.2" transform="translate(-86.264 -27.703)" fill="#ea0029" fill-rule="evenodd"/>
      <path id="Path-4" data-name="Path" d="M230.416,74.622a31.67,31.67,0,0,0-.48-4.106c-.02-.029-.042-.063-.063-.1a1.975,1.975,0,0,1-.114-.166,5.431,5.431,0,0,1-.286.75,1.848,1.848,0,0,1-.388.6,2.778,2.778,0,0,1-.963-1.19,2.863,2.863,0,0,1-.954,1.173,1.825,1.825,0,0,1-.389-.6,3.957,3.957,0,0,1-.16-.4,32.652,32.652,0,0,0-.428,4.043c-1.172-.776-1.884,0-1.644.538a.885.885,0,0,0,.08.129.756.756,0,0,0,.572.309,3.711,3.711,0,0,1,1.443.329,4.644,4.644,0,0,1,1.646,1.354,4.62,4.62,0,0,1,1.644-1.354,3.713,3.713,0,0,1,1.429-.329.822.822,0,0,0,.571-.309.557.557,0,0,0,.077-.129c.243-.541-.468-1.313-1.64-.538" transform="translate(-86.322 -27.22)" fill="#ea0029" fill-rule="evenodd"/>
      <path id="Path-5" data-name="Path" d="M234.542,71.905a1.548,1.548,0,0,1-.389-.286,22.588,22.588,0,0,1,.349,2.773,1.319,1.319,0,0,1,1.429.2c0-.014-.717-1.837-1.143-2.947a.9.9,0,0,1-.231.255" transform="translate(-90.034 -27.746)" fill="#ea0029" fill-rule="evenodd"/>
      <path id="Shape-2" data-name="Shape" d="M236.712,26.021c0-.859-.06-2.246-.092-2.89a24.99,24.99,0,0,1-4.058,2.744l-.649.352v-.469a25.677,25.677,0,0,0-2.9-11.864c-.195.26-.843,1.087-1.509,1.932a1.365,1.365,0,0,1,1.143.415,11.921,11.921,0,0,1,2.287,3.691,9.9,9.9,0,0,1,.514,3.457h0s-.374,6.461-1.112,12.648c-.668,5.623-1.037,6.358-1.037,6.358a4.091,4.091,0,0,1-.709-1.554l-.06.054a4.832,4.832,0,0,1-.626-1.668,24.794,24.794,0,0,1-.286-4.6h0a1.958,1.958,0,0,0-.249-.859,4,4,0,0,1-.286-.79h0a5.258,5.258,0,0,0-1.626-2.75,8.013,8.013,0,0,1-1.143-1.877l-.043.037a1.563,1.563,0,0,0-.512.713,6.836,6.836,0,0,1,.04,2.241c-.06-.034-.157-.132-.212-.172.069.667-.246,1.431-.046,2.055l-.395-.054a.614.614,0,0,0,.043.1.54.54,0,0,0,.2.172l.129.06c.034.017.132.051.406.143a1.2,1.2,0,0,0-.174-1.259c-.188-.226.04-.572.429-.389a5.477,5.477,0,0,1,1.62,1.085c.826.784,1.066,1.539.892,1.691s-.238.089-.4.031a.306.306,0,0,1,0,.089.467.467,0,0,1-.355.306l-.017.031c-.086.123-.228.169-.48.163a1.253,1.253,0,0,1-.48-.146.625.625,0,0,1-.163-.117l-.145.117a35.2,35.2,0,0,1,2.792,3.923,12.259,12.259,0,0,1,.934,2.092,1.637,1.637,0,0,1-.786,0,2.911,2.911,0,0,1,.209,1.165,2.362,2.362,0,0,1-1.266-.286,1.233,1.233,0,0,0,.04.223c.4.286.857.621,1.043.758a10.01,10.01,0,0,1-4.859.489l-.366-.052c-.017.052-.043.114-.069.18.191.452.635,1.511.734,1.717a6.484,6.484,0,0,0,4.181.644,5.594,5.594,0,0,0,1.06-.286,11,11,0,0,0,3.364-2.183,12.987,12.987,0,0,0,2.515-3.234c2.164-4.235,2.523-10.516,2.523-13.054V26.021M223.18,47.2l-1.143-2.947a.855.855,0,0,1-.229.255,1.483,1.483,0,0,1-.391-.286,22.582,22.582,0,0,1,.349,2.773,1.324,1.324,0,0,1,1.429.2m-1.795.549a31.579,31.579,0,0,0-.48-4.1l-.063-.1c-.04-.052-.077-.106-.114-.163a5.491,5.491,0,0,1-.286.747,1.848,1.848,0,0,1-.388.6,2.778,2.778,0,0,1-.963-1.19,2.836,2.836,0,0,1-.955,1.173,1.833,1.833,0,0,1-.388-.6,3.958,3.958,0,0,1-.16-.4,32.648,32.648,0,0,0-.428,4.043c-1.172-.776-1.884,0-1.644.538a.885.885,0,0,0,.08.129.752.752,0,0,0,.572.309,3.71,3.71,0,0,1,1.443.329A4.65,4.65,0,0,1,219.27,50.4a4.62,4.62,0,0,1,1.644-1.354,3.713,3.713,0,0,1,1.429-.329.823.823,0,0,0,.571-.309.557.557,0,0,0,.077-.129c.243-.541-.468-1.313-1.64-.538m-6-.549a1.323,1.323,0,0,1,1.429-.2,27.634,27.634,0,0,1,.32-2.847,1.72,1.72,0,0,1-.469.355c-.037,0-.08-.043-.129-.1l-1.143,2.8m.118-1.763.017-.046c.086-.235.477-1.173.677-1.648-.028-.083-.052-.166-.077-.246-.269.046-.54.083-.812.112a9.709,9.709,0,0,1-4.833-.486c.237-.166.683-.535,1.286-.924a.92.92,0,0,1,.023-.12,2.317,2.317,0,0,1-1.266.286,2.98,2.98,0,0,1,.211-1.165,1.594,1.594,0,0,1-.786,0,12.162,12.162,0,0,1,.932-2.089,23.65,23.65,0,0,1,2.14-3.028,1.587,1.587,0,0,1,.377-.678l.12-.129c-.082-.072-.157-.134-.234-.192a.591.591,0,0,1-.192.149,1.294,1.294,0,0,1-.48.146c-.252,0-.392-.04-.48-.163l-.017-.032a.477.477,0,0,1-.355-.306.325.325,0,0,1,0-.092.314.314,0,0,1-.357-.049c-.175-.149.068-.907.891-1.688a5.558,5.558,0,0,1,1.623-1.087c.389-.172.614.163.426.392a1.2,1.2,0,0,0-.171,1.262c.237-.08.328-.117.366-.132a.646.646,0,0,0,.326-.229.547.547,0,0,0,.037-.086l-.343.04c.177-.435-.094-1.494.083-2.178a1.3,1.3,0,0,1-.235.134,8.629,8.629,0,0,1-.06-2.1,1.42,1.42,0,0,0-.423-.6,6.78,6.78,0,0,1-1.1,1.788A5.218,5.218,0,0,0,211.171,33h0a3.992,3.992,0,0,1-.286.784,1.984,1.984,0,0,0-.249.858h0a25.024,25.024,0,0,1-.286,4.6,4.933,4.933,0,0,1-.626,1.668l-.063-.054a3.991,3.991,0,0,1-.709,1.554s-.369-.738-1.038-6.358c-.737-6.187-1.112-12.648-1.112-12.648h0a9.885,9.885,0,0,1,.515-3.457,11.931,11.931,0,0,1,2.286-3.691,1.363,1.363,0,0,1,1.269-.395c-.118-.163-.252-.341-.252-.341-.426-.572-.915-1.185-1.331-1.74a26.109,26.109,0,0,0-2.944,11.732V26.2l-.528-.286A25.5,25.5,0,0,1,201.64,23.1c-.031.647-.1,2.833-.1,2.833v1.331c0,2.538.454,8.771,2.523,13.054a12.645,12.645,0,0,0,2.458,3.305,9.565,9.565,0,0,0,3.667,2.149l.317.1a6.525,6.525,0,0,0,4.993-.446M201.682,22.421a27.715,27.715,0,0,0,4.147,2.862,25.379,25.379,0,0,1,3.126-11.9l-.829-1.1a2.208,2.208,0,0,1-1.037.572,4.562,4.562,0,0,0-.509-2.289,8.747,8.747,0,0,1-2.312-.217c-1.529,3.276-2.3,7.057-2.587,12.064m2.6-12.093a3.19,3.19,0,0,0,.912-.8,4.412,4.412,0,0,0,.354-.6l-.314-.4a19.748,19.748,0,0,0-.952,1.8m1.549-1.963a1.357,1.357,0,0,1,.143-.22c-.752-.987-1.26-1.648-1.309-1.717a1.982,1.982,0,0,1-.34-1.273,11.2,11.2,0,0,1-1.566-.884l3.072,4.086m.1-.793.249.329a10.857,10.857,0,0,1,4.876-3.46.973.973,0,0,1,.2-1.325h0A1.193,1.193,0,0,1,212.4,4a24.434,24.434,0,0,1,5.43-.753,1.85,1.85,0,0,1,1.077-1.76.44.44,0,0,1,.231-.358h0a.446.446,0,0,1,.235.358,1.85,1.85,0,0,1,1.075,1.76,24.475,24.475,0,0,1,5.43.753A1.15,1.15,0,0,1,227,3.1h0a.979.979,0,0,1,.2,1.325,11.1,11.1,0,0,1,4.95,3.52l.255-.338a11.5,11.5,0,0,0-4.513-3.3,1.293,1.293,0,0,0-.329-1.374.587.587,0,0,0-.286-.5h0a.753.753,0,0,0-.571.229,1.631,1.631,0,0,0-1.258.858,24.835,24.835,0,0,0-4.573-.612,1.913,1.913,0,0,0-1.143-1.677.608.608,0,0,0-1.2,0,1.918,1.918,0,0,0-1.144,1.677,24.835,24.835,0,0,0-4.572.612,1.626,1.626,0,0,0-1.258-.858.757.757,0,0,0-.572-.232h0a.6.6,0,0,0-.286.506,1.292,1.292,0,0,0-.329,1.374,11.105,11.105,0,0,0-4.447,3.265m26.416.632c.023.034.111.195.137.235l3.175-4.227a11.078,11.078,0,0,1-1.566.887,1.948,1.948,0,0,1-.343,1.271l-1.4,1.834m.668.395-.286.392a2.811,2.811,0,0,0,1.243,1.311,18.729,18.729,0,0,0-.949-1.7m-4.7,5.4c.126-.172.732-.981,1.546-2.066a1.535,1.535,0,0,1-.16-.217c-.572.75-1.143,1.517-1.68,2.258a15.406,15.406,0,0,0-1.049,1.539c0,.16,1.037-1.1,1.343-1.514M217.927,43a4.95,4.95,0,0,0,.334.8,2.39,2.39,0,0,0,.7-1.431,4.794,4.794,0,0,1-.409.3c-.246.143-.465.255-.623.329m-6.785,0a12.838,12.838,0,0,0,4.241.22,7.108,7.108,0,0,0,3.341-1.225c-.229-.2-.515-.458-.809-.741a5.589,5.589,0,0,1-1.143.784,15.208,15.208,0,0,1-3.841.836,22.784,22.784,0,0,0,3.841-1.185,6.586,6.586,0,0,0,.886-.678c-.366-.355-.729-.713-1-.981a5.666,5.666,0,0,1-.526.415,7.408,7.408,0,0,1-1.323.638,17.188,17.188,0,0,0-3.667,1.917m3.269-16.752c.151-.469.323-3.477-.857-4.77a23.421,23.421,0,0,1,.857,4.77m-2.252-7.457a3.425,3.425,0,0,0,.04,1.259,4.9,4.9,0,0,0,.286.721,5,5,0,0,0-.323-1.98m.6.964a8.532,8.532,0,0,0,.466,2.518,4.831,4.831,0,0,0-.466-2.518m-4.324-7.915,1.666,2.223c.306.418,1.352,1.677,1.343,1.517a15.1,15.1,0,0,0-1.051-1.542c-.572-.8-1.2-1.623-1.807-2.427-.057.083-.105.16-.151.229m-.771-4.115h0c-.089-.1-.318-.286-.875.1-.992.859-.672,1.64-1.692,2.329a5,5,0,0,0,.9.086,3.216,3.216,0,0,0,.432-.026c.188-.02.34-.052.477-.072h0a4.4,4.4,0,0,1,.572,2.077c1.192-.632.705-2.676,1.815-2.653l-1.632-1.837m22.78-.475a9.943,9.943,0,0,0-2.889-1.877,22.518,22.518,0,0,0-8.416-1.411h0a22.33,22.33,0,0,0-8.414,1.411,9.913,9.913,0,0,0-2.892,1.877s1.449,1.625,1.823,2.066a.685.685,0,0,1,.146.773c2.223-1.491,4.75-2.238,9.254-2.266h.2c4.427.043,7.028.793,9.228,2.269a.69.69,0,0,1,.146-.773c.374-.441,1.823-2.066,1.823-2.066m-.632,3.414a2.723,2.723,0,0,0,.731,1.431,1.672,1.672,0,0,0,.2.129h0a4.486,4.486,0,0,1,.571-2.08h0a4.422,4.422,0,0,0,1.809.014c-.92-.624-.72-1.319-1.4-2.08a2.659,2.659,0,0,0-.255-.249,1.061,1.061,0,0,0-.557-.237.383.383,0,0,0-.315.137c-.089.1-1.049,1.145-1.677,1.84.571-.014.715.506.88,1.1m-.774,1.4.286-.383A12.453,12.453,0,0,0,223.94,8.9a14.518,14.518,0,0,0-3.312-.329c-.592,0-.974.237-.974.61-.369-.069-.469-.535-.515-.621-.037.195-.217.572-.515.621,0-.372-.383-.6-.977-.61a14.556,14.556,0,0,0-3.315.329,11.914,11.914,0,0,0-5.35,2.718l.286.381a11.017,11.017,0,0,1,4.41-2.47,13.937,13.937,0,0,1,3.867-.515c.7.032.8.426.715.644a1.167,1.167,0,0,0,.877-.421,1.144,1.144,0,0,0,.875.421c-.08-.217.02-.612.715-.644a13.94,13.94,0,0,1,3.869.515,11.717,11.717,0,0,1,4.436,2.547m-5.144,6.238a.814.814,0,0,0,.468-.109.51.51,0,0,0,.2-.189c1.009-1.459,2.878-3.806,4.287-5.657a11.32,11.32,0,0,0-8.025-2.945c-.255.017-.54.217-.223.632a3.71,3.71,0,0,0-2.857,0c.317-.415.031-.615-.22-.632-1.077-.08-5.387.341-8,2.882,1.429,1.9,4.43,5.866,4.493,5.943a.521.521,0,0,0,.385.175h.071a.713.713,0,0,0,.464-.286c.308-.338.463-.527.769-.841.588-.6,1.143-1.059,1.237-1.145a.859.859,0,0,0,.337-.607c0-.217-.186-.3-.286-.435a.293.293,0,0,1-.054.077,1.365,1.365,0,0,1-.206-.409l-.057.155s-.22-.532-.571-.484a1.32,1.32,0,0,1-.824-.152c-.031,0-.051.152-.04.338h-.017a.943.943,0,0,1,.2-1.462,2.979,2.979,0,0,1,.76-.421.757.757,0,0,0,.254-.217,1.77,1.77,0,0,1,.84-.446,6.3,6.3,0,0,1,1.68-.137,3.27,3.27,0,0,1,1.017.22,3.788,3.788,0,0,1,1.129.956,10.131,10.131,0,0,1,.8,1.6c.434,1.07.383.953.683,1.663a8.136,8.136,0,0,0,.857,1.717.512.512,0,0,0,.452.229M215.115,26.1a1.6,1.6,0,0,0,.7,1.242,4.289,4.289,0,0,0-.7-1.242m5.43,4.724a2.044,2.044,0,0,1-.468.547,1.5,1.5,0,0,0,.08-.375,2.784,2.784,0,0,1-.449.592,1.465,1.465,0,0,0-.414.684,1.867,1.867,0,0,1,.514-.372,1.762,1.762,0,0,0,.737-1.076m.286,4.4a6.783,6.783,0,0,0-.723-.844,6.939,6.939,0,0,1,.3.858.4.4,0,0,1,.049-.026.321.321,0,0,1,.146-.034.835.835,0,0,1,.163.034l.063.023m-.228,3.614c.254.249.534.532.757.755.132-.143.243-.263.329-.361l-.763-.707-.323.312m-1.378-1.4c.34.358.795.833,1.092,1.125l.317-.306L219.467,37.2l-.243.255m-.126-.644V37.2l.191-.2s-.151-.134-.2-.189m0-.226a3.649,3.649,0,0,1,.286-.332l.017-.017a3.425,3.425,0,0,0-.286-1.145,14.574,14.574,0,0,0,0,1.482m.486-1.972c.054.323.1,1.079.108,1.325h0l.286-.286a2.662,2.662,0,0,0-.38-1.047m-.52-.323a1.9,1.9,0,0,0,.246-.132.906.906,0,0,0,.357-.338.59.59,0,0,0,.057-.378.766.766,0,0,1-.235.326,2.67,2.67,0,0,0-.268.286,1.348,1.348,0,0,0-.158.246m-.286-2.158c0-.541-.588-.6-.726-1.145-.069.758.454.767.726,1.145m.323,1.236h0a.642.642,0,0,1,.223-.243,6.343,6.343,0,0,0,.926-.675,1.29,1.29,0,0,0,.186-.426,1.2,1.2,0,0,1-.395.355,3.608,3.608,0,0,0-.857.627.518.518,0,0,0-.074.209.469.469,0,0,0-.046-.155c-.166-.346-.657-.489-.954-.83-.195-.22-.2-.312-.2-.312a.813.813,0,0,0,.131.529,3,3,0,0,0,.657.541,1.082,1.082,0,0,1,.4.381m-.246.7a.773.773,0,0,0-.374-.572c0,.3.374.572.374.572m-.162,2.18a7.653,7.653,0,0,0-.049-.858,1.706,1.706,0,0,0-.214.572c.028.026.24.249.263.286m-1.8-.9c.092-.034.32-.137.446-.169l.095-.02a7.008,7.008,0,0,1,.265-.807,6.7,6.7,0,0,0-.806,1m.969.057.214.206a6.612,6.612,0,0,0,.109-1.145,2.7,2.7,0,0,0-.323.95m.026-4.633a.84.84,0,0,0-.089-.329,2.433,2.433,0,0,0-.286-.312.326.326,0,0,1-.074-.123,1.224,1.224,0,0,0,.049.395.475.475,0,0,0,.211.286.738.738,0,0,0,.189.094m-.238,5.694c-.04.034-2.443,2.306-2.443,2.306.154.155.314.326.423.438.049.049.074.046.115,0,.151-.134,2.586-2.366,2.789-2.55a.037.037,0,0,0,0-.06c-.111-.117-.36-.4-.548-.6s-.506-.529-.683-.475a3.866,3.866,0,0,1-.46.114,2.516,2.516,0,0,1-1.118-.074h-.054a.458.458,0,0,1-.02.169,1.026,1.026,0,0,0-.031.163,5.1,5.1,0,0,0,1.015.046c.188,0,.311.063.143.252l-1.684,1.685c-.334.315-.357.392-.26.5l.105.106.655-.572,1.037-.924s.755-.7.789-.744a.08.08,0,0,1,.111,0l.137.146c.02.023.014.069-.023.106m3.755-.512a5.991,5.991,0,0,0,.977-.04c-.017-.069-.031-.132-.04-.189a.665.665,0,0,0-.017-.137h-.014a2.479,2.479,0,0,1-1.118.072,3.936,3.936,0,0,1-.457-.114c-.18-.052-.463.243-.683.478s-.438.486-.549.6a.042.042,0,0,0,0,.06l2.787,2.55c.038.037.066.037.115,0,.111-.112.286-.286.428-.441l-2.435-2.352a.083.083,0,0,1-.026-.1l.14-.149a.08.08,0,0,1,.109.014c.037.04.792.744.792.744l1.037.924.652.572c.094-.1.08-.077.108-.106.094-.109.071-.18-.26-.5l-1.687-1.683c-.166-.189-.046-.249.146-.252m-.494-6.559a2.642,2.642,0,0,0,.52-1.554c.074.092.209.177.249.343a8.374,8.374,0,0,0,.771-2.441c.16.069.02.034.2.126a8.151,8.151,0,0,0,.526-2.409c.06.017.162.017.206.069.083-.572.166-1.5.191-2.152a7.756,7.756,0,0,0-.231-2.366,6.817,6.817,0,0,0-.729-1.614.613.613,0,0,0-.206.157,13.98,13.98,0,0,0-.534-1.379c-.363-.707-.535-1.162-.912-1.4a2.885,2.885,0,0,0,.455.04,6.963,6.963,0,0,0-.617-.6c.091-.063.249-.057.512,0-.372-.338-.5-.858-1.455-1.219a4.529,4.529,0,0,1,.531.02,1.64,1.64,0,0,0-.891-.638c-.981-.195-2.332-.226-2.964.524a1.535,1.535,0,0,1-.369.143.636.636,0,0,0-.18.092c-.111.08-.132.192.08.489-.286-.037-.346-.3-.4-.286a.991.991,0,0,0-.286.286,1.088,1.088,0,0,0-.148.552.189.189,0,0,0,.308-.14c.014-.094.443-.134.592-.134.217,0,.417.052.686.037-.1.037-.4.123-.512.155s-.129.163-.017.172a.924.924,0,0,0,.3-.069c.057.034,0,.169.046.246.789-.18.857.67,1.689.5-.4-.312-.734-.83-1.046-.987.832.132,1.28.879,2.18.916a1.443,1.443,0,0,0-.111-.24c.309,0,.526.237.617.229a1.3,1.3,0,0,1-.717.272c.06.112.4.137.512.157a.82.82,0,0,1-.8.16,3.509,3.509,0,0,1-.9.761,1.721,1.721,0,0,1,.031-.286c-.386.223-.64.632-.929.741.086-.14.157-.392.22-.518a12.846,12.846,0,0,0-2.34,2.461,4.877,4.877,0,0,0-.483,2.764c.038.675.326,2.575.377,2.965.08-.034.14-.066.209-.092a15.9,15.9,0,0,0,1.346,4.006.6.6,0,0,1,.223-.286,1.883,1.883,0,0,0,.571,1.073,1.07,1.07,0,0,1,.129-.489c.083.272.034,1.116.52,1.582a2.3,2.3,0,0,1,.123-.741,5.834,5.834,0,0,0,.228.884,1.7,1.7,0,0,0,.518.724,2.893,2.893,0,0,1,.1-.907,2.581,2.581,0,0,1,.386,1.145c.491-.381.68-1.62.68-1.62a1.066,1.066,0,0,1,.243.469,3.277,3.277,0,0,0,.689-1.485,2.446,2.446,0,0,1,.017.773m-7.957-5.365a7.338,7.338,0,0,1,1.049,3.322c.438-1.13-.265-3.382-.945-4.636a.989.989,0,0,1-.18.627c-.129-1.431-1.029-2.484-1.186-3.491a3.088,3.088,0,0,1-.1.441,7.585,7.585,0,0,1-.814-2.052,1.1,1.1,0,0,0-.166.6c-.446-1.245-.015-1.748.114-1.823.34-.2.746.117,1.061.466a3.12,3.12,0,0,0,2.572,1.608c.257,0,.358-.057.223-.083h0c-1.32-.243-1.555-.776-2.655-1.975-.686-.747-1.366-1.176-2.178-.223a10.222,10.222,0,0,0-2.358,4.7,8.852,8.852,0,0,0-.071,3.045c.186-.066.2-.117.2-.117a9.7,9.7,0,0,0,.572,2.644,3.5,3.5,0,0,0,.257-1.282,3.876,3.876,0,0,0,.657,1.319,3.934,3.934,0,0,0,.074-1.6,3.051,3.051,0,0,0,.732,1.2A5.933,5.933,0,0,0,210,24.058a13.787,13.787,0,0,1,.225,1.562,1.415,1.415,0,0,0,.335.218c.06-.177.231-.429-.06-2.618.732,2.369.326,3.013.254,3.182a1.757,1.757,0,0,1-.512-.441,2.5,2.5,0,0,1-.237,1.251,1.737,1.737,0,0,1-.623-.618,3.139,3.139,0,0,1-.163,1.19,3.72,3.72,0,0,1-.689-1.056,2.83,2.83,0,0,1-.343,1.282,8.444,8.444,0,0,1-.811-3.065l-.092.066c.034.552.1,1.411.183,2.381h0c.094,1.13.209,2.409.308,3.543q.357,4.078.9,8.135a4.639,4.639,0,0,0,.126.687,8.744,8.744,0,0,0,.055-1.949,3.584,3.584,0,0,0,.191-1.21c0-.332-.38-4.5-.506-6.141-.017-.2-.043-.644-.043-.647a1.343,1.343,0,0,0,.037.175c.126.618.226,1.242.318,1.863.057.372.111.767.166,1.17a32.441,32.441,0,0,1,.343,3.646,3.956,3.956,0,0,1-.211,1.17,5.4,5.4,0,0,1-.177,2.452.343.343,0,0,1-.169-.152c.132.744.3,1.333.3,1.333a5.944,5.944,0,0,0,.4-2.947,5.2,5.2,0,0,0,.286-1.354c0-.255-.037-1.053-.106-2.049-.126-1.774-.286-3.546-.42-5.32,0-.083-.023-.286-.023-.309.02.077.04.16.057.246a43.007,43.007,0,0,1,.815,6.959,6.6,6.6,0,0,1-.32,1.98,4.512,4.512,0,0,1,.034.947,2.52,2.52,0,0,1-.054.627c.177-.4.752-1.766.572-6.009a1.911,1.911,0,0,0-.017-.312c-.155-2.956-.389-4.888-.389-4.888a24.04,24.04,0,0,1,.675,4.67.871.871,0,0,0,.057-.106,5.6,5.6,0,0,0,.286-2.409c-.1-1.554-.286-2.827-.286-2.824l.043.129a12.811,12.811,0,0,1,.345,1.431A13.55,13.55,0,0,1,211.3,31.6v.232c.589-.879.335-2.641.046-4.467a8.284,8.284,0,0,1,.6,3.468c.886-.83.406-2.484.071-4.375a7.413,7.413,0,0,1,.746,3.411c.72-.936.451-2.169-.191-4.593a8.349,8.349,0,0,1,.96,3.113c.465-1.1-.074-2.925-.54-4.4m.932,8.545c.14-.229-.066-.286-.478-.034a6.206,6.206,0,0,0-1.523,1.3c-.1.143-.069.223.111.04.428-.432,1.077-1.03,1.066-.747a1.9,1.9,0,0,0,.122.753l.2-.049.571-.149a1.292,1.292,0,0,1-.054-1.113m-.266,2.936a1.3,1.3,0,0,0-.42.884.354.354,0,0,0,.354.412c.326-.037.16-.383.343-.166.078.086.323-.2.389-.266-.14.02-.346.046-.311-.163a.925.925,0,0,1,.234-.4c.086-.106.352-.615.526-.552.082.06.034.535-.1.827-.286.627-.343,1.036-.14,1.145h.017V37.2a.536.536,0,0,0,.24.618l.026-.026a.755.755,0,0,1,0-.452c0-.023.02-.094-.16-.143h-.017a1.993,1.993,0,0,0,.286,0,.279.279,0,0,0,.286-.286c0-.08.017-.157.023-.237.04-.355.1-.678.154-.924s.135-.97.135-.97a.383.383,0,0,1,.134-.017.286.286,0,0,1,.263.209.413.413,0,0,1,0,.232.286.286,0,0,0,.18-.246h0a.344.344,0,0,0,.166-.24c.04-.249-.246-.5-.286-.521-.171-.134-.114-.386-.04-.6l.1-.263a1.22,1.22,0,0,0,.335.286,1.161,1.161,0,0,0,.794.215,1.976,1.976,0,0,1-.12-.5,5.672,5.672,0,0,1-.026-.678l.3.326a4.908,4.908,0,0,0,.06-1.717,6.489,6.489,0,0,0-.466-2,3.487,3.487,0,0,0-.26-.572.632.632,0,0,1-.238.338,4.818,4.818,0,0,1-.808-1.354,1.323,1.323,0,0,1-.249.309l-.049.043v-.06a1.718,1.718,0,0,0-.4-.775,1.806,1.806,0,0,1-.286-.481,4.292,4.292,0,0,0-.146,1.05,2.584,2.584,0,0,1-.129.824l.157-.092c.074-.049.111-.072.143-.069h.025a.06.06,0,0,1,0,.054,10.822,10.822,0,0,0-.214,1.271,4.478,4.478,0,0,0,.034,1.039q.165-.106.34-.195a4.91,4.91,0,0,0-.1,1.74,3.151,3.151,0,0,1-.02.6,1.29,1.29,0,0,0,.475-.189,2.677,2.677,0,0,1-.22.655,2.195,2.195,0,0,1-1.258.572,7.538,7.538,0,0,0-1.514.484c-.16.08-.311.246-.286.363s.22.152.286.152l.037.08c.115.177.489.069.572.026a.548.548,0,0,0,.206-.146c-.02.032-.143,0-.22-.046a.1.1,0,0,1-.057-.063c-.025-.22.9-.249,1.032-.249a.231.231,0,0,1,.246.129c.054.1.08.192-.466.793m.443,3.2a8.624,8.624,0,0,1-1.1,2.209,7.223,7.223,0,0,1-.692.813s-.02.072-.046.189l-.083.046.46-.255.229-.114c.3-.163.64-.318.974-.461.332-.6.723-1.3.857-1.488a6.752,6.752,0,0,1-.472,1.331l.252-.1c.523-.206.98-.369,1.2-.475a3,3,0,0,0,.675-.409,1.815,1.815,0,0,0,.148-.134l-.374-.375-.126.106a.315.315,0,0,1-.423.026c-.169-.157-.94-1.01-1.009-1.09s-.16-.24.017-.515h0a.9.9,0,0,1-.286-.667.654.654,0,0,1-.126-.527.363.363,0,0,1-.229.06.5.5,0,0,1-.323.152h-.049a.519.519,0,0,1-.343-.112.475.475,0,0,1-.189-.24.27.27,0,0,0,0-.031,12.682,12.682,0,0,0-1.451,2,8.959,8.959,0,0,0-1.069,2.06c.486-.029.758-.1,1.392-.767.286-.309,1.063-1.448,1.549-2.057a10.9,10.9,0,0,1-1.226,2.289,5.705,5.705,0,0,1-.857.953s-.183.114-.286.713a3.556,3.556,0,0,0,1.98-1.551c.252-.341.414-.607,1.052-1.568m5.267,3.815a2.119,2.119,0,0,0,.606,1.291,1.779,1.779,0,0,0,.268-.807,4.9,4.9,0,0,1-.874-.484m3.346.692a12.7,12.7,0,0,0,4.241-.22,17.243,17.243,0,0,0-3.666-1.917,7.1,7.1,0,0,1-1.32-.638,5.362,5.362,0,0,1-.6-.484c-.668-.615-2.423-2.449-2.735-2.787l-1.166,1.076a43.1,43.1,0,0,0,3.867,3.434,23.183,23.183,0,0,0,3.841,1.188,15.135,15.135,0,0,1-3.775-.841c-1-.4-4.158-3.523-4.158-3.523l-.763.71a22.466,22.466,0,0,0,2.612,2.5,6.953,6.953,0,0,0,3.692,1.491m2.183-5.294c.483.61,1.252,1.748,1.546,2.057.637.664.906.738,1.392.77a8.708,8.708,0,0,0-1.06-2.072,19.544,19.544,0,0,0-1.715-2.375,1.08,1.08,0,0,1-.046.341l-.034.074a.632.632,0,0,1-.174.195.605.605,0,0,1-.374.1.5.5,0,0,1-.326-.152.377.377,0,0,1-.234-.06.648.648,0,0,1-.121.527.917.917,0,0,1-.254.65.523.523,0,0,0,.034.049c.16.286.092.423,0,.515s-.837.933-1.009,1.087a.317.317,0,0,1-.423-.023l-.126-.106s-.195.2-.355.355l.043.037h0a3,3,0,0,0,.857.529c.286.123,1.1.424,1.644.65-.129-.406-.286-.858-.44-1.325.14.195.537.893.875,1.514-.023,0,.042.02.023,0a15.287,15.287,0,0,1,1.466.764c-.034-.155-.066-.257-.066-.257a7.9,7.9,0,0,1-.686-.816,8.578,8.578,0,0,1-1.1-2.209c.635.959.8,1.228,1.049,1.565a3.614,3.614,0,0,0,1.983,1.554c-.117-.6-.329-.733-.329-.733a5.713,5.713,0,0,1-.817-.907c.1.137.2.269-.023-.029-.163-.223-.1-.134,0-.02a10.753,10.753,0,0,1-1.209-2.258m-.763-4.235.508.134c.077.023.157.043.246.06a1.953,1.953,0,0,0,.12-.744c0-.286.638.315,1.066.75.18.18.214.1.109-.04a6.185,6.185,0,0,0-1.52-1.3c-.412-.252-.617-.192-.478.034a1.374,1.374,0,0,1-.051,1.107m-.786-5.179a.082.082,0,0,1,.014-.057h.034a.356.356,0,0,1,.146.069c.042.029.094.06.157.094a2.694,2.694,0,0,1-.129-.824,4.413,4.413,0,0,0-.134-1.027l-.026-.043a1.806,1.806,0,0,1-.286.481,1.71,1.71,0,0,0-.4.775v.06l-.046-.043c.088.083-.249-.3-.252-.309a7.392,7.392,0,0,1-1.174,1.783h0a3.826,3.826,0,0,0-.475,1.717,7.305,7.305,0,0,0,0,1.826l.286-.326a5.57,5.57,0,0,1-.011.672,2.031,2.031,0,0,1-.118.5,1.186,1.186,0,0,0,1.052-.458l.08.22c.077.217.134.469-.037.6-.029.023-.315.272-.286.521a.359.359,0,0,0,.169.24h0a.287.287,0,0,0,.183.246.4.4,0,0,1,0-.232.286.286,0,0,1,.263-.209.388.388,0,0,1,.137.017s.071.687.132.97a9.2,9.2,0,0,1,.154.924.762.762,0,0,0,.025.237c.026.235.16.255.286.286a1.993,1.993,0,0,0,.286,0h-.017c-.177.049-.163.12-.16.143a.736.736,0,0,1,0,.452l.029.026a.538.538,0,0,0,.237-.618v-.017h.017c.206-.12.154-.529-.137-1.145-.137-.286-.195-.781-.106-.827h.014c.046,0,.106,0,.243.2.1.137.191.258.315.409a.673.673,0,0,1,.191.395.124.124,0,0,1-.034.1.171.171,0,0,1-.089.026.858.858,0,0,1-.191,0c.066.066.315.352.388.266.186-.217.017.129.343.166a.352.352,0,0,0,.371-.386,1.1,1.1,0,0,0-.026-.229,1.27,1.27,0,0,0-.32-.572l-.071-.08c-.545-.6-.5-.735-.468-.793a.267.267,0,0,1,.246-.129,3.284,3.284,0,0,1,.46.032c.223.04.571.1.571.217a.1.1,0,0,1-.057.063c-.077.031-.2.077-.223.046a.574.574,0,0,0,.206.146c.094.043.468.152.571-.026l.037-.08c.069,0,.252-.029.286-.152s-.118-.286-.286-.363a7.113,7.113,0,0,0-.808-.306c-.126-.034-.286-.063-.395-.1l-.657-.175a5.088,5.088,0,0,1-.489-.172l-.143-.066a.83.83,0,0,1-.286-.24,3.018,3.018,0,0,1-.223-.661,1.5,1.5,0,0,0,.523.212,2.96,2.96,0,0,1-.02-.6c.1-1.085.122-1.717.122-1.717l.22.226a7.134,7.134,0,0,0-.069-1.1h0a10.332,10.332,0,0,0-.214-1.256m2.726-8.5a3.435,3.435,0,0,0,.04-1.256,5.027,5.027,0,0,0-.323,1.977,4.811,4.811,0,0,0,.286-.721m-.957,2.2a8.828,8.828,0,0,0,.46-2.515,4.825,4.825,0,0,0-.46,2.515m-.963-.936c.377-1.13.06-1.7-.157-1.82,0,.521.131.764.157,1.82m-.223,4.908a23.507,23.507,0,0,1,.857-4.77c-1.186,1.3-1.018,4.292-.857,4.77m5.333-.741a3.934,3.934,0,0,0,.074,1.6,3.822,3.822,0,0,0,.657-1.319,3.618,3.618,0,0,0,.257,1.282,9.785,9.785,0,0,0,.571-2.644s0,.052.2.117a8.756,8.756,0,0,0-.074-3.042,10.182,10.182,0,0,0-2.355-4.713c-.809-.953-1.491-.521-2.175.223-1.1,1.2-1.338,1.731-2.658,1.974h0c-.131.026-.034.089.223.083a3.148,3.148,0,0,0,2.572-1.608c.315-.349.723-.664,1.061-.466.129.074.571.572.114,1.823a1.1,1.1,0,0,0-.166-.6,7.632,7.632,0,0,1-.814,2.052,3.484,3.484,0,0,1-.1-.441c-.155,1.007-1.058,2.055-1.186,3.491a.989.989,0,0,1-.18-.627c-.677,1.253-1.383,3.505-.945,4.639a7.37,7.37,0,0,1,1.048-3.325c-.463,1.474-1.006,3.3-.54,4.4a8.342,8.342,0,0,1,.96-3.116c-.643,2.424-.909,3.663-.191,4.6a7.229,7.229,0,0,1,.746-3.411c-.334,1.892-.812,3.543.071,4.375a8.35,8.35,0,0,1,.6-3.468c-.286,1.826-.54,3.588.049,4.47a9.453,9.453,0,0,1,.24-1.9c.154-.8.388-1.568.388-1.568s-.186,1.279-.286,2.833q-.026.392-.017.781a5.1,5.1,0,0,0,.094.953,2.379,2.379,0,0,0,.286.781,24.734,24.734,0,0,1,.678-4.67s-.237,1.932-.395,4.888v.312c-.195,4.246.38,5.606.557,6.009a2.551,2.551,0,0,1-.054-.627,4.733,4.733,0,0,1,.034-.947,6.589,6.589,0,0,1-.32-1.983c.031-.63.074-1.256.129-1.869.046-.572.1-1.1.157-1.625.066-.475.111-.93.177-1.414.094-.687.229-1.368.352-2.049.1-.538.043-.066.034.066-.049.61-.16,1.946-.269,3.322-.074,1.027-.3,3.059-.254,4.043a5.276,5.276,0,0,0,.286,1.353,5.938,5.938,0,0,0,.4,2.947s.172-.59.3-1.331a.339.339,0,0,1-.166.146,5.343,5.343,0,0,1-.177-2.45,3.9,3.9,0,0,1-.214-1.17c.031-1.222.191-2.435.343-3.646.054-.4.109-.8.169-1.17.034-.24.071-.478.111-.718.052-.381.12-.767.2-1.145a.8.8,0,0,1,.037-.175s0,.286-.04.65c-.134,1.634-.5,5.806-.508,6.138a4.007,4.007,0,0,0,.194,1.21,8.6,8.6,0,0,0,.052,1.949,4.227,4.227,0,0,0,.086-.675s.231-1.691.5-4.1c.04-.375.08-.744.12-1.113s.071-.71.108-1.076c.04-.429.083-.859.123-1.288.017-.186.034-.372.049-.558.1-1.145.214-2.412.308-3.543,0,0,.151-1.837.186-2.389l-.089-.066a8.51,8.51,0,0,1-.811,3.065,2.875,2.875,0,0,1-.346-1.282,3.738,3.738,0,0,1-.686,1.056,3.1,3.1,0,0,1-.166-1.19,1.747,1.747,0,0,1-.623.621,2.541,2.541,0,0,1-.235-1.253,1.87,1.87,0,0,1-.512.444c-.074-.175-.48-.816.252-3.185-.286,2.189-.118,2.444-.06,2.621a1.5,1.5,0,0,0,.334-.22,14.63,14.63,0,0,1,.226-1.56,5.963,5.963,0,0,0,.163,2.621,2.887,2.887,0,0,0,.732-1.2m4.8-15.095a8.747,8.747,0,0,1-2.312.217,4.555,4.555,0,0,0-.508,2.289,1.915,1.915,0,0,1-.963-.541l-.857,1.145a24.906,24.906,0,0,1,3.084,11.821,27.6,27.6,0,0,0,4.147-2.862c-.286-5.008-1.055-8.788-2.572-12.064m.857,30.35a11.819,11.819,0,0,1-4.559,4.916,7.379,7.379,0,0,1-6.822.821l.1.252c.031.069.071.177.094.235.383,1.039.123,2.109-1.277,2.272a3.61,3.61,0,0,0-1.269.286,3.923,3.923,0,0,0-1.144.859,5.025,5.025,0,0,0-.714,1.01h0a4.8,4.8,0,0,0-.718-1.01,3.8,3.8,0,0,0-1.143-.859,3.6,3.6,0,0,0-1.269-.286c-1.4-.163-1.655-1.236-1.275-2.275.023-.057.063-.163.092-.229l.1-.255a6.576,6.576,0,0,1-4.519.175l-.2-.054A9.946,9.946,0,0,1,206,44.152a13.379,13.379,0,0,1-2.612-3.491c-2.724-5.64-2.343-14.022-2.352-14.906-.092-9.663,2.046-15.083,3.881-17.7-.555-.73-.889-1.17-.915-1.2a1.85,1.85,0,0,0-1.143-.572,20.551,20.551,0,0,0-.654-2.77,15.487,15.487,0,0,0,2.446,1.431,1.719,1.719,0,0,0,.235,1.259l.729.97a10.006,10.006,0,0,1,3.035-2.541c.326-.186.677-.363,1.054-.535a1.781,1.781,0,0,1,.494-1.348.979.979,0,0,1,.572-.784h0a1.233,1.233,0,0,1,1.011.286,2.285,2.285,0,0,1,1.366.744A26.48,26.48,0,0,1,217,2.487a2.259,2.259,0,0,1,1.2-1.505,1.265,1.265,0,0,1,.941-.638h0a1.262,1.262,0,0,1,.94.638,2.258,2.258,0,0,1,1.2,1.505,26.433,26.433,0,0,1,3.85.506,2.285,2.285,0,0,1,1.366-.744,1.237,1.237,0,0,1,1.012-.286h0a.977.977,0,0,1,.571.784,1.789,1.789,0,0,1,.492,1.348c.377.172.729.349,1.054.535a11.468,11.468,0,0,1,3.1,2.575c.486-.644.777-1.036.8-1.07a1.69,1.69,0,0,0,.237-1.259A15.391,15.391,0,0,0,236.2,3.446a20.785,20.785,0,0,0-.651,2.773,1.866,1.866,0,0,0-1.144.572c-.028.029-.411.532-1.034,1.356,1.826,2.638,3.932,8.012,3.841,17.616,0,.767.377,9.3-2.346,14.946M213.343,7.8l.489.218c.134-.16.191-.235.34-.406-.189-.08-.311-.14-.509-.217a4.228,4.228,0,0,0-.32.406m9.394-1.786a.548.548,0,0,0-.223.238c.069.1.2.146.4.175h.108c.094-.217-.106-.489-.286-.423M226.9,7.126a1.914,1.914,0,0,1-.423.627A16.28,16.28,0,0,0,223.322,7a2.163,2.163,0,0,1-.955.69,4.2,4.2,0,0,1-1.258-.363,3.6,3.6,0,0,0,.417,0,2.743,2.743,0,0,0,1.349-.395c-.755-.114-.932-.32-.572-.8.166-.217.44-.615.857-.512.308.08.388.527.351.858a15.525,15.525,0,0,1,2.858.7c.057-.246-.1-.366-.2-.547a3.074,3.074,0,0,1,.472-.395.915.915,0,0,1,.263.884m-3.455.4.36.363c.191-.106.286-.155.489-.263-.137-.137-.226-.235-.377-.372-.16.08-.348.2-.472.272m3.867-.183c-.166.389-.311.784-.506,1.145.117.046.286-.052.38-.117a3.7,3.7,0,0,0,1.08-1.694,1.827,1.827,0,0,0-.457.132c-.3.137-.358.217-.5.544m.24-.767c.411-.037.794.066.969-.126a1.286,1.286,0,0,1-.609-.286c.111-.092.268.034.351.1l.155-.14a.531.531,0,0,0-.781.137.828.828,0,0,1,.235.134,1.344,1.344,0,0,0-.32.166M212.125,8.145c-.12-.04-.228-.074-.371-.114a4.862,4.862,0,0,0-.263.438l.514.163.191-.286.366.114c.108-.172.16-.252.286-.435-.2-.063-.332-.109-.537-.166-.063.092-.126.2-.183.3m8.7-2.261c-.26-.429-1.226-.043-1.841.212.358,0,.66-.014,1.04,0,.151,0,.552,0,.823.017a.229.229,0,0,0-.023-.22m.431.787a33.2,33.2,0,0,0-8.168.655,3.068,3.068,0,0,0-.389-.71c-.534-.572-.752.049-.754.12.668.04.786.383.786.383a1.59,1.59,0,0,1-.649.644,2.463,2.463,0,0,1-1.143.4c-1.264.06-.918-1.256-.152-1.794-.1.12-.552.807-.286,1.162s1.477.072,1.76-.286a1.12,1.12,0,0,0-.857-.152,1.885,1.885,0,0,1,.72-1.256,1.807,1.807,0,0,1,1.052.91,32.293,32.293,0,0,1,5.379-.644c-.038-.318-.151-1.528-.158-1.6-.014-.2.118-.286.246-.369a.918.918,0,0,0,.571.472,2.176,2.176,0,0,1-.374.318c.02.24.043.684.049.858a6.946,6.946,0,0,1,1.229-.429,1.858,1.858,0,0,1,.572-.052,1.022,1.022,0,0,1,.489.206.557.557,0,0,1,.2.389,2.158,2.158,0,0,1-.137.764m-3.53,6.227c-.034-.017-.271-.017-.286.032s.143.126.2.146a.1.1,0,0,0,.109-.054c.026-.052.023-.106,0-.123m.137,0a.458.458,0,0,1,.034.286.434.434,0,0,1-.363.4.449.449,0,0,1-.572-.4.516.516,0,0,1,.052-.235c-.094,0-.1.074-.186.189-.054.066-.143.06-.268.143a.716.716,0,0,1,.394-.527,3.141,3.141,0,0,1,2.127.209,5.569,5.569,0,0,0-.746-.046c-.309-.017-.472-.014-.472-.014m2.712-8.313c-.16-.12-.266-.206-.435-.32-.148.1-.315.238-.423.326.146.112.257.2.414.312.174-.126.252-.186.443-.318m-4.43,8.685c-.042.029-.086.172.08.177a.149.149,0,0,0,.166-.149s-.175-.072-.246-.029m4.573,1.262a1.041,1.041,0,0,0-.772-.541,1.649,1.649,0,0,1,.286.452,2.112,2.112,0,0,1-.457.094,1.047,1.047,0,0,0,.954,0m-1.046-.89a1.539,1.539,0,0,0-.894-.509,1.049,1.049,0,0,0,.894.509m-.266-.5c.16.16.666.375.949.638-.04-.435-.42-.667-.949-.638m-.2,6.215a1.72,1.72,0,0,0,0,1.771s.4-1.21,0-1.771m.946,3.411a2.787,2.787,0,0,0,.715-1.866,4.137,4.137,0,0,1-.772.967,3.429,3.429,0,0,1-.637-.589,2.48,2.48,0,0,0,.694,1.488m-.774-5.377a.822.822,0,0,0-.2,1.027s.632-.681.2-1.027m.737-2.1c.168.172.708.286,1.008.572a.726.726,0,0,0-1.008-.572m.806,1.382a.924.924,0,0,0-.838-1c-.046.381.6.612.838,1m-.286,1.036c-.34.372-.023,1.107.174,1.768.183-.323.4-1.417-.174-1.768m1.815,1.686a2.323,2.323,0,0,1-.589,1.245,3.911,3.911,0,0,1-.571-.6,2.571,2.571,0,0,0,.6,1.431,2.3,2.3,0,0,0,.572-2.077m-.963-3.125c-.074.409.572,1.03.572,1.033a1,1,0,0,0-.572-1.033m1.143,1.9a4.971,4.971,0,0,0,.515,1.654,1.532,1.532,0,0,0-.515-1.654m-4.327,5.629a2.657,2.657,0,0,0,.343-1.934,1.543,1.543,0,0,1-.572,1.1,1.337,1.337,0,0,1-.488-.61,1.759,1.759,0,0,0,.7,1.448m-.5-5.723a1.04,1.04,0,0,0-.286,1.565,5.579,5.579,0,0,0,.286-1.565m-.423,1.952c-.572.713.308,1.605.305,1.617s.071-1.354-.305-1.617m-2.124,2.81a4.819,4.819,0,0,0-.42-1.843,3.461,3.461,0,0,0,.42,1.843m.729-3.72a14.77,14.77,0,0,1,.877-1.828,1.813,1.813,0,0,0-.877,1.828m.374,2.2a5.6,5.6,0,0,1-.091,1.087,1.292,1.292,0,0,1-.532-.375,4.337,4.337,0,0,0,.835,1.176,2.89,2.89,0,0,0-.212-1.889m-.6,1.6a2.107,2.107,0,0,0,.652,1.677,2.639,2.639,0,0,0-.652-1.677m.252,2.272a4.256,4.256,0,0,0,.749.947c-.363-.549-.651-1.568-1.009-1.843a1.869,1.869,0,0,0,.26.9m-1.043-4.959c-.066-.418.452-.8.286-1.477a1.33,1.33,0,0,0-.286,1.477M218.032,26a2.643,2.643,0,0,1-.772-.8,3.527,3.527,0,0,0,1.046,1.611,2.764,2.764,0,0,0,.148-2.138A4.29,4.29,0,0,1,218.032,26m2.252-2.143a2.633,2.633,0,0,1-.746,1.225,2.385,2.385,0,0,1-.534-.758,1.606,1.606,0,0,0,.672,1.519,2.541,2.541,0,0,0,.609-1.986m1.12,2.232a2.335,2.335,0,0,0,.571-2.123,4.82,4.82,0,0,0-.571,2.123m-1.255,1.119a3.356,3.356,0,0,0,.455-1.76,2.92,2.92,0,0,0-.455,1.76m2.713-4.109c.231-.369.554-.9.286-1.248a9.306,9.306,0,0,0-.286,1.248m-1.715,1.2a2.938,2.938,0,0,0,.84-1.889,1.87,1.87,0,0,1-.84,1,1.291,1.291,0,0,1-.478-.661,1.782,1.782,0,0,0,.478,1.548m1.606-2.366c0-.014.572-.979.24-1.517-.366.083-.231,1.522-.24,1.517m-.028,1.648a6.275,6.275,0,0,0-.535,1.82c.12-.109.735-1.565.535-1.82m-3.876,4.953a1.835,1.835,0,0,0-.1-1.525,1.97,1.97,0,0,0,.1,1.525m.543,1.454a1.59,1.59,0,0,0-.031-1.356,1.749,1.749,0,0,0,.031,1.356m.712-.466a3.557,3.557,0,0,0,.478-1.954,3.362,3.362,0,0,0-.478,1.954m-2.212-.916a4.8,4.8,0,0,0-.572-1.591,1.877,1.877,0,0,0,.572,1.591m4.358.8a.747.747,0,0,0-.094-.366,4.3,4.3,0,0,0-.412,1.846c.2-.727.76-.876.906-1.548a.729.729,0,0,0,.355.126,4.931,4.931,0,0,1-.332-1.1,2.57,2.57,0,0,1-.423,1.042m-5.893,1.431a4.3,4.3,0,0,0-.411-1.846.733.733,0,0,0-.092.366,2.662,2.662,0,0,1-.426-1.039,5.181,5.181,0,0,1-.328,1.1.768.768,0,0,0,.351-.129c.145.675.708.824.905,1.548m-4.418-7.592a.9.9,0,0,1-.423-.26,1.337,1.337,0,0,0,.649.818,2.841,2.841,0,0,0-.554-2.524c.537,1.562.329,1.966.329,1.966m-.572,1.56a.941.941,0,0,1-.383-.3,1.186,1.186,0,0,0,.606.859c.195-.624.315-1.119-.572-2.953.6,1.8.343,2.4.343,2.4m-3.6-.858a3.161,3.161,0,0,1-.3-1.431,2.548,2.548,0,0,0,.206,1.78.656.656,0,0,0,.286-.515.673.673,0,0,1-.183.175m.543-.535a3.948,3.948,0,0,1-.369-1.6,2.9,2.9,0,0,0,.311,2,.735.735,0,0,0,.286-.6c-.034.089-.237.186-.237.186m2.383-3.165a4.318,4.318,0,0,1-1-2.1,4.267,4.267,0,0,0,1.106,2.744,2.36,2.36,0,0,0-.052-1.88,4.886,4.886,0,0,1-.054,1.239m-.632,1a4.936,4.936,0,0,1-.857-2.364,4.572,4.572,0,0,0,.918,2.953,1.641,1.641,0,0,0,.077-1.542,2.606,2.606,0,0,1-.126.953m-.6.761a5.173,5.173,0,0,1-.723-2.467,4.363,4.363,0,0,0,.749,3,1.3,1.3,0,0,0,.246-1.082,1.518,1.518,0,0,1-.286.544m-.572.758a5.224,5.224,0,0,1-.454-2.172,4.057,4.057,0,0,0,.449,2.71,1.148,1.148,0,0,0,.263-.956,1.109,1.109,0,0,1-.257.418m21.474.95a.655.655,0,0,0,.286.515,2.552,2.552,0,0,0,.206-1.78,3.324,3.324,0,0,1-.286,1.431.674.674,0,0,1-.186-.175m-.6-.547a.738.738,0,0,0,.286.6,2.882,2.882,0,0,0,.311-2,3.948,3.948,0,0,1-.369,1.6s-.2-.1-.237-.186m-2.146-2.979a4.886,4.886,0,0,1-.054-1.239,2.348,2.348,0,0,0-.049,1.877,4.267,4.267,0,0,0,1.1-2.741,4.334,4.334,0,0,1-1,2.1m.635,1a2.568,2.568,0,0,1-.129-.953,1.638,1.638,0,0,0,.077,1.542,4.575,4.575,0,0,0,.917-2.953,5.2,5.2,0,0,1-.857,2.364m1.323-1.717a5.19,5.19,0,0,1-.726,2.467,1.5,1.5,0,0,1-.286-.544,1.289,1.289,0,0,0,.249,1.082,4.393,4.393,0,0,0,.749-3m.311,1.053c-.163,1.574-.286,1.9-.457,2.172a1.146,1.146,0,0,1-.257-.418,1.148,1.148,0,0,0,.263.956,4,4,0,0,0,.452-2.71m-3.527,2.658s-.209-.4.329-1.969a2.846,2.846,0,0,0-.555,2.527,1.343,1.343,0,0,0,.651-.818.9.9,0,0,1-.425.26m.966,1.256a1.185,1.185,0,0,1-.6.858c-.2-.624-.314-1.119.572-2.95-.6,1.8-.34,2.4-.34,2.4a.946.946,0,0,0,.38-.306" transform="translate(-77.297 -0.344)" fill="#0a0203"/>
      <path id="Union_29" data-name="Union 29" d="M-6680.626-271.192c-1.486,0-2.208-.769-2.208-2.718v-2.335a2.033,2.033,0,0,1,2.208-2.29c1.486,0,2.241.556,2.185,2.029h-.927c0-.83-.342-1.28-1.249-1.28-.285,0-1.295.049-1.295,1.523v2.377c0,1.542.45,1.932,1.295,1.932a2.216,2.216,0,0,0,1.258-.312v-2.106h-1.3v-.782h2.193v3.434a4.324,4.324,0,0,1-2.068.527Zm-31.888-2.743v-2.309a2.034,2.034,0,0,1,2.212-2.29,2.037,2.037,0,0,1,2.208,2.29v2.309c0,1.951-.721,2.721-2.208,2.721S-6712.514-271.984-6712.514-273.935Zm.917-2.326v2.377c0,1.542.446,1.932,1.295,1.932s1.293-.39,1.293-1.932v-2.377c0-1.474-1.014-1.523-1.293-1.523S-6711.6-277.735-6711.6-276.261Zm34.806,4.913v-7.039h3.623v.78h-2.725v2.261h2.532v.782h-2.532v2.437h2.783v.779Zm-11.875,0v-7.039h2.161a1.872,1.872,0,0,1,1.89,1.074,7.17,7.17,0,0,1,.312,2.224,5.887,5.887,0,0,1-.426,2.836c-.38.607-1.092.907-2.317.907Zm.895-.779h.859c1.246,0,1.714-.469,1.714-2.108v-1.431c0-1.431-.437-1.949-1.372-1.949h-1.177Zm-5.784.779v-7.039h3.621v.78h-2.727v2.261h2.532v.782h-2.532v2.437h2.783v.779Zm-4.323,0v-7.039h.893v6.261h2.582v.779Zm-3.809,0-1.334-6.1h-.021l-1.419,6.1h-1.092l-1.712-7.039h.953l1.326,6.1h.017l1.414-6.1h1.159l1.273,6.1h.021l1.432-6.1h.936l-1.861,7.039Zm-13.653,0-2.774-6.1h-.017v6.1h-.8v-7.039h1.266l2.735,6.027h.021v-6.027h.8v7.039Zm-5.666,0-2.464-3.674h-.029v3.674h-.895v-7.039h.895v3.091h.029l2.456-3.091h1.01l-2.547,3.18,2.7,3.86Zm-11.478,0v-7.039h2.161a1.874,1.874,0,0,1,1.89,1.074,7.17,7.17,0,0,1,.312,2.224,5.875,5.875,0,0,1-.43,2.836c-.38.607-1.089.907-2.317.907Zm.895-.779h.857c1.248,0,1.716-.469,1.716-2.108v-1.431c0-1.431-.441-1.949-1.375-1.949h-1.177Zm-3.766.779-2.775-6.1h-.021v6.1h-.8v-7.039h1.266l2.737,6.027h.02v-6.027h.8v7.039Zm-5.582,0-.506-1.677h-2.714l-.523,1.677h-.905l2.226-7.039h1.144l2.287,7.039Zm-3-2.457h2.25l-1.128-3.752h-.02Zm59.972-11.92v-2.312a2.033,2.033,0,0,1,2.21-2.289,2.036,2.036,0,0,1,2.21,2.289v2.312c0,1.949-.721,2.72-2.21,2.72S-6683.962-283.776-6683.962-285.726Zm.917-2.34v2.377c0,1.542.445,1.932,1.293,1.932s1.295-.39,1.295-1.932v-2.377c0-1.474-1.014-1.523-1.295-1.523S-6683.046-289.539-6683.046-288.065Zm-19.182,2.271v-1.989c0-1.989.874-2.556,2.258-2.556s1.929.721,1.84,2.087l-.927-.012a1.627,1.627,0,0,0-.2-1.024,1.173,1.173,0,0,0-.789-.3,1.1,1.1,0,0,0-1.063.547c-.031.1-.206.252-.206,1.462v1.891c0,1.718.572,1.932,1.259,1.932.271,0,1.1-.1,1.111-1.474h.923c.04,2.224-1.53,2.224-1.987,2.224C-6700.885-283.006-6702.228-283.064-6702.228-285.794Zm-29.154.068v-2.312a2.033,2.033,0,0,1,2.208-2.289,2.04,2.04,0,0,1,2.213,2.289v2.312c0,1.949-.721,2.72-2.213,2.72S-6731.382-283.776-6731.382-285.726Zm.915-2.34v2.377c0,1.542.448,1.932,1.293,1.932s1.295-.39,1.295-1.932v-2.377c0-1.474-1.012-1.523-1.295-1.523S-6730.467-289.539-6730.467-288.065Zm22.332,2.329,0-4.468h.89v4.516c0,1.542.465,1.932,1.314,1.932s1.315-.39,1.315-1.932V-290.2h.895v4.468c0,1.948-.721,2.718-2.21,2.718S-6708.136-283.788-6708.136-285.736Zm10.754,2.583,2.229-7.051h1.143l2.287,7.039h-1l-.515-1.665h-2.718l-.525,1.677Zm1.655-2.469h2.249l-1.128-3.752h-.021Zm21.384,2.457-2.776-6.1h-.019v6.1h-.8V-290.2h1.266l2.735,6.027h.021V-290.2h.8v7.039Zm-12.181,0V-290.2h.9v7.039Zm-3.788,0v-6.257h-1.852v-.782h4.6v.782h-1.852v6.257Zm-23.72,0V-290.2h2.161a1.877,1.877,0,0,1,1.89,1.074,7.224,7.224,0,0,1,.313,2.224,5.859,5.859,0,0,1-.429,2.836c-.378.607-1.091.907-2.317.907Zm.9-.777h.857c1.246,0,1.714-.47,1.714-2.106v-1.431c0-1.431-.438-1.949-1.372-1.949h-1.178Zm-5.785.777V-290.2h3.621v.782h-2.727v2.26h2.532v.782h-2.532v2.438h2.783v.777Zm-6.552,0V-290.2h3.484v.782h-2.59v2.26h2.454v.782h-2.454v3.215Zm-11.714,0v-6.257h-1.851v-.782h4.594v.782h-1.849v6.257Zm-4.052,0-2.774-6.1h-.021v6.1h-.8V-290.2h1.266l2.735,6.027h.021V-290.2h.8v7.039Zm-8.51,0V-290.2h3.623v.782h-2.727v2.26h2.529v.782h-2.529v2.438h2.784v.777Zm-2.481,0v-6.257h-.022l-1.967,6.257h-.847l-1.929-6.257h-.017v6.257h-.838V-290.2h1.45l1.772,5.91h.021l1.791-5.91h1.48v7.039Zm-9.3,0v-6.257h-1.85v-.782h4.6v.782h-1.852v6.257Zm-6.624,0V-290.2h2.423a1.589,1.589,0,0,1,1.685,1.755,1.519,1.519,0,0,1-1.285,1.61v.005c.808.13,1.1.4,1.142,1.815a10.715,10.715,0,0,0,.244,1.844h-.934a8.424,8.424,0,0,1-.286-2.341.925.925,0,0,0-1.06-.9l-1.034.012v3.236Zm.9-4.016h1.343c.642,0,.954-.556.954-1.171a.956.956,0,0,0-.942-1.07h-1.354Zm-2.819,4.016-.509-1.665h-2.714l-.532,1.665h-.9l2.234-7.039h1.144l2.285,7.039Zm-3-2.457h2.249l-1.129-3.752h-.019Zm-5.824-4.582h2.084a1.755,1.755,0,0,1,1.958,2,1.82,1.82,0,0,1-1.966,1.931H-6778v3.1l-.9.005Zm.9,3.159h.979a1.118,1.118,0,0,0,1.249-1.2c0-1.1-.8-1.179-1-1.179H-6778Zm-5.882,3.88V-290.2h3.621v.782h-2.727v2.26h2.532v.782h-2.532v2.438h2.784v.777Zm-5.93,0V-290.2h2.161a1.875,1.875,0,0,1,1.888,1.074,7.17,7.17,0,0,1,.312,2.224,5.864,5.864,0,0,1-.428,2.836c-.38.607-1.089.907-2.317.907Zm.895-.777h.857c1.246,0,1.714-.47,1.714-2.106v-1.431c0-1.431-.439-1.949-1.373-1.949h-1.2Zm43.548-9.771v-.857a1.314,1.314,0,0,0,.789-.21,1.207,1.207,0,0,0,.413-.557,2.652,2.652,0,0,0,.157-.8c.017-.3.025-.622.025-.954v-.182h-.461a3.227,3.227,0,0,1-2.076-.595,1.924,1.924,0,0,1-.743-1.583,2.9,2.9,0,0,1,.305-1.305,3.4,3.4,0,0,1,.857-1.079,4.548,4.548,0,0,1,1.307-.767,5.884,5.884,0,0,1,1.656-.38l0,6.15a8,8,0,0,1-.082,1.143,2.927,2.927,0,0,1-.315,1,1.838,1.838,0,0,1-.67.711,2.173,2.173,0,0,1-1.056.273Zm-.385-7.29a2.085,2.085,0,0,0-.654,1.525,1.144,1.144,0,0,0,.5.99,2.679,2.679,0,0,0,1.578.363h.331v-3.829A3.865,3.865,0,0,0-6745.757-301Zm54.006,7.281v-.857a1.283,1.283,0,0,0,.758-.2,1.186,1.186,0,0,0,.419-.518,2.274,2.274,0,0,0,.175-.736c.022-.285.031-.571.031-.857v-5.458h.857v4.224h.58a.564.564,0,0,1,.143-.012h6.832v-4.212h.857v5.083h-8.423v.377a8.906,8.906,0,0,1-.064,1.108,3.022,3.022,0,0,1-.287,1.022,1.871,1.871,0,0,1-.675.751,2.179,2.179,0,0,1-1.087.289Q-6691.694-293.718-6691.751-293.721Zm-85.021,0v-.857a1.323,1.323,0,0,0,.762-.2,1.234,1.234,0,0,0,.419-.518,2.428,2.428,0,0,0,.172-.736c.022-.285.031-.571.031-.857v-5.458h.857v4.224h.592a.568.568,0,0,1,.143-.012h6.082a3.231,3.231,0,0,0-.571-.859,6.3,6.3,0,0,0-.75-.714,7.168,7.168,0,0,0-.748-.535c-.242-.147-.435-.259-.571-.336a3.112,3.112,0,0,1,.477-1.109,3.248,3.248,0,0,1,.765-.782,3.169,3.169,0,0,1,.958-.469,3.623,3.623,0,0,1,1.046-.155,3.536,3.536,0,0,1,1.212.194,3.194,3.194,0,0,1,.929.527,3.3,3.3,0,0,1,.678.782,3.911,3.911,0,0,1,.424.946l0,.007a8.118,8.118,0,0,0-1.414.987,6.954,6.954,0,0,0-.717.721,3.3,3.3,0,0,0-.52.808h2.926a.593.593,0,0,1,.139-.012h4.125a2.259,2.259,0,0,1-.4-.67,2.64,2.64,0,0,1-.15-.964,2.178,2.178,0,0,1,.482-1.43,3.941,3.941,0,0,1,1.144-.951,5.249,5.249,0,0,1,1.321-.52,7.731,7.731,0,0,1,1.039-.189v4.735h.6a.589.589,0,0,1,.162-.017h2.965v.005h.745v-7.844h.857v8.714h-23.97l-.005.377a9.2,9.2,0,0,1-.068,1.108,3.1,3.1,0,0,1-.286,1.022,1.907,1.907,0,0,1-.676.751,2.192,2.192,0,0,1-1.089.289C-6776.695-293.718-6776.733-293.719-6776.772-293.721Zm19.341-7.852a4.245,4.245,0,0,0-.746.412,2.411,2.411,0,0,0-.6.595,1.366,1.366,0,0,0-.242.808,1.277,1.277,0,0,0,.6,1.246,3.819,3.819,0,0,0,1.675.356v-3.662A5.681,5.681,0,0,0-6757.432-301.573Zm-10.98-.329a2.16,2.16,0,0,0-.879.891h.01c.131.089.286.2.477.346a6.8,6.8,0,0,1,.572.486,6.661,6.661,0,0,1,.571.613,5.4,5.4,0,0,1,.521.731,4.424,4.424,0,0,1,.508-.717,8.469,8.469,0,0,1,.595-.61c.2-.181.392-.341.571-.477s.346-.252.478-.341c-.077-.109-.174-.237-.285-.387a2.358,2.358,0,0,0-.443-.412,2.769,2.769,0,0,0-.608-.32,2.247,2.247,0,0,0-.792-.135h-.029A2.572,2.572,0,0,0-6768.412-301.9Zm28.822,7.7v-3.02a.927.927,0,0,1,.227-.617.739.739,0,0,1,.571-.286h.372a2.3,2.3,0,0,1-.4-.67,2.622,2.622,0,0,1-.152-.964,2.188,2.188,0,0,1,.482-1.431,4.006,4.006,0,0,1,1.143-.949,5.347,5.347,0,0,1,1.326-.521,8.282,8.282,0,0,1,1.055-.2v3.265a1.676,1.676,0,0,0,.058.382,2.632,2.632,0,0,0,.164.486,1.967,1.967,0,0,0,.254.421.436.436,0,0,0,.269.172.593.593,0,0,1,.086,0h5.19v-4.206h.857v4.206h4.464v-7.844h.857v7.856h.588a.566.566,0,0,1,.143-.012h5.333a3.3,3.3,0,0,0-.573-.859,6.446,6.446,0,0,0-.751-.714,7.326,7.326,0,0,0-.748-.535c-.244-.147-.435-.259-.572-.336a3.1,3.1,0,0,1,.477-1.109,3.209,3.209,0,0,1,.767-.782,3.168,3.168,0,0,1,.958-.469,3.626,3.626,0,0,1,1.045-.155,3.493,3.493,0,0,1,1.213.194,3.243,3.243,0,0,1,.931.527,3.266,3.266,0,0,1,.675.782,4.083,4.083,0,0,1,.429.946v.007a8,8,0,0,0-1.43.987,7,7,0,0,0-.717.721,3.373,3.373,0,0,0-.52.808h2.949a.558.558,0,0,1,.142-.012h4.442v-4.212h.857v4.224h.605a.581.581,0,0,1,.137-.012h3.715v-7.844h.857v8.714h-25.518a.564.564,0,0,1-.141-.012l-3.7.012h-3.135a.352.352,0,0,1-.223-.092,1.066,1.066,0,0,1-.2-.223,1.667,1.667,0,0,1-.158-.273c-.043-.09-.08-.177-.114-.254l.034.842h-3.77v3.067Zm3.076-7.375a4.305,4.305,0,0,0-.755.412,2.4,2.4,0,0,0-.6.595,1.357,1.357,0,0,0-.244.808,1.276,1.276,0,0,0,.6,1.246,3.876,3.876,0,0,0,1.688.356v-3.662A5.611,5.611,0,0,0-6736.515-301.573Zm19.114-.329a2.173,2.173,0,0,0-.881.89h.022c.133.09.288.2.479.348a6.561,6.561,0,0,1,.571.486,6.958,6.958,0,0,1,.573.613,5,5,0,0,1,.52.731,4.414,4.414,0,0,1,.511-.717,7.723,7.723,0,0,1,.591-.61c.2-.181.392-.341.573-.477s.344-.252.479-.341c-.075-.109-.175-.237-.3-.387a2.272,2.272,0,0,0-.443-.412,2.631,2.631,0,0,0-.608-.32,2.231,2.231,0,0,0-.791-.135h-.02A2.609,2.609,0,0,0-6717.4-301.9Zm-11.132,6.98a.536.536,0,0,1-.394-.165.575.575,0,0,1-.136-.627.569.569,0,0,1,.53-.36.569.569,0,0,1,.53.36.574.574,0,0,1-.135.627.542.542,0,0,1-.389.165Zm-2.074-.165a.572.572,0,0,1-.255-.591.57.57,0,0,1,.453-.455.569.569,0,0,1,.589.256.571.571,0,0,1,.106.6.575.575,0,0,1-.5.353h-.006A.536.536,0,0,1-6730.607-295.088Zm-57.937-2.333a2.255,2.255,0,0,1-.8-.552,1.674,1.674,0,0,1-.38-.692,2.762,2.762,0,0,1-.1-.719,2.612,2.612,0,0,1,.477-1.575,4.7,4.7,0,0,1,1.128-1.13,6.387,6.387,0,0,1,1.328-.734,9.719,9.719,0,0,1,1.089-.387v4.875c0,.155.064.232.2.232h.329a.569.569,0,0,1,.22-.034h4.875a2.342,2.342,0,0,1-1.043-2.045,2.492,2.492,0,0,1,.237-1.114,2.33,2.33,0,0,1,.687-.823,3.148,3.148,0,0,1,1.051-.513,4.959,4.959,0,0,1,1.352-.172,4.854,4.854,0,0,1,.5.015c.14.014.319.034.528.065v5.463l-4.928.012a.56.56,0,0,1-.164-.017h-3.1v.022h-.659a.889.889,0,0,1-.682-.286,1.149,1.149,0,0,1-.257-.809l-.017-3.611q-.3.146-.7.368a4.222,4.222,0,0,0-.747.538,3.29,3.29,0,0,0-.6.724,1.779,1.779,0,0,0-.252.941,1.131,1.131,0,0,0,.446,1.017,3.141,3.141,0,0,0,1.4.368l-.066.859A3.919,3.919,0,0,1-6788.543-297.42Zm9.76-4.456a2.369,2.369,0,0,0-.8.273,1.584,1.584,0,0,0-.572.547,1.685,1.685,0,0,0-.217.912l0,.007a1.664,1.664,0,0,0,.649,1.341,3.992,3.992,0,0,0,2,.712v-3.865h-.066a.129.129,0,0,1-.051,0,.075.075,0,0,0-.047,0h-.028A5.249,5.249,0,0,0-6778.783-301.876Zm100.943,4.611v-.859h3.544a6.514,6.514,0,0,0,.215-.661,3.784,3.784,0,0,0,.114-1.007,3.09,3.09,0,0,0-.123-.881,2.391,2.391,0,0,0-.346-.733,1.7,1.7,0,0,0-.571-.5,1.536,1.536,0,0,0-.75-.189,2.135,2.135,0,0,0-.708.124,3.3,3.3,0,0,0-.826.452l-.5-.658a4,4,0,0,1,.84-.53,2.749,2.749,0,0,1,1.218-.245,2.356,2.356,0,0,1,1.142.271,2.474,2.474,0,0,1,.818.719,3.137,3.137,0,0,1,.485,1.012,4.251,4.251,0,0,1,.164,1.162,4.832,4.832,0,0,1-.075.859,5.147,5.147,0,0,1-.177.741,4.239,4.239,0,0,1-.216.571c-.079.162-.138.286-.179.356Zm-1.929,0v-8.663h.857v8.663Zm-13,0a4.845,4.845,0,0,1-.965-.114,3.611,3.611,0,0,1-1.005-.382,2.422,2.422,0,0,1-.791-.7,1.781,1.781,0,0,1-.324-1.082,2.482,2.482,0,0,1,.232-1.079,3.328,3.328,0,0,1,.595-.876,4.332,4.332,0,0,1,.814-.683,7.159,7.159,0,0,1,.9-.5,6.627,6.627,0,0,1,.832-.329c.257-.083.464-.14.617-.174v5.923Zm-.645-4.373a3.864,3.864,0,0,0-.739.52,3.114,3.114,0,0,0-.595.7,1.64,1.64,0,0,0-.249.889,1,1,0,0,0,.215.644,1.7,1.7,0,0,0,.545.429,2.619,2.619,0,0,0,.709.232,4.275,4.275,0,0,0,.705.065h.1v-3.827C-6692.924-301.9-6693.154-301.781-6693.418-301.638Zm-7.083,4.373v-8.663h.857v8.663Zm-48.745,0v-8.663h.857v8.663Zm-6.639-5.594h0Zm72.84-.285v-.426h.707a.439.439,0,0,1-.131-.216,1.187,1.187,0,0,1-.065-.387.7.7,0,0,1,.285-.632,1.068,1.068,0,0,1,.61-.186,2.286,2.286,0,0,1,.891.186l-.172.421a1.726,1.726,0,0,0-.707-.169.62.62,0,0,0-.348.085.328.328,0,0,0-.131.286.493.493,0,0,0,.249.46,1.2,1.2,0,0,0,.608.143h.413v.435Zm-26.208-.375a.524.524,0,0,1-.394-.165.545.545,0,0,1-.165-.4.544.544,0,0,1,.165-.394.569.569,0,0,1,.7-.116.571.571,0,0,1,.272.658.572.572,0,0,1-.55.413Zm1.7,0a.567.567,0,0,1-.567-.455.571.571,0,0,1,.337-.644.569.569,0,0,1,.695.21.57.57,0,0,1-.071.724.523.523,0,0,1-.382.165Zm14.7-.859a.576.576,0,0,1,.208-.7.573.573,0,0,1,.724.073.525.525,0,0,1,.166.4.571.571,0,0,1-.454.567.569.569,0,0,1-.118.012A.572.572,0,0,1-6692.853-304.378Zm-1.861,0a.574.574,0,0,1,.209-.7.571.571,0,0,1,.723.073.537.537,0,0,1,.167.4.574.574,0,0,1-.455.567.569.569,0,0,1-.118.012A.572.572,0,0,1-6694.713-304.378Zm-92.218,0a.576.576,0,0,1,.208-.7A.573.573,0,0,1-6786-305a.524.524,0,0,1,.165.4.572.572,0,0,1-.453.567.577.577,0,0,1-.118.012A.57.57,0,0,1-6786.932-304.378Zm-1.792-.22a.574.574,0,0,1,.458-.561.572.572,0,0,1,.571.561.571.571,0,0,1-.571.56A.571.571,0,0,1-6788.724-304.6Zm10.468.329a.57.57,0,0,1-.458-.561.573.573,0,0,1,.458-.561.573.573,0,0,1,.571.57.561.561,0,0,1-.164.389.553.553,0,0,1-.389.162Zm-9.439-.328v0Zm10.01-.223v0Z" transform="translate(6789.822 314.092)" fill="#fff"/>
    </g>
  </g>
</svg>
