<svg id="Icon" xmlns="http://www.w3.org/2000/svg" width="25.5" height="25.5" viewBox="0 0 25.5 25.5">
  <rect id="Bounding_Box" data-name="Bounding Box" width="25.5" height="25.5" fill="none"/>
  <path id="Icon-2" data-name="Icon" d="M6.242,19.125A6.237,6.237,0,0,1,0,12.914v-6.7A6.227,6.227,0,0,1,6.242,0h9.031a6.246,6.246,0,0,1,6.242,6.211V7.764a.759.759,0,0,1-.761.757l-.01-.019a.76.76,0,0,1-.761-.757V6.211a4.747,4.747,0,0,0-4.71-4.687H6.242a4.747,4.747,0,0,0-4.71,4.687v6.7A4.746,4.746,0,0,0,6.242,17.6h9.031a4.746,4.746,0,0,0,4.71-4.686.771.771,0,0,1,1.532,0,6.246,6.246,0,0,1-6.242,6.211ZM8.659,10.6,4.225,7.072A.764.764,0,0,1,4.111,6a.755.755,0,0,1,1.066-.114L9.649,9.411a1.548,1.548,0,0,0,1.9,0l4.425-3.522h.009A.773.773,0,0,1,17.062,6a.754.754,0,0,1-.123,1.069L12.513,10.6a3.084,3.084,0,0,1-3.854,0Z" transform="translate(2.391 3.188)" fill="#286f90" stroke="#286f90" stroke-width="0.5"/>
</svg>
