<svg id="logo_landing" xmlns="http://www.w3.org/2000/svg" width="155.174" height="49.445" viewBox="0 0 155.174 49.445">
  <g id="Group_63227" data-name="Group 63227" transform="translate(0 3.602)">
    <g id="Group_63226" data-name="Group 63226" transform="translate(24.482 33.201)">
      <path id="Path_94942" data-name="Path 94942" d="M811.253,1172.492a1.225,1.225,0,0,1,.937.328c1.208,1.151,2.358,2.362,3.556,3.523.526.509,1.117.955,1.837,1.559q.661-.358,1.308-.769a7.92,7.92,0,0,0,2.757-2.208c-.458-.007-.829.291-1.31.3a3.918,3.918,0,0,1-2.9-1.159c-1.011-.973-2-1.972-2.992-2.959" transform="translate(-811.253 -1171.106)" fill="#0fa398"/>
    </g>
    <path id="Path_94943" data-name="Path 94943" d="M772.935,1127.953a39.282,39.282,0,0,1-4.532,1.561,26.7,26.7,0,0,1-5.319.635,20.1,20.1,0,0,1-10.969-3.1,20.944,20.944,0,0,1-8.05-8.95,20.628,20.628,0,0,1-1.891-11.1,19.52,19.52,0,0,1,1.84-6.676,21.047,21.047,0,0,1,3.467-5.334,3.586,3.586,0,0,1,5.6.2,3.661,3.661,0,0,1-.218,4.719,13.8,13.8,0,0,0,6.2,22.379,13.937,13.937,0,0,0,7.489.219,1.224,1.224,0,0,1,.937.328c1.208,1.151,2.358,2.362,3.556,3.523C771.584,1126.872,772.19,1127.326,772.935,1127.953Z" transform="translate(-742.069 -1087.911)" fill="#20b2aa"/>
    <path id="Path_94944" data-name="Path 94944" d="M811.339,1123.865c1.852-1.866,3.523-3.558,5.2-5.241q5.909-5.911,11.821-11.82a3.759,3.759,0,1,1,5.4,5.219q-3.894,3.911-7.812,7.8c-3.852,3.847-7.75,7.649-11.531,11.564a4.032,4.032,0,0,1-6.023.008c-3.127-3.262-6.358-6.424-9.553-9.62a3.753,3.753,0,1,1,5.264-5.343c2.2,2.175,4.385,4.371,6.568,6.567A9.225,9.225,0,0,1,811.339,1123.865Z" transform="translate(-777.961 -1095.516)" fill="#c4418c"/>
    <path id="Path_94945" data-name="Path 94945" d="M786.763,1077.283a21.346,21.346,0,0,1,11,2.817,3.692,3.692,0,0,1,.529,6.145,3.613,3.613,0,0,1-4.206.312,13.869,13.869,0,0,0-8.153-1.753c-.731.065-1.454.227-2.178.361a3.712,3.712,0,0,1-1.792-7.2,13.006,13.006,0,0,1,2.088-.445C785.12,1077.387,786.2,1077.33,786.763,1077.283Z" transform="translate(-766.115 -1077.283)" fill="#20b2aa"/>
    <path id="Path_94946" data-name="Path 94946" d="M843.338,1109.389a3.761,3.761,0,0,1-3.72,3.773,4,4,0,0,1-3.934-4.032,3.79,3.79,0,0,1,3.8-3.778A4.028,4.028,0,0,1,843.338,1109.389Z" transform="translate(-802.557 -1095.42)" fill="#20b2aa"/>
  </g>
  <g id="Group_63228" data-name="Group 63228" transform="translate(69.83 24.035)">
    <path id="Path_94947" data-name="Path 94947" d="M947.578,1153.771h-3.615a4.494,4.494,0,0,1-3.3-1.242,4.2,4.2,0,0,1-1.256-3.114v-1.452H942v1.452a1.617,1.617,0,0,0,.537,1.292,2.1,2.1,0,0,0,1.423.464h1.016v-.886a3.687,3.687,0,0,1,1.038-2.751,3.747,3.747,0,0,1,2.751-1.024h2.947v4.08a.627.627,0,0,0,.138.414.456.456,0,0,0,.37.167h.363v2.6h-.363a3,3,0,0,1-2.28-.886,3.191,3.191,0,0,1-.842-2.294v-1.553h-.276a1.238,1.238,0,0,0-.936.327,1.259,1.259,0,0,0-.312.908Zm-4.646,3.368a1.338,1.338,0,0,1-1.321-1.321,1.3,1.3,0,0,1,.385-.944,1.262,1.262,0,0,1,.936-.392,1.338,1.338,0,0,1,1.336,1.336,1.265,1.265,0,0,1-.392.937A1.3,1.3,0,0,1,942.932,1157.139Zm4.007-.392a1.332,1.332,0,0,1-1.887,0,1.271,1.271,0,0,1-.392-.929,1.336,1.336,0,0,1,2.671,0A1.27,1.27,0,0,1,946.939,1156.747Z" transform="translate(-939.404 -1142.447)" fill="#042423"/>
    <path id="Path_94948" data-name="Path 94948" d="M981.643,1162.281h-5.807v-2.6h5.807Z" transform="translate(-962.944 -1150.957)" fill="#042423"/>
    <path id="Path_94949" data-name="Path 94949" d="M997.234,1162.281h-5.807v-2.6h5.807Z" transform="translate(-973.018 -1150.957)" fill="#042423"/>
    <path id="Path_94950" data-name="Path 94950" d="M1008.235,1148.019h-1.219v-2.6h1.219a.591.591,0,0,0,.465-.2.746.746,0,0,0,.174-.515v-3.949h2.613v3.949a3.235,3.235,0,0,1-.929,2.366A3.126,3.126,0,0,1,1008.235,1148.019Zm1.423-8.145a1.333,1.333,0,0,1-1.887,0,1.27,1.27,0,0,1-.392-.929,1.336,1.336,0,0,1,2.671,0A1.269,1.269,0,0,1,1009.658,1139.874Zm1.989.392a1.3,1.3,0,0,1-.944-.385,1.262,1.262,0,0,1-.392-.936,1.338,1.338,0,0,1,1.336-1.336,1.265,1.265,0,0,1,.937.392,1.3,1.3,0,0,1,.384.944,1.338,1.338,0,0,1-1.321,1.321Z" transform="translate(-983.091 -1136.695)" fill="#042423"/>
    <path id="Path_94951" data-name="Path 94951" d="M1043.169,1153.771h-3.615a4.494,4.494,0,0,1-3.3-1.242,4.2,4.2,0,0,1-1.256-3.114v-1.452h2.6v1.452a1.617,1.617,0,0,0,.537,1.292,2.1,2.1,0,0,0,1.423.464h1.016v-.886a3.688,3.688,0,0,1,1.038-2.751,3.747,3.747,0,0,1,2.751-1.024h2.947v4.08a.627.627,0,0,0,.138.414.455.455,0,0,0,.37.167h.363v2.6h-.363a3,3,0,0,1-2.279-.886,3.191,3.191,0,0,1-.842-2.294v-1.553h-.276a1.24,1.24,0,0,0-.937.327,1.261,1.261,0,0,0-.312.908Zm-4.646,3.368a1.338,1.338,0,0,1-1.321-1.321,1.3,1.3,0,0,1,.385-.944,1.262,1.262,0,0,1,.936-.392,1.337,1.337,0,0,1,1.335,1.336,1.264,1.264,0,0,1-.392.937A1.3,1.3,0,0,1,1038.523,1157.139Zm4.007-.392a1.332,1.332,0,0,1-1.887,0,1.27,1.27,0,0,1-.392-.929,1.336,1.336,0,0,1,2.671,0A1.27,1.27,0,0,1,1042.53,1156.747Z" transform="translate(-1001.169 -1142.447)" fill="#042423"/>
    <path id="Path_94952" data-name="Path 94952" d="M1077.234,1162.281h-5.807v-2.6h5.807Z" transform="translate(-1024.709 -1150.957)" fill="#042423"/>
    <path id="Path_94953" data-name="Path 94953" d="M1092.824,1162.281h-5.807v-2.6h5.807Z" transform="translate(-1034.782 -1150.957)" fill="#042423"/>
    <path id="Path_94954" data-name="Path 94954" d="M1103.043,1153.771h-.436v-2.6h.436a.57.57,0,0,0,.457-.2.768.768,0,0,0,.167-.515v-3.949h2.613v3.949a3.249,3.249,0,0,1-.922,2.366A3.1,3.1,0,0,1,1103.043,1153.771Zm2.918,3.063a1.4,1.4,0,1,1,.407-.987A1.345,1.345,0,0,1,1105.961,1156.834Z" transform="translate(-1044.855 -1142.447)" fill="#042423"/>
    <path id="Path_94955" data-name="Path 94955" d="M1135.354,1153.771h-3.615a4.494,4.494,0,0,1-3.3-1.242,4.2,4.2,0,0,1-1.256-3.114v-1.452h2.6v1.452a1.617,1.617,0,0,0,.537,1.292,2.1,2.1,0,0,0,1.423.464h1.016v-.886a3.689,3.689,0,0,1,1.038-2.751,3.748,3.748,0,0,1,2.751-1.024h2.947v7.259h-2.613v-4.733h-.276a1.238,1.238,0,0,0-.936.327,1.261,1.261,0,0,0-.312.908Zm-4.7,3.368a1.339,1.339,0,0,1-1.321-1.321,1.3,1.3,0,0,1,.385-.944,1.263,1.263,0,0,1,.937-.392,1.338,1.338,0,0,1,1.336,1.336,1.263,1.263,0,0,1-.392.937A1.3,1.3,0,0,1,1130.65,1157.139Zm4.007-.392a1.288,1.288,0,0,1-.944.392,1.263,1.263,0,0,1-.937-.392,1.284,1.284,0,0,1-.385-.929,1.3,1.3,0,0,1,.385-.944,1.263,1.263,0,0,1,.937-.392,1.337,1.337,0,0,1,1.335,1.336A1.272,1.272,0,0,1,1134.657,1156.747Z" transform="translate(-1060.733 -1142.447)" fill="#042423"/>
    <path id="Path_94956" data-name="Path 94956" d="M1168.55,1146.349h-2.6v-11.324h2.6Z" transform="translate(-1085.784 -1135.025)" fill="#042423"/>
  </g>
  <g id="Group_63234" data-name="Group 63234" transform="translate(69.707)">
    <g id="Group_63229" data-name="Group 63229" transform="translate(0)">
      <path id="Path_94957" data-name="Path 94957" d="M955.942,1075.755v10.072h-4.26v-4.418h-8.415v4.418h-4.208v-10.072c0-5.6,3.393-8.652,8.442-8.652S955.942,1070.154,955.942,1075.755Zm-4.26,2.235v-2.63c0-3.13-1.683-4.629-4.207-4.629-2.551,0-4.208,1.5-4.208,4.629v2.63Z" transform="translate(-939.058 -1067.103)" fill="#20b2aa"/>
    </g>
    <g id="Group_63230" data-name="Group 63230" transform="translate(22.921 13.833)">
      <path id="Path_94958" data-name="Path 94958" d="M1003.831,1108.719a2.551,2.551,0,0,1,5.1,0,2.551,2.551,0,1,1-5.1,0Z" transform="translate(-1003.831 -1106.194)" fill="#20b2aa"/>
    </g>
    <g id="Group_63231" data-name="Group 63231" transform="translate(56.52 13.833)">
      <path id="Path_94959" data-name="Path 94959" d="M1098.78,1108.719a2.551,2.551,0,0,1,5.1,0,2.551,2.551,0,1,1-5.1,0Z" transform="translate(-1098.78 -1106.194)" fill="#20b2aa"/>
    </g>
    <g id="Group_63232" data-name="Group 63232" transform="translate(66.054)">
      <path id="Path_94960" data-name="Path 94960" d="M1141.607,1072.573a13.735,13.735,0,0,0-5.075-1.762v15.016h-4.26v-15.016a14.2,14.2,0,0,0-5.1,1.762l-1.447-3.182a17.553,17.553,0,0,1,17.331,0Z" transform="translate(-1125.723 -1067.103)" fill="#20b2aa"/>
    </g>
    <g id="Group_63233" data-name="Group 63233" transform="translate(34.06 0.316)">
      <path id="Path_94961" data-name="Path 94961" d="M1052.193,1081.381c0,3.182-2.525,5.023-7.364,5.023h-9.52V1068h8.994c4.6,0,6.969,1.92,6.969,4.786a4.425,4.425,0,0,1-2.446,4.05A4.547,4.547,0,0,1,1052.193,1081.381Zm-12.65-10.177v4.339h4.234c2.078,0,3.208-.736,3.208-2.183s-1.131-2.156-3.208-2.156Zm8.363,9.73c0-1.552-1.184-2.288-3.392-2.288h-4.97v4.55h4.97C1046.722,1083.2,1047.906,1082.512,1047.906,1080.934Z" transform="translate(-1035.309 -1067.995)" fill="#20b2aa"/>
    </g>
  </g>
  <g id="Group_63236" data-name="Group 63236" transform="translate(69.477 43.363)">
    <g id="Group_63235" data-name="Group 63235" transform="translate(44.443 0)">
      <path id="Path_94962" data-name="Path 94962" d="M1064,1195.037h.448v.605a1.209,1.209,0,0,0,1.374,1.362h.63v-.914a1.468,1.468,0,0,1,1.664-1.658h.635v3.026h-.454v-2.584h-.175a1.278,1.278,0,0,0-.923.287,1.257,1.257,0,0,0-.293.929v1.368h-1.083a1.647,1.647,0,0,1-1.822-1.816Zm1.132,3.28a.3.3,0,0,1,.3-.3.3.3,0,0,1,.212.088.279.279,0,0,1,.091.209.289.289,0,0,1-.091.212.3.3,0,0,1-.212.085.3.3,0,0,1-.3-.3Zm1.077-.206a.279.279,0,0,1,.212-.09.3.3,0,1,1-.212.505.291.291,0,0,1-.085-.209A.282.282,0,0,1,1066.209,1198.111Z" transform="translate(-1064 -1192.738)" fill="#ff7800"/>
      <path id="Path_94963" data-name="Path 94963" d="M1077.6,1198.329a.691.691,0,0,0,.26.042.571.571,0,0,0,.506-.215,1.2,1.2,0,0,0,.148-.669v-3.056h.448v3.062q0,1.326-1.089,1.325a1.262,1.262,0,0,1-.4-.067Z" transform="translate(-1072.708 -1192.738)" fill="#ff7800"/>
      <path id="Path_94964" data-name="Path 94964" d="M1084.369,1189.644h.448v3.576q0,.69.532.69h.151v.453h-.151a.89.89,0,0,1-.723-.308,1.265,1.265,0,0,1-.257-.835Z" transform="translate(-1077.161 -1189.644)" fill="#ff7800"/>
      <path id="Path_94965" data-name="Path 94965" d="M1089.645,1202.155h-2.421v-.454h2.421Z" transform="translate(-1079.006 -1197.434)" fill="#ff7800"/>
      <path id="Path_94966" data-name="Path 94966" d="M1093.723,1197h.357q.527,0,.527-.69v-1.882h.454v1.882q0,.69.526.69h.357v.454h-.357a.785.785,0,0,1-.75-.436.8.8,0,0,1-.757.436h-.357Zm.418,1.107a.271.271,0,0,1,.206-.09.294.294,0,0,1,.212.088.28.28,0,0,1,.091.209.29.29,0,0,1-.091.212.3.3,0,0,1-.212.085.3.3,0,0,1-.3-.3A.27.27,0,0,1,1094.141,1198.111Zm.884.206a.3.3,0,0,1,.3-.3.294.294,0,0,1,.212.088.28.28,0,0,1,.091.209.29.29,0,0,1-.091.212.3.3,0,0,1-.212.085.3.3,0,0,1-.3-.3Z" transform="translate(-1083.205 -1192.738)" fill="#ff7800"/>
      <path id="Path_94967" data-name="Path 94967" d="M1099.657,1197h1.562l-1.077-1.61v-.962h2.227q1.241,0,1.24.859a1.028,1.028,0,0,1-.078.384,1.848,1.848,0,0,1-.251.424q-.173.227-.309.381t-.378.414q-.073.073-.1.109h1.6v.454h-4.436Zm1-2.118v.472l1.1,1.646h.2q.066-.073.315-.336t.336-.369q.088-.106.239-.3a1.564,1.564,0,0,0,.209-.33.678.678,0,0,0,.057-.263.417.417,0,0,0-.215-.415,1.593,1.593,0,0,0-.669-.106Z" transform="translate(-1087.039 -1192.738)" fill="#ff7800"/>
      <path id="Path_94968" data-name="Path 94968" d="M1111.851,1197.458V1197h1.017a1.176,1.176,0,0,1-.421-.445,1.253,1.253,0,0,1-.154-.614,1.513,1.513,0,0,1,3.026,0v.521a.565.565,0,0,0,.13.393.458.458,0,0,0,.36.145h.157v.454h-.157a.8.8,0,0,1-.532-.172.753.753,0,0,1-.254-.481,1.46,1.46,0,0,1-1.216.654Zm.89-1.513a1.064,1.064,0,1,0,.312-.748A1.018,1.018,0,0,0,1112.741,1195.945Z" transform="translate(-1094.918 -1192.738)" fill="#ff7800"/>
      <path id="Path_94969" data-name="Path 94969" d="M1123.138,1193.911h.158q.532,0,.533-.69v-3.576h.454v3.576a1.255,1.255,0,0,1-.26.835.9.9,0,0,1-.726.308h-.158Z" transform="translate(-1102.211 -1189.644)" fill="#ff7800"/>
      <path id="Path_94970" data-name="Path 94970" d="M1129.863,1194.364h-.448v-4.72h.448Z" transform="translate(-1106.267 -1189.644)" fill="#ff7800"/>
      <path id="Path_94971" data-name="Path 94971" d="M1135.9,1198.329a.691.691,0,0,0,.26.042.57.57,0,0,0,.505-.215,1.194,1.194,0,0,0,.148-.669v-3.056h.448v3.062q0,1.326-1.089,1.325a1.262,1.262,0,0,1-.4-.067Z" transform="translate(-1110.378 -1192.738)" fill="#ff7800"/>
      <path id="Path_94972" data-name="Path 94972" d="M1142.669,1189.644h.448v3.576q0,.69.532.69h.151v.453h-.151a.889.889,0,0,1-.723-.308,1.264,1.264,0,0,1-.257-.835Z" transform="translate(-1114.831 -1189.644)" fill="#ff7800"/>
      <path id="Path_94973" data-name="Path 94973" d="M1145.525,1197.458V1197h.157q.533,0,.533-.69v-1.882h.454v1.882q0,.69.527.69h.157v.454h-.157a.785.785,0,0,1-.75-.436.8.8,0,0,1-.763.436Zm.6.823a.3.3,0,0,1,.088-.218.286.286,0,0,1,.215-.091.308.308,0,0,1,.218.527.309.309,0,0,1-.218.085.3.3,0,0,1-.3-.3Z" transform="translate(-1116.676 -1192.738)" fill="#ff7800"/>
      <path id="Path_94974" data-name="Path 94974" d="M1150.347,1195.7v-.454h.357q.526,0,.526-.69v-1.882h.454v1.882q0,.69.533.69h.351v.454h-.351a.875.875,0,0,0-1.513,0Zm.339-3.686a.3.3,0,0,1,.085-.215.282.282,0,0,1,.212-.088.285.285,0,0,1,.209.088.292.292,0,0,1,.088.215.3.3,0,0,1-.3.3.281.281,0,0,1-.212-.088A.289.289,0,0,1,1150.686,1192.016Zm.968,0a.293.293,0,0,1,.088-.215.286.286,0,0,1,.209-.088.294.294,0,0,1,.212.088.286.286,0,0,1,.091.215.271.271,0,0,1-.091.206.291.291,0,0,1-.212.091.3.3,0,0,1-.3-.3Z" transform="translate(-1119.792 -1190.981)" fill="#ff7800"/>
      <path id="Path_94975" data-name="Path 94975" d="M1156.281,1195.679v-.454h3.22l-.006-.49a1.626,1.626,0,0,0-.448-1.183,1.565,1.565,0,0,0-1.162-.445h-1.192v-.454h1.21a1.99,1.99,0,0,1,1.465.572,2.024,2.024,0,0,1,.581,1.486l.006.515v.454Zm1.761-3.7a.294.294,0,0,1,.088-.212.287.287,0,0,1,.215-.091.3.3,0,0,1,.215.091.286.286,0,0,1,.094.212.294.294,0,0,1-.094.218.3.3,0,0,1-.215.091.289.289,0,0,1-.215-.091A.3.3,0,0,1,1158.042,1191.982Z" transform="translate(-1123.626 -1190.959)" fill="#ff7800"/>
      <path id="Path_94976" data-name="Path 94976" d="M1168.321,1194.364v-.453h1.785q.575,0,.575-.69v-3.576h.454v3.576a1.2,1.2,0,0,1-.278.832.956.956,0,0,1-.751.311Zm.424-.775v-3.643h.454v3.643Z" transform="translate(-1131.406 -1189.644)" fill="#ff7800"/>
      <path id="Path_94977" data-name="Path 94977" d="M1179.766,1194.364h-.448v-4.72h.448Z" transform="translate(-1138.511 -1189.644)" fill="#ff7800"/>
    </g>
    <path id="Path_94978" data-name="Path 94978" d="M939.1,1192.287h.805q1.306,0,1.306,1.056a.956.956,0,0,1-.131.537.852.852,0,0,1-.436.305v.025a1.028,1.028,0,0,1,.534.335.978.978,0,0,1,.155.586q0,1.123-1.427,1.123H939.1a.6.6,0,0,1-.7-.7v-2.575a.6.6,0,0,1,.7-.7Zm.805.6h-.623a.208.208,0,0,0-.238.232v.824h.861a.765.765,0,0,0,.5-.131.5.5,0,0,0,.156-.406.479.479,0,0,0-.153-.394A.788.788,0,0,0,939.908,1192.891Zm.079,1.611h-.94v.916a.207.207,0,0,0,.238.231h.586a1.164,1.164,0,0,0,.634-.124.5.5,0,0,0,.177-.437.561.561,0,0,0-.161-.446A.814.814,0,0,0,939.987,1194.5Z" transform="translate(-938.407 -1191.352)" fill="#ff7800"/>
    <path id="Path_94979" data-name="Path 94979" d="M950.935,1196.015c0,.016,0,.106-.012.268a.25.25,0,0,1-.311.281h-1.7v.134a.543.543,0,0,0,.2.479,1.194,1.194,0,0,0,.669.143,3.3,3.3,0,0,0,.793-.1c.1-.025.164-.021.2.009a.279.279,0,0,1,.052.2v.079a.325.325,0,0,1-.046.2.445.445,0,0,1-.2.095,2.942,2.942,0,0,1-.793.1,1.712,1.712,0,0,1-1.138-.314,1.242,1.242,0,0,1-.363-.991v-.531a1.184,1.184,0,0,1,1.355-1.324,1.329,1.329,0,0,1,.964.32A1.259,1.259,0,0,1,950.935,1196.015Zm-2.02-.116v.152h1.428v-.152q0-.6-.72-.6T948.915,1195.9Z" transform="translate(-944.791 -1192.944)" fill="#ff7800"/>
    <path id="Path_94980" data-name="Path 94980" d="M958.09,1195.936v1.635a.22.22,0,0,1-.275.275h-.079a.22.22,0,0,1-.275-.275v-1.635q0-1.184,1.33-1.184a1.465,1.465,0,0,1,1,.29,1.148,1.148,0,0,1,.32.894v1.635a.22.22,0,0,1-.275.275h-.079a.22.22,0,0,1-.275-.275v-1.635a.594.594,0,0,0-.152-.464.834.834,0,0,0-.543-.134.845.845,0,0,0-.549.134A.594.594,0,0,0,958.09,1195.936Z" transform="translate(-950.719 -1192.944)" fill="#ff7800"/>
    <path id="Path_94981" data-name="Path 94981" d="M966.652,1196.632v-.6a1.22,1.22,0,0,1,.363-.948,1.494,1.494,0,0,1,1.046-.333,1.825,1.825,0,0,1,.476.061.365.365,0,0,1,.2.095.357.357,0,0,1,.046.21v.079c0,.106-.018.173-.055.2s-.1.028-.2,0a1.338,1.338,0,0,0-.452-.061.925.925,0,0,0-.616.159.7.7,0,0,0-.177.543v.574a.689.689,0,0,0,.186.552,1.032,1.032,0,0,0,.65.155,2.722,2.722,0,0,0,.47-.054.248.248,0,0,1,.2.012.258.258,0,0,1,.052.2v.074a.322.322,0,0,1-.052.207.386.386,0,0,1-.2.1,1.976,1.976,0,0,1-.494.061Q966.651,1197.913,966.652,1196.632Z" transform="translate(-956.657 -1192.944)" fill="#ff7800"/>
    <path id="Path_94982" data-name="Path 94982" d="M974.273,1195.421V1191.7a.22.22,0,0,1,.275-.275h.079a.22.22,0,0,1,.275.275v1.282a1.354,1.354,0,0,1,1.745-.113,1.036,1.036,0,0,1,.281.79v1.763a.22.22,0,0,1-.275.275h-.079a.22.22,0,0,1-.275-.275v-1.666a.549.549,0,0,0-.152-.433.741.741,0,0,0-.494-.134.774.774,0,0,0-.568.183.8.8,0,0,0-.183.586v1.465a.22.22,0,0,1-.275.275h-.079a.22.22,0,0,1-.275-.275Z" transform="translate(-961.581 -1190.794)" fill="#ff7800"/>
    <path id="Path_94983" data-name="Path 94983" d="M984.265,1195.936v1.635a.22.22,0,0,1-.275.275h-.079a.22.22,0,0,1-.275-.275v-1.635q0-1.184,1.238-1.184a1.163,1.163,0,0,0,1.831,0,1.293,1.293,0,0,1,.93.293,1.188,1.188,0,0,1,.3.891v1.635a.22.22,0,0,1-.275.275h-.079a.22.22,0,0,1-.275-.275v-1.635a.5.5,0,0,0-.6-.6.67.67,0,0,0-.476.137.627.627,0,0,0-.141.461v1.635a.22.22,0,0,1-.275.275h-.061a.22.22,0,0,1-.274-.275v-1.635a.5.5,0,0,0-.6-.6.664.664,0,0,0-.476.134A.642.642,0,0,0,984.265,1195.936Z" transform="translate(-967.632 -1192.944)" fill="#ff7800"/>
    <path id="Path_94984" data-name="Path 94984" d="M999.779,1195.753v1.184a.869.869,0,0,1-.311.741,1.652,1.652,0,0,1-.989.235q-1.239,0-1.239-.939a.8.8,0,0,1,.308-.7,1.6,1.6,0,0,1,.937-.223h.671v-.3a.39.39,0,0,0-.168-.36,1.1,1.1,0,0,0-.552-.1,3.284,3.284,0,0,0-.641.055.227.227,0,0,1-.18-.015.246.246,0,0,1-.046-.18v-.086a.286.286,0,0,1,.046-.186.309.309,0,0,1,.174-.076,4.135,4.135,0,0,1,.61-.049,1.832,1.832,0,0,1,1.038.238A.865.865,0,0,1,999.779,1195.753Zm-.622,1.154v-.379h-.671a.847.847,0,0,0-.467.1.372.372,0,0,0-.15.332.361.361,0,0,0,.146.324.828.828,0,0,0,.452.1,1.012,1.012,0,0,0,.531-.1A.41.41,0,0,0,999.157,1196.906Z" transform="translate(-976.422 -1192.944)" fill="#ff7800"/>
    <path id="Path_94985" data-name="Path 94985" d="M1006.732,1195.875v1.7a.22.22,0,0,1-.275.275h-.079a.22.22,0,0,1-.275-.275v-1.739q0-1.08,1.153-1.08a.665.665,0,0,1,.122.006.338.338,0,0,1,.2.074.315.315,0,0,1,.052.213v.086a.268.268,0,0,1-.049.195q-.049.043-.207.019a.653.653,0,0,0-.122-.006.551.551,0,0,0-.409.122A.6.6,0,0,0,1006.732,1195.875Z" transform="translate(-982.149 -1192.944)" fill="#ff7800"/>
    <path id="Path_94986" data-name="Path 94986" d="M1011.862,1195.421V1191.7a.22.22,0,0,1,.275-.275h.073a.22.22,0,0,1,.275.275v3.722a.22.22,0,0,1-.275.275h-.073a.22.22,0,0,1-.275-.275Zm1.074-1.861.562-.634a.81.81,0,0,1,.247-.2.79.79,0,0,1,.321-.052h.1c.138,0,.214.016.229.049s-.023.1-.113.208l-.848.952a.339.339,0,0,0-.122.22.325.325,0,0,0,.116.213l.977,1.129c.09.105.127.174.113.207s-.091.049-.229.049h-.1a.615.615,0,0,1-.568-.256l-.683-.8a.858.858,0,0,1-.244-.561.6.6,0,0,1,.049-.253A1.1,1.1,0,0,1,1012.936,1193.56Z" transform="translate(-985.869 -1190.794)" fill="#ff7800"/>
    <path id="Path_94987" data-name="Path 94987" d="M1024.467,1192.616v-.054a.22.22,0,0,1,.275-.275h2.545a.22.22,0,0,1,.275.275v.054a.22.22,0,0,1-.275.275h-.946v3.082a.223.223,0,0,1-.281.281h-.085a.224.224,0,0,1-.281-.281v-3.082h-.952a.22.22,0,0,1-.275-.275Z" transform="translate(-994.014 -1191.352)" fill="#ff7800"/>
    <path id="Path_94988" data-name="Path 94988" d="M1037.116,1196.015c0,.016,0,.106-.012.268a.25.25,0,0,1-.312.281h-1.7v.134a.543.543,0,0,0,.2.479,1.191,1.191,0,0,0,.668.143,3.3,3.3,0,0,0,.793-.1c.1-.025.164-.021.2.009a.279.279,0,0,1,.052.2v.079a.324.324,0,0,1-.046.2.444.444,0,0,1-.2.095,2.94,2.94,0,0,1-.793.1,1.712,1.712,0,0,1-1.138-.314,1.241,1.241,0,0,1-.363-.991v-.531a1.184,1.184,0,0,1,1.355-1.324,1.329,1.329,0,0,1,.964.32A1.259,1.259,0,0,1,1037.116,1196.015Zm-2.02-.116v.152h1.428v-.152q0-.6-.72-.6T1035.1,1195.9Z" transform="translate(-1000.476 -1192.944)" fill="#ff7800"/>
    <path id="Path_94989" data-name="Path 94989" d="M1043.4,1197.51v-.079a.291.291,0,0,1,.049-.2q.049-.046.2-.01a3.379,3.379,0,0,0,.891.116,1.165,1.165,0,0,0,.439-.058.206.206,0,0,0,.128-.2.246.246,0,0,0-.079-.189,1.261,1.261,0,0,0-.311-.177l-.659-.293a1.159,1.159,0,0,1-.467-.329.818.818,0,0,1-.137-.5.721.721,0,0,1,.28-.629,1.539,1.539,0,0,1,.885-.2,2.628,2.628,0,0,1,.708.092.46.46,0,0,1,.211.1.326.326,0,0,1,.046.2v.073a.284.284,0,0,1-.052.2c-.035.03-.1.031-.2,0a2.566,2.566,0,0,0-.727-.1,1.055,1.055,0,0,0-.415.058.2.2,0,0,0-.122.192.239.239,0,0,0,.061.174.736.736,0,0,0,.225.138l.708.305a1.2,1.2,0,0,1,.5.341.836.836,0,0,1,.149.519.736.736,0,0,1-.3.647,1.659,1.659,0,0,1-.937.207,3.347,3.347,0,0,1-.836-.1.412.412,0,0,1-.2-.1A.325.325,0,0,1,1043.4,1197.51Z" transform="translate(-1006.247 -1192.944)" fill="#ff7800"/>
    <path id="Path_94990" data-name="Path 94990" d="M1050.934,1193.866v-.061a.275.275,0,0,1,.043-.177.3.3,0,0,1,.165-.073l.323-.061.074-.574a.2.2,0,0,1,.25-.219h.079a.261.261,0,0,1,.177.042.258.258,0,0,1,.042.177v.574h.855a.309.309,0,0,1,.2.048.293.293,0,0,1,.052.208v.074a.291.291,0,0,1-.052.207.306.306,0,0,1-.2.049h-.855v1.385q0,.531.476.531a2.069,2.069,0,0,0,.494-.054c.1-.021.169-.016.2.012a.283.283,0,0,1,.049.2v.073a.353.353,0,0,1-.049.214.346.346,0,0,1-.2.092,2.951,2.951,0,0,1-.494.048.982.982,0,0,1-1.1-1.123v-1.379h-.317a.171.171,0,0,1-.213-.214Z" transform="translate(-1011.115 -1191.619)" fill="#ff7800"/>
  </g>
</svg>
