<svg id="Icon" xmlns="http://www.w3.org/2000/svg" width="32" height="32" viewBox="0 0 32 32">
  <rect id="Bounding_Box" data-name="Bounding Box" width="32" height="32" fill="none"/>
  <path id="Icon-2" data-name="Icon" d="M7.834,0A7.827,7.827,0,0,0,0,7.794v8.412A7.814,7.814,0,0,0,7.834,24H19.166A7.838,7.838,0,0,0,27,16.206V14.258a.953.953,0,0,0-.955-.95l-.013.023a.954.954,0,0,0-.955.95v1.925a5.957,5.957,0,0,1-5.911,5.882H7.834a5.957,5.957,0,0,1-5.911-5.882V7.794A5.956,5.956,0,0,1,7.834,1.913H19.166a5.956,5.956,0,0,1,5.911,5.881.968.968,0,0,0,1.922,0A7.839,7.839,0,0,0,19.166,0Zm3.033,10.694L5.3,15.125a.959.959,0,0,0-.143,1.342A.947.947,0,0,0,6.5,16.61l5.612-4.42a1.943,1.943,0,0,1,2.389,0l5.553,4.42h.012a.97.97,0,0,0,1.349-.143.946.946,0,0,0-.155-1.342L15.7,10.694a3.871,3.871,0,0,0-4.837,0Z" transform="translate(29 28) rotate(180)" fill="#30b8af"/>
</svg>
