<svg id="Component_10_1" data-name="Component 10 – 1" xmlns="http://www.w3.org/2000/svg" width="67.722" height="84.294" viewBox="0 0 67.722 84.294">
  <g id="Page-1" transform="translate(0 16.572)">
    <g id="_002---Maths" data-name="002---Maths">
      <path id="Shape" d="M9,42.129v1.129h3.386V42.129A1.129,1.129,0,0,1,13.515,41H10.129A1.129,1.129,0,0,0,9,42.129Z" transform="translate(1.158 5.276)" fill="#cfd8dc"/>
      <path id="Shape-2" data-name="Shape" d="M56.386,5H53a3.386,3.386,0,0,1,3.386,3.386V44.5A3.386,3.386,0,0,1,53,47.89h3.386A3.386,3.386,0,0,0,59.772,44.5V8.386A3.386,3.386,0,0,0,56.386,5Z" transform="translate(6.821 0.643)" fill="#cfd8dc"/>
      <path id="Shape-3" data-name="Shape" d="M31.322,1H29.064a2.219,2.219,0,0,0-.564.08,2.257,2.257,0,0,1,1.693,2.177V5.515h3.386V3.257A2.257,2.257,0,0,0,31.322,1Z" transform="translate(3.668 0.129)" fill="#cfd8dc"/>
      <path id="Shape-4" data-name="Shape" d="M47.386,41H44a1.129,1.129,0,0,1,1.129,1.129v3.386A1.129,1.129,0,0,1,44,46.643h3.386a1.129,1.129,0,0,0,1.129-1.129V42.129A1.129,1.129,0,0,0,47.386,41Z" transform="translate(5.663 5.276)" fill="#cfd8dc"/>
      <path id="Shape-5" data-name="Shape" d="M33.772,46V57.287a3.386,3.386,0,1,1-6.772,0V46Z" transform="translate(3.475 5.92)" fill="#4de0b2"/>
      <path id="Shape-6" data-name="Shape" d="M30.193,46V57.287A3.368,3.368,0,0,1,28.5,60.2a3.342,3.342,0,0,0,1.693.47,3.386,3.386,0,0,0,3.386-3.386V46Z" transform="translate(3.668 5.92)" fill="#37c2b0"/>
      <path id="Shape-7" data-name="Shape" d="M25.815,46,18.321,58.98a3.388,3.388,0,1,1-5.869-3.386L17.994,46Z" transform="translate(1.544 5.92)" fill="#4de0b2"/>
      <path id="Shape-8" data-name="Shape" d="M22.238,46,14.744,58.98a3.366,3.366,0,0,1-1.262,1.235l.009.007A3.4,3.4,0,0,0,18.13,58.98L25.624,46Z" transform="translate(1.735 5.92)" fill="#37c2b0"/>
      <path id="Shape-9" data-name="Shape" d="M47.893,60.222a3.4,3.4,0,0,1-4.639-1.242L35.76,46h7.822l5.542,9.594A3.386,3.386,0,0,1,47.893,60.222Z" transform="translate(4.602 5.92)" fill="#4de0b2"/>
      <path id="Shape-10" data-name="Shape" d="M48.618,55.594,43.076,46H39.69l5.542,9.594a3.386,3.386,0,0,1-1.221,4.621,3.374,3.374,0,0,0,4.607-4.621Z" transform="translate(5.108 5.92)" fill="#37c2b0"/>
      <g id="Group_64158" data-name="Group 64158">
        <path id="Shape-11" data-name="Shape" d="M63.207,4.515H38.376V3.386A3.386,3.386,0,0,0,34.99,0H32.732a3.386,3.386,0,0,0-3.386,3.386V4.515H4.515A4.515,4.515,0,0,0,0,9.03V45.148a4.515,4.515,0,0,0,4.515,4.515h7.9v1.129a2.257,2.257,0,0,0,2.257,2.257h2.91l-4.563,7.9a4.516,4.516,0,0,0,7.823,4.515l7.169-12.416h1.334V63.207a4.515,4.515,0,0,0,9.03,0V53.049H39.71L46.88,65.464A4.516,4.516,0,1,0,54.7,60.95l-4.564-7.9h2.91a2.257,2.257,0,0,0,2.257-2.257V49.663h7.9a4.515,4.515,0,0,0,4.515-4.515V9.03a4.515,4.515,0,0,0-4.515-4.515ZM31.6,3.386a1.129,1.129,0,0,1,1.129-1.129H34.99a1.129,1.129,0,0,1,1.129,1.129V4.515H31.6ZM18.889,64.336a2.281,2.281,0,0,1-3.1.832,2.257,2.257,0,0,1-.819-3.089l5.216-9.03H25.4Zm17.23-1.129a2.257,2.257,0,0,1-4.515,0V53.049h4.515ZM52.75,62.078a2.257,2.257,0,0,1-.815,3.08,2.281,2.281,0,0,1-3.1-.823L42.317,53.049h5.216ZM14.673,50.791V47.405H53.049v3.386Zm50.791-5.643a2.257,2.257,0,0,1-2.257,2.257h-7.9a2.257,2.257,0,0,0-2.257-2.257H14.673a2.257,2.257,0,0,0-2.257,2.257h-7.9a2.257,2.257,0,0,1-2.257-2.257V9.03A2.257,2.257,0,0,1,4.515,6.772H63.207A2.257,2.257,0,0,1,65.464,9.03Z" fill="#042423"/>
        <path id="Shape-12" data-name="Shape" d="M33.9,28.416H31.643V17.129a1.129,1.129,0,0,0-1.927-.8l-3.386,3.386a1.129,1.129,0,0,0,1.6,1.6l1.459-1.459v8.562H27.129a1.129,1.129,0,1,0,0,2.257H33.9a1.129,1.129,0,1,0,0-2.257Z" transform="translate(3.346 2.059)"/>
        <path id="Shape-13" data-name="Shape" d="M16.9,28.416H14.643V17.129a1.129,1.129,0,0,0-1.927-.8L9.331,19.717a1.129,1.129,0,0,0,1.6,1.6l1.459-1.459v8.562H10.129a1.129,1.129,0,0,0,0,2.257H16.9a1.129,1.129,0,1,0,0-2.257Z" transform="translate(1.158 2.059)"/>
        <path id="Shape-14" data-name="Shape" d="M23.643,22.257H22.515V21.129a1.129,1.129,0,1,0-2.257,0v1.129H19.129a1.129,1.129,0,0,0,0,2.257h1.129v1.129a1.129,1.129,0,1,0,2.257,0V24.515h1.129a1.129,1.129,0,0,0,0-2.257Z" transform="translate(2.317 2.574)"/>
        <path id="Shape-15" data-name="Shape" d="M39.643,20H35.129a1.129,1.129,0,1,0,0,2.257h4.515a1.129,1.129,0,0,0,0-2.257Z" transform="translate(4.376 2.574)"/>
        <path id="Shape-16" data-name="Shape" d="M39.643,24H35.129a1.129,1.129,0,1,0,0,2.257h4.515a1.129,1.129,0,0,0,0-2.257Z" transform="translate(4.376 3.089)"/>
        <path id="Shape-17" data-name="Shape" d="M47.8,26.594c1.886-1.091,4.233-2.449,4.233-6.079a4.515,4.515,0,1,0-9.03,0,1.129,1.129,0,1,0,2.257,0,2.257,2.257,0,1,1,4.515,0c0,2.216-1.179,3.01-3.105,4.125-1.635.945-3.667,2.122-3.667,4.9a1.129,1.129,0,0,0,1.129,1.129H50.9a1.129,1.129,0,0,0,0-2.257H45.517A5.644,5.644,0,0,1,47.8,26.594Z" transform="translate(5.534 2.059)"/>
      </g>
    </g>
  </g>
  <path id="Path_96866" data-name="Path 96866" d="M123.914,0a3.914,3.914,0,1,0,3.914,3.914A3.918,3.918,0,0,0,123.914,0Zm0,0" transform="translate(-98.876)" fill="#00e9cc"/>
  <path id="Path_96867" data-name="Path 96867" d="M251.914,24.5a3.914,3.914,0,1,0,3.914,3.914A3.918,3.918,0,0,0,251.914,24.5Zm0,0" transform="translate(-205.559 -20.42)" fill="#00e9cc"/>
  <path id="Path_96868" data-name="Path 96868" d="M319.5,72.5h2.665V75H319.5Zm0,0" transform="translate(-265.151 -60.426)" fill="#042423"/>
  <path id="Path_96869" data-name="Path 96869" d="M191.5,24.5h2.665V27H191.5Zm0,0" transform="translate(-158.468 -20.42)" fill="#042423"/>
  <path id="Path_96870" data-name="Path 96870" d="M111.5,56.5h2.665V59H111.5Zm0,0" transform="translate(-91.792 -47.09)" fill="#042423"/>
</svg>
