<svg xmlns="http://www.w3.org/2000/svg" xmlns:xlink="http://www.w3.org/1999/xlink" width="772.157" height="459.338" viewBox="0 0 772.157 459.338">
  <defs>
    <linearGradient id="linear-gradient" x1="0.5" y1="-0.041" x2="0.5" y2="1.152" gradientUnits="objectBoundingBox">
      <stop offset="0" stop-color="#ffecbf"/>
      <stop offset="0.338" stop-color="#f9d6a9"/>
      <stop offset="0.944" stop-color="#eda779"/>
    </linearGradient>
    <linearGradient id="linear-gradient-2" x1="-0.014" y1="1.084" x2="0.93" y2="-0.032" gradientUnits="objectBoundingBox">
      <stop offset="0" stop-color="#26a6a0"/>
      <stop offset="1" stop-color="#387592"/>
    </linearGradient>
    <linearGradient id="linear-gradient-3" x1="-0.469" y1="-0.586" x2="0.719" y2="0.889" gradientUnits="objectBoundingBox">
      <stop offset="0" stop-color="#306a61"/>
      <stop offset="1"/>
    </linearGradient>
    <linearGradient id="linear-gradient-4" y1="0.5" x2="1" y2="0.5" gradientUnits="objectBoundingBox">
      <stop offset="0" stop-color="#6ca091"/>
      <stop offset="0.15" stop-color="#699b8d"/>
      <stop offset="0.309" stop-color="#608e81"/>
      <stop offset="0.472" stop-color="#52796e"/>
      <stop offset="0.638" stop-color="#3e5b53"/>
      <stop offset="0.807" stop-color="#243530"/>
      <stop offset="0.975" stop-color="#040706"/>
      <stop offset="1"/>
    </linearGradient>
    <linearGradient id="linear-gradient-5" x1="-0.165" y1="-0.267" x2="1.024" y2="1.278" gradientUnits="objectBoundingBox">
      <stop offset="0" stop-color="#7c8a89"/>
      <stop offset="0.862" stop-color="#020303"/>
      <stop offset="0.883"/>
    </linearGradient>
    <linearGradient id="linear-gradient-6" x1="0.321" y1="-0.36" x2="0.573" y2="1.281" gradientUnits="objectBoundingBox">
      <stop offset="0" stop-color="#f8daa1"/>
      <stop offset="1" stop-color="#f5d151"/>
    </linearGradient>
    <linearGradient id="linear-gradient-7" x1="0.202" y1="0.201" x2="0.945" y2="0.947" gradientUnits="objectBoundingBox">
      <stop offset="0" stop-color="#f8caa1"/>
      <stop offset="1" stop-color="#f5b851"/>
    </linearGradient>
  </defs>
  <g id="Group_64184" data-name="Group 64184" transform="translate(-253.921 -182.158)">
    <g id="Group_63299" data-name="Group 63299">
      <g id="Group_63297" data-name="Group 63297" style="mix-blend-mode: multiply;isolation: isolate">
        <path id="Path_95257" data-name="Path 95257" d="M364.124,209.328l5.572,36.6,542.732,6.914,8.378-52.469-19.669-3.36Z" fill="#b9eac9"/>
      </g>
      <g id="Group_63298" data-name="Group 63298">
        <path id="Path_95258" data-name="Path 95258" d="M894.946,220.74l-1.28,10.653-518.336-2.339-.478-8.314Z" fill="#e48f5d"/>
        <path id="Path_95259" data-name="Path 95259" d="M896.431,189.123l3.193-.017a50.559,50.559,0,0,1-1.588,31.634H372.171c-3.107-10.192-3.927-19.906-1.4-28.869l2.885-.017Z" fill="url(#linear-gradient)"/>
        <path id="Path_95260" data-name="Path 95260" d="M908.057,182.158c3.158,17.43,2.117,33-3.705,46.281H898.1c8.3-13.725,8.929-31.583,2.544-46.281Z" fill="#2c8182"/>
        <path id="Path_95261" data-name="Path 95261" d="M371.4,226.408H365.82c-6.385-13.163-8.519-27.093-4.8-42.082h6.829C361.672,197.249,363.4,214.543,371.4,226.408Z" fill="#2c8182"/>
        <path id="Path_95262" data-name="Path 95262" d="M899.846,231.393l-1.093,5.822-526.616-2.988v-5.173h3.192l518.336,2.339Z" fill="#2c8182"/>
        <path id="Path_95263" data-name="Path 95263" d="M372.171,220.74h2.68a35.173,35.173,0,0,1-3.448,5.668c-8.007-11.865-9.731-29.159-3.551-42.082a32.8,32.8,0,0,1,5.8,7.528l-2.885.017C368.244,200.834,369.064,210.548,372.171,220.74Z" fill="#183b4f"/>
        <path id="Path_95264" data-name="Path 95264" d="M900.648,182.158c6.385,14.7,5.753,32.556-2.544,46.281-1.109-2.373-2.612-5.053-3.158-7.7h3.09a50.559,50.559,0,0,0,1.588-31.634l-3.193.017A19.712,19.712,0,0,1,900.648,182.158Z" fill="#183b4f"/>
        <path id="Path_95265" data-name="Path 95265" d="M369.7,209.49c-.1-.915,530.837,2.349,530.837,2.349l-1.492,5.934-527.676.115Z" fill="#eda779"/>
      </g>
    </g>
    <g id="Group_63345" data-name="Group 63345">
      <g id="Group_63300" data-name="Group 63300">
        <path id="Path_95266" data-name="Path 95266" d="M282.623,620.077l6,10.281L1006.587,641.5l19.491-371.835Z" fill="#bdf1f2" style="mix-blend-mode: multiply;isolation: isolate"/>
        <path id="Path_95267" data-name="Path 95267" d="M253.921,261.736l765.518,7.925L991.166,607.226,275.34,609.367Z" fill="#feefe7"/>
        <path id="Path_95268" data-name="Path 95268" d="M264.631,272.017l741.957,7.068-26.56,321.286-693.692,1.714Z" fill="url(#linear-gradient-2)"/>
        <path id="Path_95269" data-name="Path 95269" d="M1019.439,269.661,991.166,607.226,275.34,609.367l2.57,1.5,716.468-1.5,31.7-339.706Z" fill="#4cb7c5"/>
        <path id="Path_95270" data-name="Path 95270" d="M286.335,602.085l-21.7-330.068,741.957,7.068-.413,5-736.831-6.5,22.276,324.5Z" fill="#286f90"/>
        <path id="Path_95271" data-name="Path 95271" d="M275,367.84l-4.7-92.374,359.84,83.963.287,61.436Zm.576,11.331,7.8,153.443L631,542.692l-.483-103.367Z" fill="url(#linear-gradient-3)" style="mix-blend-mode: screen;isolation: isolate"/>
        <path id="Path_95272" data-name="Path 95272" d="M261.2,607.8l6.854,12.28H998.02l2.784-15.033Z" fill="#4cb7c5"/>
        <path id="Path_95273" data-name="Path 95273" d="M264.631,609.367l3,6,728.962-2.8,1.714-5.621Z" fill="url(#linear-gradient-4)" style="mix-blend-mode: screen;isolation: isolate"/>
      </g>
      <path id="Path_95274" data-name="Path 95274" d="M668.3,606.259l-3.923-18.243,82.817,2.294-2.18,15.664Z" fill="#b1652d"/>
      <g id="Group_63301" data-name="Group 63301" style="mix-blend-mode: screen;isolation: isolate">
        <path id="Path_95275" data-name="Path 95275" d="M665.665,589l2.288,10.625,77.132-.49.72-7.666Z" fill="url(#linear-gradient-5)"/>
      </g>
      <g id="Group_63303" data-name="Group 63303">
        <path id="Path_95276" data-name="Path 95276" d="M403.182,596.369c0-.382.005-.767,0-1.148-.047-1.529-.137-3.053-.282-4.575a68.54,68.54,0,0,0-1.5-9.129,58.689,58.689,0,0,0-7.393-17.913,49,49,0,0,0-6.447-8.139,45.789,45.789,0,0,0-8.4-6.693,46.621,46.621,0,0,0-20.012-6.559,43.9,43.9,0,0,0-5.065-.256c-.844.006-1.681,0-2.53.025l-2.584.2a39.428,39.428,0,0,0-10.457,2.309,35.384,35.384,0,0,0-17.373,13.462,43.679,43.679,0,0,0-6.927,18.96,59.817,59.817,0,0,0-.428,9.436q.109,2.332.358,4.643c.075.553.161,1.107.246,1.661l-16.265-.681,5.73,16.867,106.409-.435,2.006-11.655ZM328.5,591.436c.2-1.2.447-2.4.722-3.587a54.039,54.039,0,0,1,1.956-6.824,32.262,32.262,0,0,1,6-10.851,19.094,19.094,0,0,1,3.957-3.351c.7-.46,1.455-.819,2.193-1.208a24.317,24.317,0,0,1,2.438-.863,25.275,25.275,0,0,1,2.631-.655l1.431-.177.713-.108.754-.042,1.506-.105,1.577.018c1.058-.024,2.1.082,3.145.147a29.679,29.679,0,0,1,11.295,3.185,31.083,31.083,0,0,1,4.837,3.28,33.612,33.612,0,0,1,4.357,4.468,52.92,52.92,0,0,1,7.143,11.829c1.042,2.2,1.894,4.527,2.747,6.882.277.756.525,1.521.766,2.288l-60.481-2.531Z" fill="#93c4bf" style="mix-blend-mode: multiply;isolation: isolate"/>
        <path id="Path_95277" data-name="Path 95277" d="M397.079,596.632c.045-.384.1-.771.137-1.154.136-1.534.227-3.066.263-4.594a65.913,65.913,0,0,0-.421-9.169,52.665,52.665,0,0,0-5.31-17.994,41.558,41.558,0,0,0-5.527-8.178,38.788,38.788,0,0,0-7.674-6.727,42.483,42.483,0,0,0-19.394-6.6,43.627,43.627,0,0,0-5.077-.259c-.851.005-1.695,0-2.554.023l-2.63.2a48.324,48.324,0,0,0-5.354.778,51.033,51.033,0,0,0-5.466,1.535A42.066,42.066,0,0,0,318.94,558a49.6,49.6,0,0,0-9.255,19.037,62.275,62.275,0,0,0-1.561,9.476c-.113,1.563-.18,3.114-.2,4.664.009.555.03,1.112.05,1.668l-16.32-.693,3.709,16.721,107.491-.456,3.329-11.4Zm-74.718-5c.348-1.21.738-2.415,1.157-3.6a60.53,60.53,0,0,1,2.789-6.852,37.875,37.875,0,0,1,7.35-10.894,22.854,22.854,0,0,1,4.391-3.363c.756-.462,1.566-.822,2.356-1.212.849-.294,1.659-.646,2.562-.865a27.884,27.884,0,0,1,2.732-.657l1.464-.176.731-.108.766-.042,1.531-.1,1.589.019c1.069-.024,2.106.083,3.153.149a27.321,27.321,0,0,1,11.008,3.206,26.561,26.561,0,0,1,4.486,3.3,28.382,28.382,0,0,1,3.857,4.49,45.792,45.792,0,0,1,5.788,11.883,71.278,71.278,0,0,1,1.945,6.914c.189.759.347,1.528.5,2.3l-60.686-2.578Z" fill="url(#linear-gradient-6)"/>
        <g id="Group_63302" data-name="Group 63302">
          <path id="Path_95278" data-name="Path 95278" d="M387.132,568.323l.637,1.556,5.61-2.612q-.5-1.2-1.068-2.383Z" fill="#f0b53e"/>
          <path id="Path_95279" data-name="Path 95279" d="M387.792,557.451c-.5-.652-1.019-1.29-1.571-1.908-.03-.034-.062-.065-.092-.1l-4.21,4.534.982,1.363Z" fill="#f0b53e"/>
          <path id="Path_95280" data-name="Path 95280" d="M390.493,578.713l.277,1.661,5.911-1.277c-.139-.852-.3-1.7-.476-2.554Z" fill="#f0b53e"/>
          <path id="Path_95281" data-name="Path 95281" d="M312.376,589.21l.524-1.6-4.753-1.309c-.006.072-.017.144-.023.216q-.078,1.09-.125,2.175Z" fill="#f0b53e"/>
          <path id="Path_95282" data-name="Path 95282" d="M391.616,591.148l-.058,1.685,5.845-.077c.032-.624.062-1.249.076-1.872.008-.235,0-.47.007-.7Z" fill="#f0b53e"/>
          <path id="Path_95283" data-name="Path 95283" d="M378.109,548.549l-2.852,5.081,1.274,1.094,3.68-4.723c-.545-.406-1.093-.809-1.664-1.185C378.4,548.722,378.253,548.641,378.109,548.549Z" fill="#f0b53e"/>
          <path id="Path_95284" data-name="Path 95284" d="M350.035,542.093l.738,4.709,1.677.071-.025-4.9c-.3,0-.6,0-.9.008Z" fill="#f0b53e"/>
          <path id="Path_95285" data-name="Path 95285" d="M367.518,549.261l1.489.775,2.284-4.951c-.766-.3-1.539-.585-2.32-.842Z" fill="#f0b53e"/>
          <path id="Path_95286" data-name="Path 95286" d="M315.212,576.656l.822-1.469-5.043-2.517q-.406,1.194-.754,2.379Z" fill="#f0b53e"/>
          <path id="Path_95287" data-name="Path 95287" d="M322.073,554.536l4.135,3.86,1.366-.978-3.652-4.618Q322.967,553.646,322.073,554.536Z" fill="#f0b53e"/>
          <path id="Path_95288" data-name="Path 95288" d="M321.039,565.172l-4.6-3.7q-.705,1.07-1.337,2.154l4.823,2.8Z" fill="#f0b53e"/>
          <path id="Path_95289" data-name="Path 95289" d="M333.692,552.476l1.549-.648-2.435-5.127c-.741.378-1.468.792-2.19,1.218Z" fill="#f0b53e"/>
          <path id="Path_95290" data-name="Path 95290" d="M359.354,542.241l-.282,4.645,1.623.429,1.027-4.795C360.932,542.4,360.143,542.313,359.354,542.241Z" fill="#f0b53e"/>
          <path id="Path_95291" data-name="Path 95291" d="M340.133,543.832l1.874,4.8,1.653-.291-1.156-5.122C341.713,543.411,340.924,543.611,340.133,543.832Z" fill="#f0b53e"/>
        </g>
      </g>
      <g id="Group_63304" data-name="Group 63304">
        <path id="Path_95292" data-name="Path 95292" d="M500.126,554.376,481.1,550.467l2.965,3.044-89.2-.437-.5-92.956,3.624,2.785-4.151-18.731-3.654,19.082,3-3.005.784,92.822L380.06,553l-.006.862,13.913.11.087,10.272.862-.006-.056-10.259,89.314.707-2.833,3.587Z" fill="#feefe7"/>
        <path id="Path_95293" data-name="Path 95293" d="M410.351,500.225a90.91,90.91,0,0,1,4.051-10.4c.4-.839.778-1.689,1.195-2.519l1.3-2.463a39.374,39.374,0,0,1,2.9-4.68,19.881,19.881,0,0,1,7.947-6.934,10.852,10.852,0,0,1,4.984-.893,12.126,12.126,0,0,1,4.882,1.425,18.5,18.5,0,0,1,7.3,7.46,33.958,33.958,0,0,1,3.3,10.378c.652,3.65,1.026,7.4,1.658,11.153a95.174,95.174,0,0,0,2.483,11.122,66.479,66.479,0,0,0,4.07,10.678,45.028,45.028,0,0,0,6.2,9.653,24.5,24.5,0,0,0,9.257,6.886,17.343,17.343,0,0,0,11.511.742l-.38-1.261a15.969,15.969,0,0,1-10.582-.821,23,23,0,0,1-8.606-6.573,43.391,43.391,0,0,1-5.854-9.368,64.812,64.812,0,0,1-3.84-10.44,93.417,93.417,0,0,1-2.305-10.929c-.579-3.682-.906-7.43-1.533-11.2a37.772,37.772,0,0,0-3.357-11.1,20.368,20.368,0,0,0-8.185-8.529,14.516,14.516,0,0,0-5.891-1.639,13.173,13.173,0,0,0-6.014,1.139,22.052,22.052,0,0,0-8.806,7.783,41.434,41.434,0,0,0-2.987,4.943l-1.307,2.543c-.417.856-.8,1.73-1.2,2.594a90.626,90.626,0,0,0-3.994,10.676c-4.491,14.545-5.941,29.684-7.391,44.641l1.31.132C404.044,529.486,405.733,514.453,410.351,500.225Z" fill="#feefe7"/>
        <path id="Path_95294" data-name="Path 95294" d="M500.04,570.193l-2.313-6.02c.889-1.945,1.7-3.924,2.41-5.937l-1.144-.4c-.563,1.6-1.205,3.172-1.885,4.729l-1.646-4.286-1.133.435,2.087,5.431a69.23,69.23,0,0,1-3.291,6.22l1.042.621c1.026-1.72,1.963-3.495,2.841-5.3l1.9,4.944Z" fill="#feefe7"/>
        <path id="Path_95295" data-name="Path 95295" d="M385.2,458.572l1.172.312,4.3-16.161-1.172-.312-1.874,7.036-3.771-6.38-1.044.617,4.377,7.406Z" fill="#feefe7"/>
      </g>
      <g id="Group_63332" data-name="Group 63332">
        <g id="Group_63312" data-name="Group 63312">
          <g id="Group_63305" data-name="Group 63305">
            <path id="Path_95296" data-name="Path 95296" d="M862.534,450.486a.944.944,0,0,1-.813-.464l-5.173-8.761a.943.943,0,1,1,1.625-.959l5.173,8.761a.944.944,0,0,1-.812,1.423Z" fill="#feefe7"/>
          </g>
          <g id="Group_63306" data-name="Group 63306">
            <path id="Path_95297" data-name="Path 95297" d="M857.866,460.364a.932.932,0,0,1-.386-.083.943.943,0,0,1-.474-1.247l8.585-19.144a.944.944,0,1,1,1.722.772l-8.586,19.144A.944.944,0,0,1,857.866,460.364Z" fill="#feefe7"/>
          </g>
          <g id="Group_63307" data-name="Group 63307">
            <path id="Path_95298" data-name="Path 95298" d="M877.461,448.93h-7.228a.943.943,0,0,1,0-1.887h7.228a.943.943,0,0,1,0,1.887Z" fill="#feefe7"/>
          </g>
          <g id="Group_63308" data-name="Group 63308">
            <path id="Path_95299" data-name="Path 95299" d="M878.508,452.222h-8.515a.943.943,0,1,1,0-1.887h8.515a.943.943,0,0,1,0,1.887Z" fill="#feefe7"/>
          </g>
          <g id="Group_63309" data-name="Group 63309">
            <path id="Path_95300" data-name="Path 95300" d="M889.513,460.364a.943.943,0,0,1-.825-.484l-9.339-16.723a.943.943,0,1,1,1.647-.92l9.34,16.723a.944.944,0,0,1-.364,1.284A.932.932,0,0,1,889.513,460.364Z" fill="#feefe7"/>
          </g>
          <g id="Group_63310" data-name="Group 63310">
            <path id="Path_95301" data-name="Path 95301" d="M880.056,458.939a.942.942,0,0,1-.84-1.371l8.409-16.512a.943.943,0,1,1,1.681.856L880.9,458.424A.942.942,0,0,1,880.056,458.939Z" fill="#feefe7"/>
          </g>
          <g id="Group_63311" data-name="Group 63311">
            <path id="Path_95302" data-name="Path 95302" d="M892.026,445.877a.944.944,0,0,1-.942-.878,4.953,4.953,0,0,1,2.288-4.489c.224-.14.472-.267.728-.4.664-.337,1.073-.567,1.162-.927a1.986,1.986,0,0,0-.093-.819c-.228-.921-.816-1.828-1.258-1.939-.218-.055-.506.189-.7.405a2.8,2.8,0,0,0-.586,1.591.934.934,0,0,1-1.043.832.944.944,0,0,1-.833-1.042,4.607,4.607,0,0,1,1.063-2.648,2.517,2.517,0,0,1,2.561-.967c1.333.335,2.281,1.906,2.63,3.314a3.533,3.533,0,0,1,.093,1.726,3.5,3.5,0,0,1-2.142,2.157c-.2.1-.4.2-.58.313a3.077,3.077,0,0,0-1.281,1.705,24.4,24.4,0,0,1,4.909-.13.944.944,0,0,1-.14,1.882,22.5,22.5,0,0,0-5.667.3A.942.942,0,0,1,892.026,445.877Z" fill="#feefe7"/>
          </g>
        </g>
        <g id="Group_63313" data-name="Group 63313">
          <path id="Path_95303" data-name="Path 95303" d="M932.7,460.169a.944.944,0,0,1-.9-.649,7.271,7.271,0,0,1-.357-2.384,22.462,22.462,0,0,0-2.6-8.273c-1.629-2.667-4.969-5.2-8.463-4.444a5.348,5.348,0,0,0-3.687,3.5,3.714,3.714,0,0,0,.492,3.669.943.943,0,1,1-1.444,1.213,5.546,5.546,0,0,1-.832-5.494,7.19,7.19,0,0,1,5.073-4.73c4.388-.949,8.505,2.086,10.472,5.3a19.027,19.027,0,0,1,2.123,5.262,7.609,7.609,0,0,1,3.247-3.03,7.959,7.959,0,0,1,9.844,2.792c.179.278.347.574.514.872.446.792.867,1.54,1.5,1.783,1.265.489,2.646-1.229,3.449-2.843,1.585-3.186,3.592-4.607,5.652-4.006,1.518.444,2.248,1.793,2.892,2.982a4.352,4.352,0,0,0,1.691,2.088c.982.413,2.256-.332,3.119-1.167.274-.267.539-.55.8-.833a8.909,8.909,0,0,1,2.957-2.363c2.093-.886,4.385-.219,6.149.461l.646.254a9.929,9.929,0,0,0,4.321,1.034,3.222,3.222,0,0,0,2.205-1.183,1.672,1.672,0,0,0,.372-1.307.943.943,0,1,1,1.856-.339,3.529,3.529,0,0,1-.73,2.8,5.124,5.124,0,0,1-3.548,1.915,11.434,11.434,0,0,1-5.17-1.16l-.632-.248c-1.432-.553-3.264-1.107-4.734-.485a7.4,7.4,0,0,0-2.313,1.914c-.286.306-.572.612-.868.9-1.677,1.625-3.6,2.2-5.163,1.554a5.793,5.793,0,0,1-2.62-2.93c-.537-.991-1-1.847-1.764-2.07-1.51-.446-2.9,1.976-3.431,3.036-1.545,3.105-3.774,4.545-5.815,3.763a5.155,5.155,0,0,1-2.466-2.619c-.148-.265-.3-.528-.455-.775a5.831,5.831,0,0,0-10.743,3.108c.107.7.2,1.39.295,2.063a.942.942,0,0,1-.721,1.048A.92.92,0,0,1,932.7,460.169Z" fill="#feefe7"/>
        </g>
        <g id="Group_63314" data-name="Group 63314">
          <path id="Path_95304" data-name="Path 95304" d="M923.3,486.687a.932.932,0,0,1-.476-.129.944.944,0,0,1-.338-1.291c2.157-3.684,5.212-7.9,9.723-7.769,2.911.083,5.243,2.024,7.3,3.736.3.248.6.5.892.735,1.292,1.046,4.572,3.323,7.073,1.9a9.313,9.313,0,0,0,2.438-2.509c1.232-1.609,2.645-3.42,4.955-3.266a6.38,6.38,0,0,1,2.982,1.259l.338.217a16.389,16.389,0,0,0,14.9,1.264.944.944,0,1,1,.728,1.741,18.305,18.305,0,0,1-16.639-1.412l-.354-.228a4.857,4.857,0,0,0-2.091-.958c-1.217-.087-2.069.9-3.32,2.53a10.685,10.685,0,0,1-3,3c-2.475,1.4-5.825.65-9.193-2.073-.3-.246-.606-.5-.912-.753-1.912-1.591-3.889-3.235-6.148-3.3-3.515-.075-6.146,3.6-8.04,6.837A.942.942,0,0,1,923.3,486.687Z" fill="#feefe7"/>
        </g>
        <g id="Group_63315" data-name="Group 63315">
          <path id="Path_95305" data-name="Path 95305" d="M904.445,494.62h-49.79a.943.943,0,0,1,0-1.887h49.79a.943.943,0,1,1,0,1.887Z" fill="#feefe7"/>
        </g>
        <g id="Group_63316" data-name="Group 63316">
          <path id="Path_95306" data-name="Path 95306" d="M874.406,514.9a.944.944,0,0,1-.931-.8l-5.465-35.4a.944.944,0,0,1,1.865-.288l5.465,35.4a.944.944,0,0,1-.789,1.076A.89.89,0,0,1,874.406,514.9Z" fill="#feefe7"/>
        </g>
        <g id="Group_63317" data-name="Group 63317">
          <path id="Path_95307" data-name="Path 95307" d="M889.4,512.116a.916.916,0,0,1-.137-.01.943.943,0,0,1-.8-1.069,346.755,346.755,0,0,0,3.268-34.593.96.96,0,0,1,.984-.9.943.943,0,0,1,.9.984,348.43,348.43,0,0,1-3.286,34.781A.945.945,0,0,1,889.4,512.116Z" fill="#feefe7"/>
        </g>
        <g id="Group_63318" data-name="Group 63318">
          <path id="Path_95308" data-name="Path 95308" d="M864.161,490.693a.944.944,0,0,1-.8-.444l-6.078-9.722a.943.943,0,1,1,1.6-1l6.077,9.722a.944.944,0,0,1-.8,1.444Z" fill="#feefe7"/>
        </g>
        <g id="Group_63319" data-name="Group 63319">
          <path id="Path_95309" data-name="Path 95309" d="M857.347,490.191a.942.942,0,0,1-.784-1.466l6.812-10.234a.944.944,0,0,1,1.571,1.046l-6.813,10.234A.942.942,0,0,1,857.347,490.191Z" fill="#feefe7"/>
        </g>
        <g id="Group_63320" data-name="Group 63320">
          <path id="Path_95310" data-name="Path 95310" d="M863.689,506.826a.944.944,0,0,1-.723-.335,48.857,48.857,0,0,0-5.784-5.8.944.944,0,0,1,1.22-1.44,50.821,50.821,0,0,1,6.007,6.02.943.943,0,0,1-.72,1.551Z" fill="#feefe7"/>
        </g>
        <g id="Group_63321" data-name="Group 63321">
          <path id="Path_95311" data-name="Path 95311" d="M859.612,515.628a.944.944,0,0,1-.847-1.356,80.824,80.824,0,0,0,5.433-14.659.944.944,0,0,1,1.825.481,82.785,82.785,0,0,1-5.561,15A.943.943,0,0,1,859.612,515.628Z" fill="#feefe7"/>
        </g>
        <g id="Group_63322" data-name="Group 63322">
          <path id="Path_95312" data-name="Path 95312" d="M871.126,564.683a3.106,3.106,0,0,1-1.009-.165.944.944,0,1,1,.612-1.785,2.006,2.006,0,0,0,2.05-.824,6.374,6.374,0,0,0,1.034-2.843,28.729,28.729,0,0,0-.3-11.357c-.369-1.6-.892-3.224-1.4-4.791a34.753,34.753,0,0,1-2-8.7,18.039,18.039,0,0,1,1.377-7.952.944.944,0,1,1,1.74.732,16.143,16.143,0,0,0-1.234,7.115,32.947,32.947,0,0,0,1.908,8.225c.518,1.606,1.053,3.265,1.44,4.947a30.626,30.626,0,0,1,.315,12.108,8.018,8.018,0,0,1-1.408,3.681A4.088,4.088,0,0,1,871.126,564.683Z" fill="#feefe7"/>
        </g>
        <g id="Group_63323" data-name="Group 63323">
          <path id="Path_95313" data-name="Path 95313" d="M890.141,559.479a.944.944,0,0,1-.876-.593,59.363,59.363,0,0,1-1.873-5.7c-.474-1.638-.963-3.326-1.638-5.085l-6.581-1.729a.943.943,0,1,1,.479-1.824l7.045,1.851a.941.941,0,0,1,.637.562c.377.943.7,1.858.984,2.753-.956-8.489-2.237-16.978-3.827-25.336a.944.944,0,0,1,.865-1.118,213.887,213.887,0,0,0,34.617-5.147.943.943,0,0,1,1.15,1.037l-1.019,8.048a.943.943,0,1,1-1.872-.237l.85-6.707a215.791,215.791,0,0,1-32.54,4.817c2.059,11.013,3.585,22.24,4.539,33.39a.942.942,0,0,1-.722,1A.958.958,0,0,1,890.141,559.479Z" fill="#feefe7"/>
        </g>
        <g id="Group_63324" data-name="Group 63324">
          <path id="Path_95314" data-name="Path 95314" d="M923.081,548.581H894a.944.944,0,1,1,0-1.887h29.079a.944.944,0,1,1,0,1.887Z" fill="#feefe7"/>
        </g>
        <g id="Group_63325" data-name="Group 63325">
          <path id="Path_95315" data-name="Path 95315" d="M900.548,543.628a21.964,21.964,0,0,1-4.991-.575.943.943,0,1,1,.428-1.837,20.137,20.137,0,0,0,5.485.5,3.2,3.2,0,0,0,2.038-.582,2.014,2.014,0,0,0,.37-1.878,3.2,3.2,0,0,0-2.286-2.349,2.8,2.8,0,0,0-2.926,1.108.944.944,0,0,1-1.731-.516l-.021-5.439a.943.943,0,0,1,.934-.947,29.015,29.015,0,0,1,3.309.188,28.024,28.024,0,0,0,3.115.18h.009a.944.944,0,0,1,.009,1.887,29.953,29.953,0,0,1-3.309-.188c-.738-.069-1.447-.135-2.177-.164l.009,2.443a4.744,4.744,0,0,1,3.219-.388,5.137,5.137,0,0,1,3.681,3.746,3.863,3.863,0,0,1-.886,3.667,4.865,4.865,0,0,1-3.271,1.117C901.22,543.62,900.883,543.628,900.548,543.628Z" fill="#feefe7"/>
        </g>
        <g id="Group_63326" data-name="Group 63326">
          <path id="Path_95316" data-name="Path 95316" d="M914.071,542a.942.942,0,0,1-.785-.418l-5.8-8.657a.944.944,0,1,1,1.568-1.051l5.8,8.658a.943.943,0,0,1-.783,1.468Z" fill="#feefe7"/>
        </g>
        <g id="Group_63327" data-name="Group 63327">
          <path id="Path_95317" data-name="Path 95317" d="M908.465,543.927a.923.923,0,0,1-.32-.056.942.942,0,0,1-.567-1.207,57.517,57.517,0,0,1,5.521-11.283.944.944,0,0,1,1.594,1.01,55.7,55.7,0,0,0-5.341,10.912A.943.943,0,0,1,908.465,543.927Z" fill="#feefe7"/>
        </g>
        <g id="Group_63328" data-name="Group 63328">
          <path id="Path_95318" data-name="Path 95318" d="M910.761,561.048a.942.942,0,0,1-.654-.263l-7.941-7.634a.943.943,0,1,1,1.308-1.36l7.941,7.634a.943.943,0,0,1-.654,1.623Z" fill="#feefe7"/>
        </g>
        <g id="Group_63329" data-name="Group 63329">
          <path id="Path_95319" data-name="Path 95319" d="M904.835,569.668a.944.944,0,0,1-.787-1.463,134.824,134.824,0,0,0,8.606-15.085.943.943,0,1,1,1.7.827,136.752,136.752,0,0,1-8.725,15.3A.944.944,0,0,1,904.835,569.668Z" fill="#feefe7"/>
        </g>
        <g id="Group_63330" data-name="Group 63330">
          <path id="Path_95320" data-name="Path 95320" d="M759.208,573.019l-.071,0a.943.943,0,0,1-.873-.967,10.9,10.9,0,0,1,.2-1.795,17.7,17.7,0,0,0,0-4.472,6.987,6.987,0,0,0-2.716-4.81,3.94,3.94,0,0,0-4.766.172,2.748,2.748,0,0,0-.663,2.371,2.468,2.468,0,0,0,.368.946l.415-.834a.943.943,0,0,1,1.689.841l-.941,1.894a.941.941,0,0,1-1.242.436,3.909,3.909,0,0,1-2.147-2.956,4.618,4.618,0,0,1,1.191-4.036,5.813,5.813,0,0,1,7.149-.4,8.863,8.863,0,0,1,3.528,6.086c.024.156.046.312.064.467a6.86,6.86,0,0,1,2.862-2.137,5.818,5.818,0,0,1,4.71.344,4.6,4.6,0,0,1,1.4-1.965,5.576,5.576,0,0,1,7.456.78,5.863,5.863,0,0,1,.8,1.168,6.225,6.225,0,0,1,4.542-1.953,6.447,6.447,0,0,1,4.961,2.722,7.169,7.169,0,0,1,.75,1.278,4.522,4.522,0,0,1,2.47-1.227,4.648,4.648,0,0,1,3.461.983,4.914,4.914,0,0,1,1.181,1.321c2.189-2.489,4.529-3.783,6.971-3.85a6.2,6.2,0,0,1,5.176,2.941,4.291,4.291,0,0,1,.234,4.39.943.943,0,1,1-1.653-.91,2.482,2.482,0,0,0-.192-2.5,4.2,4.2,0,0,0-3.514-2.036c-2.787.076-5.118,2.447-6.583,4.424a.943.943,0,0,1-1.7-.462,2.7,2.7,0,0,0-4.918-1.293,3.106,3.106,0,0,0-.348.61,5.712,5.712,0,0,1-.213,1.873.944.944,0,0,1-1.836-.1,4.4,4.4,0,0,1,.136-2.021,4.984,4.984,0,0,0-.946-2.3,4.549,4.549,0,0,0-3.478-1.953,4.436,4.436,0,0,0-3.546,1.821c-.1.13-.2.265-.291.4a6.888,6.888,0,0,1-.776,4.144.958.958,0,0,1-.948.486.943.943,0,0,1-.8-.708,6.191,6.191,0,0,1,.536-4.249,4.116,4.116,0,0,0-.9-1.743,3.74,3.74,0,0,0-4.863-.564,2.885,2.885,0,0,0-.968,1.7A4.382,4.382,0,0,1,770.821,569a.943.943,0,0,1-1.505.627,4.434,4.434,0,0,1-1.685-3.454,4.067,4.067,0,0,0-3.7-.588,6.445,6.445,0,0,0-3.6,4.913c-.058.569-.127,1.135-.194,1.7A.944.944,0,0,1,759.208,573.019Z" fill="#feefe7"/>
        </g>
        <g id="Group_63331" data-name="Group 63331">
          <path id="Path_95321" data-name="Path 95321" d="M770.96,586.023a1.879,1.879,0,0,1-.453-.055.946.946,0,0,1-.679-1.163,9.21,9.21,0,0,1,16-3.432,7.161,7.161,0,0,1,7.969-2.109c.4.164.8.369,1.195.576.971.5,1.809.935,2.525.688a3.45,3.45,0,0,0,.888-.571,6.367,6.367,0,0,1,1.045-.7c1.85-.929,3.79-.1,5.5.633,1.538.659,2.868,1.231,3.9.626a.944.944,0,0,1,.953,1.629c-1.857,1.084-3.844.231-5.6-.52-1.46-.626-2.84-1.221-3.908-.682a4.654,4.654,0,0,0-.73.5,4.98,4.98,0,0,1-1.43.866c-1.485.519-2.829-.181-4.014-.794-.35-.182-.7-.363-1.047-.507a5.142,5.142,0,0,0-6.362,2.45.945.945,0,0,1-.812.536.9.9,0,0,1-.854-.466,7.3,7.3,0,0,0-12.415-.352.946.946,0,0,1,.379.7,2.012,2.012,0,0,1-.741,1.663A2.069,2.069,0,0,1,770.96,586.023Z" fill="#feefe7"/>
        </g>
      </g>
      <g id="Group_63333" data-name="Group 63333">
        <path id="Path_95322" data-name="Path 95322" d="M297.068,533.452a33.062,33.062,0,0,1-10.269-1.57,25.03,25.03,0,0,1-15.448-14.369l-.107-.255.149-.233A631.813,631.813,0,0,1,312.1,460.156l.8-.994.14,1.267c1.141,10.284,2.182,20.658,3.188,30.689s2.046,20.4,3.187,30.677h0c.561,5.066-6.689,8.665-10.6,9.861A40.357,40.357,0,0,1,297.068,533.452Zm-24.633-16.094a23.973,23.973,0,0,0,14.694,13.518,35.849,35.849,0,0,0,21.375-.233c4.048-1.237,10.3-4.7,9.857-8.731h0c-1.141-10.284-2.181-20.657-3.188-30.689-.964-9.616-1.961-19.545-3.046-29.408A630.88,630.88,0,0,0,272.435,517.358Z" fill="#feefe7"/>
      </g>
      <g id="Group_63334" data-name="Group 63334">
        <path id="Path_95323" data-name="Path 95323" d="M317.645,522.082a.394.394,0,0,1-.266-.1,28.885,28.885,0,0,0-4.174-3.125.4.4,0,1,1,.417-.675,29.557,29.557,0,0,1,4.289,3.211.4.4,0,0,1-.266.692ZM272.52,517.9a.4.4,0,0,1-.135-.77c1.719-.621,3.419-1.179,5.052-1.658a.4.4,0,0,1,.224.762c-1.618.474-3.3,1.027-5.006,1.642A.4.4,0,0,1,272.52,517.9Zm38.111-.518a.392.392,0,0,1-.174-.041,34.494,34.494,0,0,0-4.863-1.921.4.4,0,0,1,.236-.758,35.2,35.2,0,0,1,4.976,1.966.4.4,0,0,1-.175.754Zm-30.015-1.96a.4.4,0,0,1-.1-.783c1.767-.436,3.523-.794,5.219-1.065a.4.4,0,0,1,.125.784c-1.675.267-3.408.622-5.154,1.052A.393.393,0,0,1,280.616,515.423Zm22.026-.8a.41.41,0,0,1-.085-.009,39.079,39.079,0,0,0-5.179-.776.4.4,0,0,1-.364-.428.392.392,0,0,1,.428-.363,39.827,39.827,0,0,1,5.285.791.4.4,0,0,1-.085.785Zm-13.691-.673a.4.4,0,0,1-.039-.792,49.476,49.476,0,0,1,4.947-.254h.381a.4.4,0,0,1,.394.4c0,.22-.191.442-.4.394h-.375c-1.582,0-3.22.084-4.868.25A.26.26,0,0,1,288.951,513.953Z" fill="#feefe7"/>
      </g>
      <g id="Group_63335" data-name="Group 63335">
        <path id="Path_95324" data-name="Path 95324" d="M288.775,550.189a.4.4,0,0,1-.385-.5l1.35-5.12a.4.4,0,0,1,.768.2l-1.35,5.12A.4.4,0,0,1,288.775,550.189ZM290.934,542a.446.446,0,0,1-.1-.013.4.4,0,0,1-.283-.486l1.35-5.119a.4.4,0,1,1,.768.2l-1.35,5.12A.4.4,0,0,1,290.934,542Zm2.159-8.191a.4.4,0,0,1-.385-.5l1.35-5.12a.4.4,0,1,1,.768.2l-1.349,5.119A.4.4,0,0,1,293.093,533.807Zm2.159-8.191a.4.4,0,0,1-.385-.5L296.216,520a.4.4,0,0,1,.486-.283.4.4,0,0,1,.283.485l-1.35,5.12A.4.4,0,0,1,295.252,525.616Zm2.158-8.191a.445.445,0,0,1-.1-.013.4.4,0,0,1-.283-.486l1.349-5.12a.4.4,0,0,1,.769.2l-1.35,5.12A.4.4,0,0,1,297.41,517.425Zm2.16-8.192a.4.4,0,0,1-.385-.5l1.349-5.12a.4.4,0,0,1,.769.2l-1.35,5.12A.4.4,0,0,1,299.57,509.233Zm2.158-8.191a.408.408,0,0,1-.1-.013.4.4,0,0,1-.282-.485l1.349-5.12a.4.4,0,1,1,.768.2l-1.349,5.119A.4.4,0,0,1,301.728,501.042Zm2.159-8.191a.4.4,0,0,1-.384-.5l1.349-5.12a.4.4,0,0,1,.769.2l-1.35,5.119A.4.4,0,0,1,303.887,492.851Zm2.159-8.191a.394.394,0,0,1-.1-.013.4.4,0,0,1-.283-.486l1.349-5.119a.4.4,0,0,1,.769.2l-1.35,5.12A.4.4,0,0,1,306.046,484.66Zm2.159-8.191a.444.444,0,0,1-.1-.013.4.4,0,0,1-.283-.486l1.349-5.12a.4.4,0,0,1,.769.2l-1.35,5.12A.4.4,0,0,1,308.2,476.469Zm2.159-8.192a.4.4,0,0,1-.1-.013.4.4,0,0,1-.282-.485l1.349-5.12a.4.4,0,0,1,.768.2l-1.349,5.12A.4.4,0,0,1,310.364,468.277Zm2.159-8.191a.4.4,0,0,1-.1-.013.4.4,0,0,1-.282-.485l1.349-5.12a.4.4,0,1,1,.768.2l-1.349,5.119A.4.4,0,0,1,312.523,460.086Z" fill="#feefe7"/>
      </g>
      <g id="Group_63336" data-name="Group 63336">
        <path id="Path_95325" data-name="Path 95325" d="M343.368,501.436a7.152,7.152,0,0,1-1.161-.092,4.891,4.891,0,0,1-4.051-3.385,1.059,1.059,0,1,1,2.057-.5,2.813,2.813,0,0,0,2.334,1.8,9.7,9.7,0,0,0,3.864-.45c1.25-.322,2.762-.917,2.864-1.916.064-.631-.438-1.358-1.536-2.224a28.242,28.242,0,0,0-4.8-3.05l-.1-.051c-1.774-.889-3.982-2-4.389-4.3a3.9,3.9,0,0,1,.8-3.052,5.479,5.479,0,0,1,3.741-2.06c2.326-.215,4.481.851,6.209,1.7a1.059,1.059,0,1,1-.939,1.9c-1.893-.937-3.469-1.637-5.076-1.494a3.342,3.342,0,0,0-2.251,1.236,1.8,1.8,0,0,0-.4,1.4c.221,1.255,1.832,2.063,3.253,2.776l.1.05A30.344,30.344,0,0,1,349.05,493c.63.5,2.545,2.007,2.332,4.1-.181,1.776-1.675,3.039-4.442,3.753A14.318,14.318,0,0,1,343.368,501.436Z" fill="#feefe7"/>
      </g>
      <g id="Group_63337" data-name="Group 63337">
        <path id="Path_95326" data-name="Path 95326" d="M357.994,497.938a1.059,1.059,0,0,1-.929-.549,17.158,17.158,0,0,1-1.957-10.425,1.059,1.059,0,0,1,2.1.277,15.016,15.016,0,0,0,1.713,9.128,1.059,1.059,0,0,1-.927,1.569Z" fill="#feefe7"/>
      </g>
      <g id="Group_63338" data-name="Group 63338">
        <path id="Path_95327" data-name="Path 95327" d="M372.38,499.25a1.059,1.059,0,0,1-1.053-.953,19.142,19.142,0,0,0-3.548-9.307c-.6-.833-1.258-1.292-1.656-1.178-.3.087-.593.5-.875,1.217a14.631,14.631,0,0,0-.985,5.839l.319,2.572a1.059,1.059,0,0,1-2.086.353,16.523,16.523,0,0,1-.345-2.745l-1.477-11.885a1.059,1.059,0,1,1,2.1-.262l.627,5.045a3.623,3.623,0,0,1,2.129-2.167c1.351-.391,2.756.306,3.962,1.967a21.273,21.273,0,0,1,3.941,10.338,1.059,1.059,0,0,1-.947,1.16A.973.973,0,0,1,372.38,499.25Z" fill="#feefe7"/>
      </g>
      <g id="Group_63339" data-name="Group 63339">
        <path id="Path_95328" data-name="Path 95328" d="M344.441,525.995a7.287,7.287,0,0,1-2.519-.44,7.866,7.866,0,0,1,4.916-14.934,1.059,1.059,0,0,1-.591,2.033,5.748,5.748,0,1,0,3.715,7.694,1.059,1.059,0,0,1,1.961.8A8.184,8.184,0,0,1,344.441,525.995Z" fill="#feefe7"/>
      </g>
      <g id="Group_63340" data-name="Group 63340">
        <path id="Path_95329" data-name="Path 95329" d="M359.433,526.446a6.251,6.251,0,0,1-5.271-3.189,12.313,12.313,0,0,1-.664-9.273,5.563,5.563,0,0,1,3.266-3.535,6.88,6.88,0,0,1,7.715,2.722,9.321,9.321,0,0,1,.962,8.03c-.681,2.168-2.376,4.662-5.094,5.162A5.009,5.009,0,0,1,359.433,526.446Zm-.7-14.218a3.666,3.666,0,0,0-1.249.211,3.489,3.489,0,0,0-2,2.272A10.257,10.257,0,0,0,356,522.2a4.024,4.024,0,0,0,3.968,2.081c1.793-.33,2.982-2.206,3.455-3.713a7.2,7.2,0,0,0-.684-6.194A5.026,5.026,0,0,0,358.735,512.228Z" fill="#feefe7"/>
      </g>
      <g id="Group_63341" data-name="Group 63341">
        <path id="Path_95330" data-name="Path 95330" d="M374.871,526.546a16.475,16.475,0,0,1-3.838-.59,1.058,1.058,0,1,1,.492-2.059,9.911,9.911,0,0,0,4.7.366c1.183-.321,2.345-1.477,2.122-2.623a3.9,3.9,0,0,0-1.487-1.948,19.062,19.062,0,0,0-4.507-2.766c-1.121-.488-2.578-1.124-3.017-2.6a3.449,3.449,0,0,1,1.309-3.556,5.263,5.263,0,0,1,7.662,1.418,1.059,1.059,0,0,1-1.844,1.043,3.151,3.151,0,0,0-4.47-.827,1.463,1.463,0,0,0-.627,1.321c.158.533,1.018.907,1.777,1.238a21.322,21.322,0,0,1,5.063,3.1,5.733,5.733,0,0,1,2.219,3.178c.467,2.4-1.529,4.5-3.646,5.072A7.257,7.257,0,0,1,374.871,526.546Z" fill="#feefe7"/>
      </g>
      <g id="Group_63342" data-name="Group 63342">
        <path id="Path_95331" data-name="Path 95331" d="M355.423,484.67a2.162,2.162,0,0,1-1.122-.45,5.44,5.44,0,0,1-.92-5.258A2.153,2.153,0,0,1,354.5,477.7a1.476,1.476,0,0,1,1.2.017,1.81,1.81,0,0,1,.916,1.143,7.55,7.55,0,0,1-.214,5.162A1.064,1.064,0,0,1,355.423,484.67Z" fill="#feefe7"/>
      </g>
      <g id="Group_63344" data-name="Group 63344">
        <path id="Path_95332" data-name="Path 95332" d="M868.12,605.988l89.387-.594.575-126.41Zm73.066-16.865-40.655.288,40.675-61.537Z" fill="#93c4bf" style="mix-blend-mode: multiply;isolation: isolate"/>
        <path id="Path_95333" data-name="Path 95333" d="M859.947,605.988l89.424-.594,8.711-126.41ZM934.1,589.123l-40.673.288,44.635-61.537Z" fill="url(#linear-gradient-7)"/>
        <g id="Group_63343" data-name="Group 63343">
          <path id="Path_95334" data-name="Path 95334" d="M867.606,596.075l5.518,2.847,1.6-2.258-5.116-3.181Z" fill="#f2ae3f"/>
          <path id="Path_95335" data-name="Path 95335" d="M874.325,587.38l5.469,2.8,1.591-2.26-5.07-3.11Z" fill="#f2ae3f"/>
          <path id="Path_95336" data-name="Path 95336" d="M881.044,578.684l5.418,2.744,1.583-2.262-5.025-3.04Z" fill="#f2ae3f"/>
          <path id="Path_95337" data-name="Path 95337" d="M887.763,569.989l5.369,2.692,1.575-2.264-4.98-2.97Z" fill="#f2ae3f"/>
          <path id="Path_95338" data-name="Path 95338" d="M894.482,561.293l5.319,2.641,1.566-2.266-4.934-2.9Z" fill="#f2ae3f"/>
          <path id="Path_95339" data-name="Path 95339" d="M901.2,552.6l5.269,2.589,1.558-2.268-4.889-2.829Z" fill="#f2ae3f"/>
          <path id="Path_95340" data-name="Path 95340" d="M907.92,543.9l5.219,2.537,1.55-2.269-4.844-2.758Z" fill="#f2ae3f"/>
          <path id="Path_95341" data-name="Path 95341" d="M914.639,535.207l5.169,2.485,1.541-2.271-4.8-2.688Z" fill="#f2ae3f"/>
          <path id="Path_95342" data-name="Path 95342" d="M921.357,526.512l5.118,2.434,1.533-2.273-4.753-2.618Z" fill="#f2ae3f"/>
          <path id="Path_95343" data-name="Path 95343" d="M928.076,517.816l5.069,2.382,1.525-2.275-4.708-2.547Z" fill="#f2ae3f"/>
          <path id="Path_95344" data-name="Path 95344" d="M934.8,509.121l5.019,2.33,1.516-2.277-4.662-2.477Z" fill="#f2ae3f"/>
          <path id="Path_95345" data-name="Path 95345" d="M941.514,500.425l4.969,2.279,1.508-2.279-4.617-2.407Z" fill="#f2ae3f"/>
        </g>
      </g>
    </g>
  </g>
</svg>
