<svg id="Icon" xmlns="http://www.w3.org/2000/svg" width="32" height="32" viewBox="0 0 32 32">
  <rect id="Bounding_Box" data-name="Bounding Box" width="32" height="32" fill="none"/>
  <g id="Icon-2" data-name="Icon" transform="translate(4 3)">
    <path id="Path" d="M1.175,1.168A4,4,0,1,0,4,0,4,4,0,0,0,1.175,1.168Z" transform="translate(16 19) rotate(180)" fill="#172239"/>
    <path id="Path-2" data-name="Path" d="M8,4V2.667A2.667,2.667,0,0,0,5.333,0H2.667A2.667,2.667,0,0,0,0,2.667V4" transform="translate(8)" fill="none" stroke="#172239" stroke-miterlimit="10" stroke-width="1.867"/>
    <path id="Path-3" data-name="Path" d="M.849,10.693A.9.9,0,0,1,0,9.743H0V7.794C.012,3.495,3.122.013,6.963,0H17.037C20.882,0,24,3.49,24,7.794v8.412c-.006,4.3-3.12,7.788-6.963,7.794H6.963C3.122,23.987.012,20.505,0,16.206a.9.9,0,0,1,.854-.856.9.9,0,0,1,.854.856c.029,3.235,2.364,5.849,5.254,5.881H17.037c2.89-.032,5.226-2.647,5.254-5.881V7.794c-.029-3.235-2.364-5.849-5.254-5.881H6.963c-2.89.032-5.226,2.647-5.254,5.881V9.719a1.011,1.011,0,0,1-.249.672.806.806,0,0,1-.6.278h0Z" transform="translate(0 3)" fill="#172239"/>
  </g>
</svg>
