<svg id="call-calling" xmlns="http://www.w3.org/2000/svg" width="25.046" height="25.046" viewBox="0 0 25.046 25.046">
  <path id="Vector" d="M7.712,4.185a3.571,3.571,0,0,1,.417.731,1.649,1.649,0,0,1,.146.637,1.417,1.417,0,0,1-.219.741,3.55,3.55,0,0,1-.584.741l-.793.824a.558.558,0,0,0-.167.417.947.947,0,0,0,.031.24c.031.083.063.146.083.209A8.66,8.66,0,0,0,7.6,10.06c.47.543.971,1.1,1.513,1.649.564.553,1.106,1.064,1.659,1.534a8.009,8.009,0,0,0,1.346.96c.052.021.115.052.188.083a.721.721,0,0,0,.261.042.574.574,0,0,0,.428-.177l.793-.783a3.2,3.2,0,0,1,.751-.584,1.39,1.39,0,0,1,.741-.219,1.665,1.665,0,0,1,.637.136,4.036,4.036,0,0,1,.731.407L20.1,15.56a1.583,1.583,0,0,1,.574.668,2.141,2.141,0,0,1,.167.814,2.656,2.656,0,0,1-.261,1.138,4.306,4.306,0,0,1-.71,1.064,4.7,4.7,0,0,1-1.711,1.231,5.241,5.241,0,0,1-2.035.4,8.7,8.7,0,0,1-3.4-.762,18.33,18.33,0,0,1-3.59-2.066,30,30,0,0,1-3.423-2.922A29.652,29.652,0,0,1,2.8,11.709,18.605,18.605,0,0,1,.751,8.15,8.79,8.79,0,0,1,0,4.738,5.4,5.4,0,0,1,.376,2.724,4.8,4.8,0,0,1,1.576.981,3.058,3.058,0,0,1,3.747,0a1.961,1.961,0,0,1,.845.188,1.7,1.7,0,0,1,.7.584" transform="translate(2.087 2.087)" fill="none" stroke="#286f90" stroke-linecap="round" stroke-linejoin="round" stroke-width="1.8"/>
  <path id="Vector-2" data-name="Vector" d="M3.653,3.653A4.138,4.138,0,0,0,2.432,1.284,3.565,3.565,0,0,0,0,0" transform="translate(15.654 5.74)" fill="none" stroke="#286f90" stroke-linecap="round" stroke-linejoin="round" stroke-width="1.8"/>
  <path id="Vector-3" data-name="Vector" d="M2.1.3A7.334,7.334,0,0,0,0,0" transform="translate(15.654 2.087)" fill="none" stroke="#286f90" stroke-linecap="round" stroke-linejoin="round" stroke-width="1.8"/>
  <path id="Vector-4" data-name="Vector" d="M3.11,5.98A7.291,7.291,0,0,0,0,0" transform="translate(19.849 3.413)" fill="none" stroke="#286f90" stroke-linecap="round" stroke-linejoin="round" stroke-width="1.8"/>
  <path id="Vector-5" data-name="Vector" d="M0,0H25.046V25.046H0Z" fill="none" opacity="0"/>
</svg>
