<svg xmlns="http://www.w3.org/2000/svg" width="74.444" height="85.269" viewBox="0 0 74.444 85.269">
  <g id="test-tube" transform="translate(0)">
    <path id="Path_96852" data-name="Path 96852" d="M97.3,424.531c9.187,0,18.5-7.5,20.844-16.031H94.478c-.591,2.25-1.408,2.748-3.84,2.748s-3.234-.5-3.825-2.748H76.878c2.34,8.487,11.2,16.031,20.421,16.031Zm0,0" transform="translate(-64.075 -340.468)" fill="#915bca"/>
    <path id="Path_96853" data-name="Path 96853" d="M106.6,171.4a20.062,20.062,0,0,1-.383,2.9H85.147c0-.028,0-.055,0-.083a5.246,5.246,0,1,0-10.492,0c0,.028,0,.055,0,.083H70.577v2.5H75.34a5.241,5.241,0,0,0,9.129,0h21.058a20.069,20.069,0,1,1-23.979-26.014l.938-.241V136.827h8.161v13.714l.938.241a20.074,20.074,0,0,1,11.523,8.07l2.058-1.417a22.582,22.582,0,0,0-12.021-8.809v-11.8h5.329V129H79.9v2.5H95.975v2.831H75.907v2.5h4.08v11.8a22.569,22.569,0,1,0,29.106,22.914Zm-24.295,4.152a2.745,2.745,0,1,1,.347-1.332,2.749,2.749,0,0,1-.347,1.332Zm0,0" transform="translate(-53.341 -107.516)" fill="#042423"/>
    <path id="Path_96854" data-name="Path 96854" d="M227.914,344.827a3.914,3.914,0,1,1,3.914-3.914A3.918,3.918,0,0,1,227.914,344.827Zm0-5.329a1.416,1.416,0,1,0,1.416,1.416A1.417,1.417,0,0,0,227.914,339.5Zm0,0" transform="translate(-186.695 -280.875)" fill="#042423"/>
    <path id="Path_96855" data-name="Path 96855" d="M179.914,280.827a3.914,3.914,0,1,1,3.914-3.914A3.918,3.918,0,0,1,179.914,280.827Zm0-5.329a1.416,1.416,0,1,0,1.416,1.416A1.417,1.417,0,0,0,179.914,275.5Zm0,0" transform="translate(-146.689 -227.534)" fill="#042423"/>
    <path id="Path_96856" data-name="Path 96856" d="M135.5,337h2.665v2.5H135.5Zm0,0" transform="translate(-112.934 -280.875)" fill="#042423"/>
    <path id="Path_96857" data-name="Path 96857" d="M247.5,289h2.665v2.5H247.5Zm0,0" transform="translate(-206.281 -240.869)" fill="#042423"/>
    <path id="Path_96858" data-name="Path 96858" d="M247.5,425h2.665v2.5H247.5Zm0,0" transform="translate(-206.281 -354.22)"/>
    <path id="Path_96859" data-name="Path 96859" d="M323.9,267.659a3.9,3.9,0,0,0-1.226.2l-3.544-4.727a3.914,3.914,0,1,0-6.447,0l-3.544,4.727a3.921,3.921,0,1,0,2,1.5l3.544-4.727a3.9,3.9,0,0,0,2.453,0l3.544,4.727a3.912,3.912,0,0,0-.485.967h-6.951v2.5h6.951a3.913,3.913,0,1,0,3.708-5.163Zm-15.988,5.329a1.416,1.416,0,1,1,1.416-1.416A1.417,1.417,0,0,1,307.914,272.988Zm6.578-12.074a1.416,1.416,0,1,1,1.416,1.416A1.417,1.417,0,0,1,314.492,260.914Zm9.41,12.074a1.416,1.416,0,1,1,1.416-1.416A1.417,1.417,0,0,1,323.9,272.988Zm0,0" transform="translate(-253.371 -214.199)" fill="#042423"/>
    <path id="Path_96860" data-name="Path 96860" d="M19.9,113a3.911,3.911,0,0,0-3.223,6.13l-3.544,4.727a3.9,3.9,0,0,0-2.453,0L7.137,119.13a3.914,3.914,0,0,0,.485-.967h6.951v-2.5H7.622A3.915,3.915,0,1,0,5.14,120.63l3.544,4.727a3.914,3.914,0,1,0,6.447,0l3.544-4.727A3.913,3.913,0,1,0,19.9,113ZM2.5,116.914a1.416,1.416,0,1,1,1.416,1.416A1.417,1.417,0,0,1,2.5,116.914Zm9.41,12.074a1.416,1.416,0,1,1,1.416-1.416A1.417,1.417,0,0,1,11.908,128.988ZM19.9,118.329a1.416,1.416,0,1,1,1.416-1.416A1.417,1.417,0,0,1,19.9,118.329Zm0,0" transform="translate(0 -94.181)" fill="#042423"/>
    <path id="Path_96861" data-name="Path 96861" d="M123.914,0a3.914,3.914,0,1,0,3.914,3.914A3.918,3.918,0,0,0,123.914,0Zm0,0" transform="translate(-100.015)" fill="#915bca"/>
    <path id="Path_96862" data-name="Path 96862" d="M251.914,24.5a3.914,3.914,0,1,0,3.914,3.914A3.918,3.918,0,0,0,251.914,24.5Zm0,0" transform="translate(-206.698 -20.42)" fill="#915bca"/>
    <path id="Path_96863" data-name="Path 96863" d="M319.5,72.5h2.665V75H319.5Zm0,0" transform="translate(-266.29 -60.426)"/>
    <path id="Path_96864" data-name="Path 96864" d="M191.5,24.5h2.665V27H191.5Zm0,0" transform="translate(-159.607 -20.42)"/>
    <path id="Path_96865" data-name="Path 96865" d="M111.5,56.5h2.665V59H111.5Zm0,0" transform="translate(-92.931 -47.09)"/>
  </g>
</svg>
