<svg xmlns="http://www.w3.org/2000/svg" xmlns:xlink="http://www.w3.org/1999/xlink" width="772.157" height="459.338" viewBox="0 0 772.157 459.338">
  <defs>
    <linearGradient id="linear-gradient" x1="0.5" y1="-0.041" x2="0.5" y2="1.152" gradientUnits="objectBoundingBox">
      <stop offset="0" stop-color="#ffecbf"/>
      <stop offset="0.338" stop-color="#f9d6a9"/>
      <stop offset="0.944" stop-color="#eda779"/>
    </linearGradient>
    <radialGradient id="radial-gradient" cx="-0.033" cy="0.163" r="2.487" gradientTransform="translate(0.278) scale(0.445 1)" gradientUnits="objectBoundingBox">
      <stop offset="0" stop-color="#7e44b2"/>
      <stop offset="1" stop-color="#452768"/>
    </radialGradient>
    <linearGradient id="linear-gradient-2" x1="-0.469" y1="-0.586" x2="0.719" y2="0.889" gradientUnits="objectBoundingBox">
      <stop offset="0" stop-color="#306a61"/>
      <stop offset="1"/>
    </linearGradient>
    <linearGradient id="linear-gradient-3" x1="-0.165" y1="-0.267" x2="1.024" y2="1.278" gradientUnits="objectBoundingBox">
      <stop offset="0" stop-color="#7c8a89"/>
      <stop offset="0.862" stop-color="#020303"/>
      <stop offset="0.883"/>
    </linearGradient>
  </defs>
  <g id="Group_64183" data-name="Group 64183" transform="translate(-253.921 -182.158)">
    <g id="Group_63358" data-name="Group 63358">
      <g id="Group_63356" data-name="Group 63356" style="mix-blend-mode: multiply;isolation: isolate">
        <path id="Path_95365" data-name="Path 95365" d="M364.124,209.328l5.572,36.6,542.732,6.914,8.378-52.469-19.669-3.36Z" fill="#b9eac9"/>
      </g>
      <g id="Group_63357" data-name="Group 63357">
        <path id="Path_95366" data-name="Path 95366" d="M894.946,220.74l-1.28,10.653-518.336-2.339-.478-8.314Z" fill="#e48f5d"/>
        <path id="Path_95367" data-name="Path 95367" d="M896.431,189.123l3.193-.017a50.559,50.559,0,0,1-1.588,31.634H372.171c-3.107-10.192-3.927-19.906-1.4-28.869l2.885-.017Z" fill="url(#linear-gradient)"/>
        <path id="Path_95368" data-name="Path 95368" d="M908.057,182.158c3.158,17.43,2.117,33-3.705,46.281H898.1c8.3-13.725,8.929-31.583,2.544-46.281Z" fill="#905aca"/>
        <path id="Path_95369" data-name="Path 95369" d="M371.4,226.408H365.82c-6.385-13.163-8.519-27.093-4.8-42.082h6.829C361.672,197.249,363.4,214.543,371.4,226.408Z" fill="#905aca"/>
        <path id="Path_95370" data-name="Path 95370" d="M899.846,231.393l-1.093,5.822-526.616-2.988v-5.173h3.192l518.336,2.339Z" fill="#905aca"/>
        <path id="Path_95371" data-name="Path 95371" d="M372.171,220.74h2.68a35.173,35.173,0,0,1-3.448,5.668c-8.007-11.865-9.731-29.159-3.551-42.082a32.8,32.8,0,0,1,5.8,7.528l-2.885.017C368.244,200.834,369.064,210.548,372.171,220.74Z" fill="#4d2b73"/>
        <path id="Path_95372" data-name="Path 95372" d="M900.648,182.158c6.385,14.7,5.753,32.556-2.544,46.281-1.109-2.373-2.612-5.053-3.158-7.7h3.09a50.559,50.559,0,0,0,1.588-31.634l-3.193.017A19.712,19.712,0,0,1,900.648,182.158Z" fill="#4d2b73"/>
        <path id="Path_95373" data-name="Path 95373" d="M369.7,209.49c-.1-.915,530.837,2.349,530.837,2.349l-1.492,5.934-527.676.115Z" fill="#eda779"/>
      </g>
    </g>
    <g id="Group_63416" data-name="Group 63416">
      <g id="Group_63411" data-name="Group 63411">
        <path id="Path_95540" data-name="Path 95540" d="M282.623,620.077l6,10.281L1006.587,641.5l19.491-371.835Z" fill="rgba(145,91,202,0.31)" style="mix-blend-mode: multiply;isolation: isolate"/>
        <path id="Path_95541" data-name="Path 95541" d="M253.921,261.736l765.518,7.925L991.166,607.226,275.34,609.367Z" fill="#feefe7"/>
        <path id="Path_95542" data-name="Path 95542" d="M264.631,272.017l741.957,7.068-26.56,321.286-693.692,1.714Z" fill="url(#radial-gradient)"/>
        <path id="Path_95543" data-name="Path 95543" d="M1019.439,269.661,991.166,607.226,275.34,609.367l2.57,1.5,716.468-1.5,31.7-339.706Z" fill="#4d2b73"/>
        <path id="Path_95544" data-name="Path 95544" d="M286.335,602.085l-21.7-330.068,741.957,7.068-.413,5-736.831-6.5,22.276,324.5Z" fill="#4d2b73"/>
        <path id="Path_95545" data-name="Path 95545" d="M275,369.117l-4.7-92.374,359.84,83.963.287,61.436Zm.576,11.331,7.8,153.443L631,543.969,630.521,440.6Z" fill="url(#linear-gradient-2)" style="mix-blend-mode: screen;isolation: isolate"/>
        <path id="Path_95546" data-name="Path 95546" d="M261.2,607.8l6.854,12.28H998.02l2.784-15.033Z" fill="#4d2b73"/>
        <path id="Path_95547" data-name="Path 95547" d="M264.631,609.367l3,6,728.962-2.8,1.714-5.621Z" fill="#baa2dd"/>
      </g>
      <path id="Path_95548" data-name="Path 95548" d="M668.3,606.259l-3.923-18.243,82.817,2.294-2.18,15.664Z" fill="#b1652d"/>
      <g id="Group_63412" data-name="Group 63412" style="mix-blend-mode: screen;isolation: isolate">
        <path id="Path_95549" data-name="Path 95549" d="M665.665,589l2.288,10.625,77.132-.49.72-7.666Z" fill="url(#linear-gradient-3)"/>
      </g>
      <g id="Group_63413" data-name="Group 63413">
        <path id="Path_95550" data-name="Path 95550" d="M352.4,532.665l-18.483-6.8-3.355-19.406,15.13-12.608,18.483,6.8,3.355,19.406Zm-17.354-7.74,17.1,6.291,14-11.666-3.1-17.957-17.1-6.29-14,11.665Z" fill="#9b61d8"/>
        <path id="Path_95551" data-name="Path 95551" d="M386.382,525.869l-18.484-6.8-3.354-19.406,15.13-12.609,18.483,6.8,3.354,19.407Zm-17.355-7.74,17.1,6.29,14-11.666-3.1-17.957-17.1-6.291-14,11.667Z" fill="#9b61d8"/>
        <path id="Path_95552" data-name="Path 95552" d="M428.618,495.283l-18.483-6.8-3.354-19.407,15.13-12.608,18.483,6.8,3.354,19.406Zm-17.353-7.74,17.1,6.291,14-11.666-3.1-17.958-17.1-6.29-14,11.666Z" fill="#9b61d8"/>
        <path id="Path_95553" data-name="Path 95553" d="M339.028,522.616l-.516-1.454c-1.645-4.612-3.346-9.381-3.614-14.224l1.169-.065c.259,4.674,1.931,9.362,3.548,13.9l.518,1.459Z" fill="#9b61d8"/>
        <path id="Path_95554" data-name="Path 95554" d="M359.216,504.8c-2.176-2.372-5.15-3.273-8.3-4.226-1.3-.394-2.643-.8-3.943-1.321l.435-1.088c1.253.5,2.572.9,3.847,1.287,3.162.958,6.43,1.948,8.822,4.557Z" fill="#9b61d8"/>
        <path id="Path_95555" data-name="Path 95555" d="M351.54,528.22l-.5-1.059c2.632-1.239,4.392-3.4,6.256-5.688a24.067,24.067,0,0,1,5.086-5.1l.649.974a22.921,22.921,0,0,0-4.827,4.865C356.34,524.5,354.412,526.869,351.54,528.22Z" fill="#9b61d8"/>
        <path id="Path_95556" data-name="Path 95556" d="M413.665,472.387l-.791-.863c4.163-3.816,8.4-7.158,11.994-9.923l.714.928C422.007,465.279,417.8,468.6,413.665,472.387Z" fill="#9b61d8"/>
        <path id="Path_95557" data-name="Path 95557" d="M427.306,488.386a33.034,33.034,0,0,0-12.208-4.067l.165-1.159a34.169,34.169,0,0,1,12.633,4.214Z" fill="#9b61d8"/>
        <path id="Path_95558" data-name="Path 95558" d="M439.01,481.592l-1.16-.164a3.1,3.1,0,0,0,.032-.445c-.02-.065-.259-.877-.513-1.738-1.058-3.591-3.028-10.276-3.028-12.7h1.171c0,2.26,2.013,9.09,2.98,12.372a11.72,11.72,0,0,1,.56,2.07A4.4,4.4,0,0,1,439.01,481.592Z" fill="#9b61d8"/>
        <path id="Path_95559" data-name="Path 95559" d="M440.865,464.574l-1.048-.524c1.521-3.042,4.125-4.646,6.643-6.2a24.985,24.985,0,0,0,3.68-2.574l.784.87a26.276,26.276,0,0,1-3.85,2.7C444.7,460.314,442.236,461.83,440.865,464.574Z" fill="#9b61d8"/>
        <path id="Path_95560" data-name="Path 95560" d="M453.325,488.315a20.06,20.06,0,0,0-10.525-5.271l.178-1.157a21.194,21.194,0,0,1,11.131,5.558Z" fill="#9b61d8"/>
        <path id="Path_95561" data-name="Path 95561" d="M404.649,495.044c-.671-.478-1.313-.958-1.944-1.428a43.168,43.168,0,0,0-4.376-3l.581-1.017a44.022,44.022,0,0,1,4.495,3.076c.625.466,1.26.94,1.924,1.414Z" fill="#9b61d8"/>
        <path id="Path_95562" data-name="Path 95562" d="M409.628,493.66a54.885,54.885,0,0,0-8.19-8.826l.732-.915a55.771,55.771,0,0,1,8.372,9.009Z" fill="#9b61d8"/>
        <path id="Path_95563" data-name="Path 95563" d="M402.585,518.814l-.925-.719a38.344,38.344,0,0,0,2.371-3.556,26.566,26.566,0,0,1,3.728-5.1l.829.829a25.2,25.2,0,0,0-3.559,4.881A39.6,39.6,0,0,1,402.585,518.814Z" fill="#9b61d8"/>
        <path id="Path_95564" data-name="Path 95564" d="M406.81,523.123l-1.094-.42a42.91,42.91,0,0,1,7.1-11.626l.906.742A41.7,41.7,0,0,0,406.81,523.123Z" fill="#9b61d8"/>
        <path id="Path_95565" data-name="Path 95565" d="M409.637,529.573l-1.016-.581a153.7,153.7,0,0,1,12.788-19.181l.92.725A152.8,152.8,0,0,0,409.637,529.573Z" fill="#9b61d8"/>
        <path id="Path_95566" data-name="Path 95566" d="M354.145,541.966a22.827,22.827,0,0,1-1.852-7.437c-.126-.966-.253-1.939-.43-2.912l1.152-.209c.181.992.31,1.984.439,2.969a21.623,21.623,0,0,0,1.738,7.065Z" fill="#9b61d8"/>
        <path id="Path_95567" data-name="Path 95567" d="M331.794,507.513c-.962-.482-1.937-1.049-2.879-1.6-2.823-1.644-5.747-3.356-8.92-3.119l-.083-1.169c3.545-.241,6.62,1.544,9.593,3.276.969.564,1.884,1.1,2.813,1.562Z" fill="#9b61d8"/>
        <path id="Path_95568" data-name="Path 95568" d="M379.538,485.369a3.109,3.109,0,0,1-2.667-2.165l-.158.04c-.119-.474-.268-.967-.419-1.468a13.9,13.9,0,0,1-.786-3.869c0-1.49.876-3.553,2.52-3.553,1.614,0,4.5,2.825,4.5,5.605C382.53,481.566,381.369,485.369,379.538,485.369Zm-2.4-4.862.7.233a2.223,2.223,0,0,0-.112.718c0,1.7,1.057,2.741,1.814,2.741.681,0,1.821-2.655,1.821-4.24,0-2.229-2.449-4.434-3.331-4.434-.747,0-1.349,1.3-1.349,2.382A9.883,9.883,0,0,0,377.14,480.507Z" fill="#9b61d8"/>
        <path id="Path_95569" data-name="Path 95569" d="M355.153,560.294c-3.317,0-5.229-4.837-5.229-6.373a1.393,1.393,0,0,1,.375-1l.008-.009a6.9,6.9,0,0,1-.8-3.283c0-1.592.869-2.781,1.646-2.781,4.818.3,7.311,5.265,7.311,10.015A3.128,3.128,0,0,1,355.153,560.294Zm-3.988-6.54c-.047.009-.07.071-.07.166,0,1.042,1.572,5.2,4.058,5.2a1.984,1.984,0,0,0,2.139-2.257c0-4.17-2.084-8.521-6.067-8.837a2.222,2.222,0,0,0-.549,1.6,5.4,5.4,0,0,0,.958,3.187l.7.936Z" fill="#9b61d8"/>
        <path id="Path_95570" data-name="Path 95570" d="M363.062,559.164a77.194,77.194,0,0,0-4.774-7.891c-.639-.966-1.273-1.925-1.884-2.886l.988-.628c.607.954,1.238,1.908,1.872,2.868a77.812,77.812,0,0,1,4.846,8.013Z" fill="#9b61d8"/>
        <path id="Path_95571" data-name="Path 95571" d="M361.5,555.329l-.283-1.135a3.792,3.792,0,0,0,2.734-1.859l1.048.524A4.983,4.983,0,0,1,361.5,555.329Z" fill="#9b61d8"/>
        <path id="Path_95572" data-name="Path 95572" d="M367.345,556.8a21.418,21.418,0,0,1-5.568-7.533l1.07-.475a20.229,20.229,0,0,0,5.261,7.118Z" fill="#9b61d8"/>
        <path id="Path_95573" data-name="Path 95573" d="M305.7,506.856a38.206,38.206,0,0,0-3.763-8.156l.993-.621a39.366,39.366,0,0,1,3.881,8.406Z" fill="#9b61d8"/>
        <path id="Path_95574" data-name="Path 95574" d="M304.566,503.392l-.436-1.087a12.02,12.02,0,0,0,2.981-1.977c.346-.282.686-.559,1.025-.814l.7.936c-.327.246-.655.514-.988.786A12.908,12.908,0,0,1,304.566,503.392Z" fill="#9b61d8"/>
        <path id="Path_95575" data-name="Path 95575" d="M310.241,505.1a20.476,20.476,0,0,1-1.97-3.769,19.407,19.407,0,0,0-1.852-3.556l.953-.681a20.534,20.534,0,0,1,1.971,3.768,19.354,19.354,0,0,0,1.851,3.557Z" fill="#9b61d8"/>
        <path id="Path_95576" data-name="Path 95576" d="M314.617,502.7c-.309-1-.709-2.015-1.132-3.085a20.527,20.527,0,0,1-1.911-7.367c0-1.654.212-2.57.709-3.063a1.7,1.7,0,0,1,1.331-.418c1.723,0,5.537,4.045,5.537,7.735,0,3.371-1.654,3.874-2.64,3.874a3.736,3.736,0,0,1-1.592-.315c.3.765.585,1.539.817,2.3Zm-1.524-7.816h1.076v.659c0,2.636.657,3.663,2.343,3.663.363,0,1.469,0,1.469-2.7,0-3.146-3.387-6.564-4.263-6.564-.407,0-.533,0-.61.079-.109.108-.363.542-.363,2.231A11.137,11.137,0,0,0,313.093,494.886Z" fill="#9b61d8"/>
        <path id="Path_95577" data-name="Path 95577" d="M457.963,454.026a3.669,3.669,0,0,1-3.587-4.672l-.127-.37a11.341,11.341,0,0,1-.813-3.536,3.272,3.272,0,0,1,3.388-3.369c2.185,0,5.418,2.1,5.418,6.589C462.242,452.149,460.037,454.026,457.963,454.026Zm-1.139-10.776a2.116,2.116,0,0,0-2.217,2.2,10.519,10.519,0,0,0,.749,3.154l.252.741-.061.185a2.649,2.649,0,0,0-.14.831,2.561,2.561,0,0,0,2.556,2.5c1.507,0,3.108-1.467,3.108-4.187C461.071,444.972,458.537,443.25,456.824,443.25Z" fill="#9b61d8"/>
        <path id="Path_95578" data-name="Path 95578" d="M466.91,451.555a31.013,31.013,0,0,1-2.275-5.029,29.987,29.987,0,0,0-2.184-4.844l1-.6a31.052,31.052,0,0,1,2.275,5.029,29.984,29.984,0,0,0,2.184,4.844Z" fill="#9b61d8"/>
        <path id="Path_95579" data-name="Path 95579" d="M466.025,448.331l-1.048-.524a5.338,5.338,0,0,1,2.81-2.265,5.477,5.477,0,0,0,2.034-1.342l.914.731a6.4,6.4,0,0,1-2.449,1.67A4.315,4.315,0,0,0,466.025,448.331Z" fill="#9b61d8"/>
        <path id="Path_95580" data-name="Path 95580" d="M471.369,451.874a65.122,65.122,0,0,1-4.5-9.638l1.087-.435a64.275,64.275,0,0,0,4.418,9.47Z" fill="#9b61d8"/>
        <path id="Path_95581" data-name="Path 95581" d="M460.731,490.26c-2.665,0-3.784-3.913-4.385-6.016l-.029-.186c0-.362-.025-.762-.05-1.173-.028-.465-.056-.946-.056-1.411,0-1.526.3-3.555,2.918-3.555,2.46,0,5.334,1.826,5.334,6.976C464.463,488.855,462.453,490.26,460.731,490.26Zm-3.244-6.285c.494,1.728,1.489,5.115,3.244,5.115,1.182,0,2.561-1.1,2.561-4.2,0-3.581-1.6-5.806-4.163-5.806-1.134,0-1.747.38-1.747,2.385,0,.442.027.9.054,1.34C457.461,483.22,457.483,483.613,457.487,483.975Z" fill="#9b61d8"/>
        <path id="Path_95582" data-name="Path 95582" d="M469.377,487.928a29.509,29.509,0,0,0-1.253-5.617,30.172,30.172,0,0,1-1.295-5.848l1.166-.1a29.449,29.449,0,0,0,1.253,5.617,30.172,30.172,0,0,1,1.3,5.848Z" fill="#9b61d8"/>
        <path id="Path_95583" data-name="Path 95583" d="M468.891,483.683l-1.048-.524a5.247,5.247,0,0,1,1.662-1.737,4.325,4.325,0,0,0,1.325-1.329l1.047.523a5.237,5.237,0,0,1-1.662,1.737A4.313,4.313,0,0,0,468.891,483.683Z" fill="#9b61d8"/>
        <path id="Path_95584" data-name="Path 95584" d="M473.523,487.658a27.787,27.787,0,0,0-1.987-6,36.692,36.692,0,0,1-1.826-5.1l1.136-.284a35.782,35.782,0,0,0,1.772,4.932,29,29,0,0,1,2.059,6.261Z" fill="#9b61d8"/>
        <path id="Path_95585" data-name="Path 95585" d="M423.328,532.642c-1.42,0-2.526-1.818-3.414-3.28-.164-.268-.312-.513-.443-.71l-.076-.163a10.272,10.272,0,0,1-.39-2.865c0-2.479,0-6.224,4.034-6.224,3.963,0,4.5,3.213,4.5,6.356C427.536,530.191,425.048,532.642,423.328,532.642Zm-2.831-4.56c.126.193.265.422.418.672.576.95,1.652,2.718,2.413,2.718.864,0,3.038-1.7,3.038-5.716,0-3.779-.9-5.185-3.327-5.185-2.45,0-2.864,1.558-2.864,5.053A9.156,9.156,0,0,0,420.5,528.082Z" fill="#9b61d8"/>
        <path id="Path_95586" data-name="Path 95586" d="M432.756,529.69a27.055,27.055,0,0,0-1.333-4.721,21.386,21.386,0,0,1-1.568-7.013c0-.271.01-.543.029-.818l1.168.084c-.018.247-.026.491-.026.734a20.457,20.457,0,0,0,1.5,6.629,28.547,28.547,0,0,1,1.383,4.928Z" fill="#9b61d8"/>
        <path id="Path_95587" data-name="Path 95587" d="M432.385,524.674l-.649-.974a19.587,19.587,0,0,1,1.8-1.02c1.443-.753,2.8-1.463,3.4-2.864l1.077.462c-.765,1.784-2.379,2.626-3.94,3.44A18.051,18.051,0,0,0,432.385,524.674Z" fill="#9b61d8"/>
        <path id="Path_95588" data-name="Path 95588" d="M439.817,528.908a54.539,54.539,0,0,1-4.827-13.842l1.148-.23a53.341,53.341,0,0,0,4.727,13.548Z" fill="#9b61d8"/>
      </g>
      <g id="Group_63415" data-name="Group 63415">
        <path id="Path_95589" data-name="Path 95589" d="M862.328,494.922c-1.207,2.372-4.229,2.906-6.526,2.4a5.658,5.658,0,0,1-3.91-2.815,6.229,6.229,0,0,1-.549-4.262c.743-3.356,3.7-4.816,7.8-3.906a10.876,10.876,0,0,1,1.656.505,3.282,3.282,0,0,1,2.2,2.585.619.619,0,0,1-.054.4h0c-.171.335-.57.409-.994.488-.334.062-.794.147-.9.347a.36.36,0,0,0-.029.187c.035.576.489.984.969,1.417a4.3,4.3,0,0,1,.722.759.791.791,0,0,1,.013.765.7.7,0,0,0-.035.1A4.355,4.355,0,0,1,862.328,494.922Zm-9.709-5.756a5.3,5.3,0,0,0-.441,1.26,5.366,5.366,0,0,0,.465,3.67,4.828,4.828,0,0,0,3.345,2.388c1.985.441,4.578.017,5.579-1.949a3.482,3.482,0,0,0,.3-.837,1.588,1.588,0,0,1,.073-.222c.006-.015.014-.034.02-.052a4.621,4.621,0,0,0-.53-.526,3.014,3.014,0,0,1-1.251-2,1.2,1.2,0,0,1,.12-.625,1.928,1.928,0,0,1,1.5-.8c.1-.019.229-.042.326-.068a2.448,2.448,0,0,0-1.636-1.769,9.917,9.917,0,0,0-1.526-.466C857.174,486.772,853.972,486.505,852.619,489.166Z" fill="#9b61d8"/>
        <path id="Path_95590" data-name="Path 95590" d="M852.987,487.742l-.565.64c-1.292-1.139-2.636-2.4-3.935-3.627-1.59-1.5-3.233-3.043-4.851-4.429l.556-.648c1.633,1.4,3.284,2.952,4.881,4.455C850.367,485.352,851.705,486.612,852.987,487.742Z" fill="#9b61d8"/>
        <path id="Path_95591" data-name="Path 95591" d="M855.031,486.388l-.721.459a23.469,23.469,0,0,0-4.9-4.868,40.606,40.606,0,0,1-3.879-3.493l.625-.582a40.037,40.037,0,0,0,3.8,3.417A24.419,24.419,0,0,1,855.031,486.388Z" fill="#9b61d8"/>
        <path id="Path_95592" data-name="Path 95592" d="M846.944,477.269h0a5.123,5.123,0,0,1-2.432,2.276c-.408.185-.851.432-1.319.694-1.347.752-2.874,1.6-4.256,1.3-1.705-.378-3.151-2.848-2.5-5.786a7.022,7.022,0,0,1,.591-1.669,5.2,5.2,0,0,1,6.087-2.745c2.471.548,4.7,2.568,4.166,5A3.878,3.878,0,0,1,846.944,477.269Zm-9.154-2.8a6.169,6.169,0,0,0-.518,1.465c-.562,2.536.72,4.518,1.85,4.768,1.064.237,2.44-.531,3.654-1.21.485-.271.943-.527,1.384-.727a4.255,4.255,0,0,0,2.023-1.884h0a3.152,3.152,0,0,0,.265-.728c.423-1.911-1.457-3.525-3.518-3.982A4.335,4.335,0,0,0,837.79,474.47Z" fill="#9b61d8"/>
        <path id="Path_95593" data-name="Path 95593" d="M874.6,504.278a4.014,4.014,0,0,1-4.338,1.953,3.686,3.686,0,0,1-1.91-.422,5.051,5.051,0,0,0-.614-.223c-2.261-.5-3.207-2.621-2.531-5.671l.06-.17a.519.519,0,0,1,.353-.279c.283-.061.505.117.762.322a1.832,1.832,0,0,0,2.734.017.326.326,0,0,0,.09-.1c.123-.242-.429-.861-.76-1.23-.526-.587-1.021-1.142-.738-1.7a.866.866,0,0,1,.43-.388,5.2,5.2,0,0,1,3.287-.336c3.272.727,4.537,2.878,3.758,6.4a13.189,13.189,0,0,1-.391,1.376A3.505,3.505,0,0,1,874.6,504.278Zm-8.649-3.74c-.221,1.332-.281,3.713,1.971,4.213a5.392,5.392,0,0,1,.749.264,3.317,3.317,0,0,0,1.435.375l.115-.041.119.027a3.133,3.133,0,0,0,3.643-1.83,12.078,12.078,0,0,0,.366-1.285c.675-3.048-.313-4.756-3.109-5.375a4.332,4.332,0,0,0-2.744.277,4.015,4.015,0,0,0,.587.74c.567.635,1.273,1.425.885,2.187a1.2,1.2,0,0,1-.311.377A2.645,2.645,0,0,1,865.956,500.538Z" fill="#9b61d8"/>
        <path id="Path_95594" data-name="Path 95594" d="M851.318,514.117c-1,1.963-6.114,1.677-6.461,1.6-2.767-.615-3.583-4.178-3.089-6.407a4.33,4.33,0,0,1,.369-1.042c1.158-2.276,3.9-2.567,5.9-2.125,3.273.727,4.538,2.878,3.758,6.394a13.06,13.06,0,0,1-.39,1.377A1.692,1.692,0,0,1,851.318,514.117Zm-8.42-5.46a3.471,3.471,0,0,0-.3.839c-.428,1.928.294,4.911,2.44,5.387.564.125,5.08.14,5.553-1.245a12.021,12.021,0,0,0,.365-1.284c.676-3.048-.313-4.755-3.109-5.376C846.151,506.6,843.835,506.815,842.9,508.657Z" fill="#9b61d8"/>
        <path id="Path_95595" data-name="Path 95595" d="M891.038,495.487c-1.145,2.25-6.538,2.239-7.175,2.1-3.038-.674-3.832-5.045-3.219-7.808a6.055,6.055,0,0,1,.5-1.422c1.382-2.715,4.376-3.122,6.521-2.647,3.6.8,4.931,3.412,3.965,7.771-.121.546-.281,1.124-.474,1.717A2.057,2.057,0,0,1,891.038,495.487Zm-9.131-6.743a5.087,5.087,0,0,0-.429,1.219c-.549,2.474.164,6.254,2.57,6.788.645.143,5.7.031,6.3-1.818.184-.567.337-1.119.452-1.638.867-3.913-.187-6.058-3.316-6.751C885.635,486.133,883.067,486.464,881.907,488.744Z" fill="#9b61d8"/>
        <path id="Path_95596" data-name="Path 95596" d="M853.821,500.665c-.419.824-.86,1.631-1.295,2.427a49.208,49.208,0,0,0-2.355,4.7l-.789-.327a50.217,50.217,0,0,1,2.394-4.784,39.4,39.4,0,0,0,2.77-5.8l.806.281A28.377,28.377,0,0,1,853.821,500.665Z" fill="#9b61d8"/>
        <path id="Path_95597" data-name="Path 95597" d="M852.246,497.751a56.306,56.306,0,0,1-5.616,8.9l-.676-.522a55.967,55.967,0,0,0,6.664-11.12l.778.353Q852.845,496.571,852.246,497.751Z" fill="#9b61d8"/>
        <path id="Path_95598" data-name="Path 95598" d="M867.515,501.212a38.894,38.894,0,0,1-6.7-3.328l-1.058-.612.425-.741,1.061.615a37.806,37.806,0,0,0,6.551,3.26Z" fill="#9b61d8"/>
        <path id="Path_95599" data-name="Path 95599" d="M870.113,500.122c-.229.451-.8.9-2.15,1.01l0,.03,0-.03-.051,0-.005.023c-.147-.013-.538-.044-.536-.443l.47-.431c.907-.062,1.467-.307,1.547-.65.205-.924-4.184-3.453-5.836-4.4-.777-.447-1.39-.8-1.735-1.042l.488-.7c.315.219.945.581,1.673,1,3.6,2.075,6.558,3.908,6.244,5.329A1.282,1.282,0,0,1,870.113,500.122Z" fill="#9b61d8"/>
        <path id="Path_95600" data-name="Path 95600" d="M881.329,493.545c-4.658-.369-8.453-.384-13.258-.4-1.97-.007-4.106-.015-6.533-.049l.011-.853c2.425.033,4.558.041,6.525.049,4.823.018,8.633.033,13.323.4Z" fill="#9b61d8"/>
        <path id="Path_95601" data-name="Path 95601" d="M881.371,490.606c-3.4.021-6.535-.054-9.3-.119-5.516-.132-9.9-.236-11.281.634a2.8,2.8,0,0,0,1.24,1.216l-.185.835a3.368,3.368,0,0,1-1.906-1.936.675.675,0,0,1,.23-.724c1.485-1.129,5.637-1.029,11.923-.88,2.756.066,5.881.141,9.272.12Z" fill="#9b61d8"/>
        <path id="Path_95602" data-name="Path 95602" d="M886.953,483.854a8.261,8.261,0,0,1-1.373,1.959l-.62-.587a7.428,7.428,0,0,0,1.231-1.759,24.4,24.4,0,0,0,1.578-5.974,31.154,31.154,0,0,1,1.062-4.586l.8.291a30.658,30.658,0,0,0-1.025,4.45A24.891,24.891,0,0,1,886.953,483.854Z" fill="#9b61d8"/>
        <path id="Path_95603" data-name="Path 95603" d="M889.883,486.483l-.824-.223a125.989,125.989,0,0,1,4.189-12.151l.225-.586.8.3-.225.587A125.615,125.615,0,0,0,889.883,486.483Z" fill="#9b61d8"/>
        <path id="Path_95604" data-name="Path 95604" d="M896.627,505.529l-.63.576c-.836-.912-1.7-1.923-2.527-2.9a44.02,44.02,0,0,0-5.571-5.834l.529-.67a44.613,44.613,0,0,1,5.693,5.95C894.947,503.622,895.8,504.628,896.627,505.529Z" fill="#9b61d8"/>
        <path id="Path_95605" data-name="Path 95605" d="M899.954,503.637l-.687.507a70.055,70.055,0,0,0-8.1-8.725l.587-.621A70.81,70.81,0,0,1,899.954,503.637Z" fill="#9b61d8"/>
        <path id="Path_95606" data-name="Path 95606" d="M905.509,510.178c-1.751,3.44-4.737,4.61-7.794,3.055a5.13,5.13,0,0,1-2.334-6.859,4.946,4.946,0,0,1,.717-1.047,4.4,4.4,0,0,1,3.512-1.35,12.528,12.528,0,0,0,1.511-.115,5.491,5.491,0,0,1,3.165.237C905.664,504.8,907.127,507,905.509,510.178Zm-9.367-3.417a4.226,4.226,0,0,0,1.96,5.711c2.627,1.336,5.111.334,6.646-2.681,1.491-2.932-.107-4.553-.849-4.931a4.839,4.839,0,0,0-2.679-.15,13.058,13.058,0,0,1-1.616.121,3.593,3.593,0,0,0-2.87,1.067A4.093,4.093,0,0,0,896.142,506.761Z" fill="#9b61d8"/>
        <path id="Path_95607" data-name="Path 95607" d="M898.251,470.2a6.623,6.623,0,0,1-1.738,2.18c-1.779,1.436-4.934,2.315-7.279,1.122-2.691-1.369-3.482-5.23-1.764-8.606a10.964,10.964,0,0,1,4.2-4.9,4.33,4.33,0,0,1,4.159-.116C898.705,461.344,900.354,466.069,898.251,470.2Zm-10.02-4.916c-1.479,2.906-.842,6.321,1.39,7.456,2.025,1.031,4.785.243,6.355-1.023a5.8,5.8,0,0,0,1.514-1.9c1.881-3.7.468-7.892-2.051-9.174a3.513,3.513,0,0,0-3.369.108A10.307,10.307,0,0,0,888.231,465.285Z" fill="#9b61d8"/>
        <path id="Path_95608" data-name="Path 95608" d="M925.937,513.492c-1.539,3.023-5.406,2.745-6.616,2.129-3.64-1.852-3.672-7.532-2.475-9.885,1.182-2.323,4.178-3.929,6.753-2.619,2.8,1.423,4.008,6.15,2.543,9.915A4.965,4.965,0,0,1,925.937,513.492Zm-8.33-7.369c-1.088,2.14-.954,7.182,2.1,8.737.918.467,4.49.792,5.637-2.137,1.295-3.329.257-7.627-2.135-8.844C921.092,502.8,918.6,504.168,917.607,506.123Z" fill="#9b61d8"/>
        <path id="Path_95609" data-name="Path 95609" d="M935.669,488.147a4.783,4.783,0,0,1-1.469,1.728.708.708,0,0,1-.065.483c-.506.995-3.659,1.845-6.271.516-3.385-1.723-3.71-5.468-2.28-8.276,1.34-2.633,4.351-4.678,6.88-3.391C934.554,480.271,937.581,484.391,935.669,488.147ZM932.7,489.8l.67-.407a3.849,3.849,0,0,0,1.537-1.63c1.592-3.129-.928-6.823-2.831-7.791-2.175-1.107-4.726,1.04-5.732,3.016-1.2,2.356-1.114,5.591,1.906,7.128a5.468,5.468,0,0,0,5.015-.029Z" fill="#9b61d8"/>
        <path id="Path_95610" data-name="Path 95610" d="M922.659,470.2c-.441.867-4.481,4.418-7.8,2.727-3.385-1.723-3.709-5.468-2.28-8.277,1.34-2.632,4.351-4.677,6.88-3.39C921.545,462.32,924.571,466.44,922.659,470.2Zm-9.324-5.163c-1.2,2.356-1.113,5.591,1.907,7.128,2.831,1.441,6.408-1.864,6.656-2.352,1.592-3.129-.928-6.823-2.832-7.792C916.892,460.91,914.341,463.057,913.335,465.033Z" fill="#9b61d8"/>
        <path id="Path_95611" data-name="Path 95611" d="M916.7,512.006c-1.472-.157-2.973-.407-4.424-.649a46.135,46.135,0,0,0-7.147-.816l.006-.854a46.714,46.714,0,0,1,7.28.827c1.44.24,2.93.488,4.375.643Z" fill="#9b61d8"/>
        <path id="Path_95612" data-name="Path 95612" d="M916.1,508.615c-1.475-.174-2.935-.376-4.381-.577-1.99-.277-3.87-.536-5.763-.726l.085-.849c1.909.191,3.885.464,5.795.728,1.441.2,2.9.4,4.364.576Z" fill="#9b61d8"/>
        <path id="Path_95613" data-name="Path 95613" d="M924.4,501.072c-.345.677-.7,1.325-1.07,1.923l-.729-.443c.354-.581.7-1.21,1.038-1.868a65.213,65.213,0,0,0,2.781-6.645c.469-1.246.954-2.534,1.473-3.784l.789.328c-.514,1.236-1,2.517-1.462,3.757A66.064,66.064,0,0,1,924.4,501.072Z" fill="#9b61d8"/>
        <path id="Path_95614" data-name="Path 95614" d="M925.829,505.648l-.836-.171a25.612,25.612,0,0,1,2.517-6.346c1.294-2.565,2.517-4.987,2.578-7.783l.855.019c-.067,2.99-1.391,5.613-2.671,8.149A25,25,0,0,0,925.829,505.648Z" fill="#9b61d8"/>
        <path id="Path_95615" data-name="Path 95615" d="M926.518,481.735l-.647.557a44.981,44.981,0,0,0-3.506-3.494,31.062,31.062,0,0,1-5.086-5.54l.714-.469a30.466,30.466,0,0,0,4.952,5.382A45.681,45.681,0,0,1,926.518,481.735Z" fill="#9b61d8"/>
        <path id="Path_95616" data-name="Path 95616" d="M929.6,479.041l-.608.6c-.654-.664-1.352-1.3-2.09-1.969-2.238-2.032-4.551-4.134-5.492-7.028l.811-.264c.872,2.679,3.1,4.7,5.255,6.66C928.186,477.69,928.926,478.36,929.6,479.041Z" fill="#9b61d8"/>
        <path id="Path_95617" data-name="Path 95617" d="M912.015,467.751l-.388.762a1.784,1.784,0,0,0-1.178-.127,15.286,15.286,0,0,1-6.353-.372,16.455,16.455,0,0,0-5.6-.478l-.119-.845a17.056,17.056,0,0,1,5.891.487,14.4,14.4,0,0,0,6.005.372A2.642,2.642,0,0,1,912.015,467.751Z" fill="#9b61d8"/>
        <path id="Path_95618" data-name="Path 95618" d="M913.669,464.492c-1.6-.106-3.239-.125-4.826-.143a41.14,41.14,0,0,1-11.034-1.139l.236-.822a40.481,40.481,0,0,0,10.808,1.106c1.6.019,3.251.038,4.873.145Z" fill="#9b61d8"/>
        <path id="Path_95619" data-name="Path 95619" d="M916.844,461.053l-.822-.231c1.112-3.966,2.431-8.539,4.017-12.617l.8.31C919.263,452.557,918,456.925,916.844,461.053Z" fill="#9b61d8"/>
        <path id="Path_95620" data-name="Path 95620" d="M920.372,462.12l-.827-.213c.3-1.165.524-2.376.741-3.547a24.084,24.084,0,0,1,2.439-7.9l.741.427a23.01,23.01,0,0,0-2.34,7.631C920.906,459.7,920.68,460.925,920.372,462.12Z" fill="#9b61d8"/>
        <path id="Path_95621" data-name="Path 95621" d="M926.582,448.142c-.9,1.766-2.65,3.47-4.63,2.463-.3-.155-.539-.274-.645-.544a.759.759,0,0,1-.007-.5c-.132-.057-.262-.119-.39-.184-1.918-.976-3.78-2.975-1.753-6.957,1.382-2.716,3.808-3.271,5.49-2.415C927.041,441.224,927.791,445.766,926.582,448.142Zm-4.441,1.6c.055.031.128.068.192.1,1.835.934,3.227-1.573,3.487-2.085,1.035-2.032.4-5.99-1.56-6.988-1.264-.644-3.161-.28-4.342,2.04-1.408,2.767-.97,4.613,1.38,5.809a6.264,6.264,0,0,0,.71.307l.455.164-.219.432C922.191,449.623,922.16,449.693,922.141,449.74Z" fill="#9b61d8"/>
        <path id="Path_95622" data-name="Path 95622" d="M945.259,495.253c-1.511-.6-3.1-1.1-4.647-1.592a47.382,47.382,0,0,1-7.158-2.709c-.31-.157-.615-.322-.918-.495l.423-.742q.437.248.882.476a46.733,46.733,0,0,0,7.029,2.655c1.556.495,3.165,1.006,4.7,1.613Z" fill="#9b61d8"/>
        <path id="Path_95623" data-name="Path 95623" d="M946.833,492.217a80.252,80.252,0,0,1-11.391-5.072l.388-.761A79.63,79.63,0,0,0,947.1,491.4Z" fill="#9b61d8"/>
        <path id="Path_95624" data-name="Path 95624" d="M954.4,501.687c-.624,1.226-2.523,4.958-6.951,2.7-3.165-1.611-3.5-5.559-1.958-8.292a3.124,3.124,0,0,1,.028-2.994,5.118,5.118,0,0,1,6.725-2.354C955.188,492.252,956.852,496.86,954.4,501.687Zm-8.275-4.963c-1.2,2.357-.887,5.584,1.712,6.906,2.57,1.308,4.305.611,5.8-2.331,2.342-4.6.47-8.641-1.782-9.786a4.268,4.268,0,0,0-5.576,1.98,2.284,2.284,0,0,0,.066,2.382l.141.225-.139.226C946.264,496.454,946.19,496.587,946.12,496.724Z" fill="#9b61d8"/>
        <path id="Path_95625" data-name="Path 95625" d="M979.706,457.182h0a2.814,2.814,0,0,1-2.549,1.364c-5.964.393-27.525-21.466-33.79-30.808-.111.012-.263.034-.4.054a6.927,6.927,0,0,1-3.759-.181c-.628-.319-.146-1.265.172-1.891l.144-.277a18.23,18.23,0,0,1,6.877-7.27c2.473-1.463,4.905-2.054,6.052-1.471.287.146,1.164.739.4,2.237a7.225,7.225,0,0,1-.609.933c-.089.122-.176.24-.25.349C956.154,424.3,982.9,450.9,979.706,457.182Zm-39.925-30.248a7.289,7.289,0,0,0,3.063.013c.681-.1.936-.132,1.116.141,6.347,9.606,27.955,30.949,33.141,30.607a2.017,2.017,0,0,0,1.844-.9c2.526-4.96-19.206-27.812-27.792-36.2l-.225-.22.142-.279a5.834,5.834,0,0,1,.482-.729,6.461,6.461,0,0,0,.538-.815,1.369,1.369,0,0,0,.206-.791.378.378,0,0,0-.235-.3c-1.684-.857-8.549,2.019-11.78,8.367l-.143.278A4.974,4.974,0,0,0,939.781,426.934Z" fill="#9b61d8"/>
        <path id="Path_95626" data-name="Path 95626" d="M974.786,453.64h0a.933.933,0,0,1-.741.5c-2.6.332-12.049-8.452-25.921-24.1l-.225-.254.213-.264a15.747,15.747,0,0,1,2.37-2.085,15.672,15.672,0,0,0,2.243-1.958l.268-.333.315.289C966.252,437.262,976.1,451.058,974.786,453.64Zm-25.825-23.863c15.743,17.735,23.3,23.787,24.982,23.572.1-.013.113-.046.127-.073.9-1.759-7.549-14.6-21-26.97a21.056,21.056,0,0,1-2.09,1.768A20.685,20.685,0,0,0,948.961,429.777Z" fill="#9b61d8"/>
        <path id="Path_95627" data-name="Path 95627" d="M949.862,422.723a8.654,8.654,0,0,0-1.422,1.464,5.91,5.91,0,0,1-3.211,2.392l-.179-.783a5.22,5.22,0,0,0,2.772-2.122,9.365,9.365,0,0,1,1.562-1.6Z" fill="#9b61d8"/>
        <path id="Path_95628" data-name="Path 95628" d="M896.656,565.915c-2.1,4.127-8.378,7.359-14.449,10.484-2.526,1.3-4.912,2.528-6.9,3.773l-.334.209-.215-.33c-3.076-4.684-4.682-10.474-6.236-16.072-2.363-8.518-4.595-16.563-11.531-21.187a1.919,1.919,0,0,0-1.054.087,2.706,2.706,0,0,1-1.9-.012,1.588,1.588,0,0,1-.617-2.458l.253-.485c2.036-4,9.38-12.194,13.356-10.171l.185.094.03.206c1.213,8.221,9.809,13.872,17.394,18.858C892.608,554.146,900.129,559.09,896.656,565.915Zm-21.437,13.367c1.943-1.19,4.219-2.362,6.62-3.6,5.957-3.067,12.118-6.238,14.1-10.135,3.147-6.184-3.75-10.718-11.737-15.967-7.66-5.035-16.333-10.737-17.713-19.194-3.189-1.228-10,5.777-12.094,9.9l-.253.485c-.377.74-.391,1.042.266,1.376a2.081,2.081,0,0,0,1.345-.053,2.349,2.349,0,0,1,1.613-.014l.081.048c7.175,4.782,9.552,13.348,11.85,21.633C870.8,569.171,872.349,574.759,875.219,579.282Z" fill="#9b61d8"/>
        <path id="Path_95629" data-name="Path 95629" d="M866.981,535.417a24.079,24.079,0,0,1-3.58,2.891,23.47,23.47,0,0,0-3.464,2.79l-.581-.555a24.142,24.142,0,0,1,3.58-2.891,23.515,23.515,0,0,0,3.463-2.789Z" fill="#9b61d8"/>
        <path id="Path_95630" data-name="Path 95630" d="M873.334,548.6a2.469,2.469,0,0,1-2.419,1.28l-.315.62a1.741,1.741,0,0,1-.885-2.472l1.275-2.5-.185.974a2.537,2.537,0,0,1,1.872.234,1.429,1.429,0,0,1,.78.856A1.364,1.364,0,0,1,873.334,548.6Zm-2.967.621.331-.325a.677.677,0,0,0,.173.13,1.542,1.542,0,0,0,1.747-.791.6.6,0,0,0,.068-.419.666.666,0,0,0-.374-.367c-.478-.244-1.189-.35-1.3-.121a12.421,12.421,0,0,1-.593,1.1A.949.949,0,0,0,870.367,549.217Z" fill="#9b61d8"/>
        <path id="Path_95631" data-name="Path 95631" d="M887.825,558.194a2.89,2.89,0,0,1-2.718,1.418l.005-.591a5.594,5.594,0,0,1-1.485-1.053,2.063,2.063,0,0,1-.346-2.5,2.217,2.217,0,0,1,2.959-.714C887.875,555.584,888.482,556.9,887.825,558.194Zm-2.177.575a1.905,1.905,0,0,0,1.461-.939c.65-1.278-.78-2.131-1.234-2.362a1.419,1.419,0,0,0-1.878.362,1.268,1.268,0,0,0,.22,1.592,5.7,5.7,0,0,0,1.557,1.036Z" fill="#9b61d8"/>
        <path id="Path_95632" data-name="Path 95632" d="M878.129,564.608a5.744,5.744,0,0,1-3.337,2.186l-.093-.8a3.137,3.137,0,0,0,1.059-.389c-.922-.481-2.067-1.229-1.205-2.922.7-1.365,1.507-1.719,2.632-1.147A2.227,2.227,0,0,1,878.129,564.608Zm-1.59.5a3.339,3.339,0,0,0,.874-.86,1.431,1.431,0,0,0-.593-1.989c-.533-.271-.956-.373-1.551.795-.491.965-.178,1.318,1.079,1.958Z" fill="#9b61d8"/>
        <path id="Path_95633" data-name="Path 95633" d="M879.1,556.373c-.351.688-1.24.236-1.533.087l.365-.717a1.987,1.987,0,0,0,.478.19,2.083,2.083,0,0,0-.233-1.122,1.4,1.4,0,0,0-.659.434.46.46,0,0,0,.006.381l-.764.25a1.263,1.263,0,0,1,.041-.995c.273-.537,1.32-1.051,1.724-.845A2.287,2.287,0,0,1,879.1,556.373Z" fill="#9b61d8"/>
        <path id="Path_95634" data-name="Path 95634" d="M880.709,570.711a1.856,1.856,0,0,1-1.8,1.17,3.955,3.955,0,0,1-1.577-.523l.183-.364c-1.029-.817-1.017-1.526-.766-2.02.509-1,1.853-.994,2.86-.481C880.669,569.031,881.11,569.922,880.709,570.711Zm-1.638.367c.271-.015.622-.142.922-.732.242-.475-.355-.938-.746-1.137-.669-.34-1.517-.385-1.779.129-.325.639,1.162,1.459,1.626,1.7Z" fill="#9b61d8"/>
        <g id="Group_63414" data-name="Group 63414">
          <path id="Path_95635" data-name="Path 95635" d="M800.151,497.559c-1.072-1.651-2.021-2.431-2.9-2.385a1.885,1.885,0,0,0-1.514,1.227c-2.4,4.714-2.773,10.12-2.269,15.668-.793-.435-1.589-.861-2.391-1.269a56.5,56.5,0,0,0-15.275-5.44l-.68-.127.191.664c1.776,6.17,6.517,9.223,11.1,12.176,1.3.834,2.623,1.691,3.9,2.62l-.084.134c.447.278.877.54,1.3.795.056.045.116.088.172.133-9.343,5.128-17.7,10.7-17.89,13.036a1.065,1.065,0,0,0,.632,1.074c3.118,1.587,12.1-.9,18.663-2.719a46.373,46.373,0,0,0,4.5-1.617l.153-.031c2.782,7.518,6.6,12.466,11.553,14.988a1.6,1.6,0,0,0,2.37-.733h0c1.135-2.23.484-8.765-1.066-16.411l.154-.032c1.151.588,5.42-.829,6.534-1.173.42-.13-5.34-4.151-7.466-5.613l-.116-.08c.416-1.048,1.333-1.528,2.609-2.2a13.4,13.4,0,0,0,6.477-6.394c.483-.949.514-1.679.093-2.171-.473-.553-1.658-1.109-6.456.453-1.6.519-3.519,1.269-5.63,2.174C804.657,507.139,802.21,500.728,800.151,497.559Zm-23.8,8.777a56.436,56.436,0,0,1,14.345,5.226c.966.491,1.923,1.009,2.877,1.54.256,2.344.658,4.707,1.119,7.049q-1.05.554-2.091,1.118c-.2-.119-.4-.244-.608-.367-1.64-1.3-3.4-2.447-5.107-3.548C782.405,514.473,778.167,511.745,776.346,506.336Zm32.3,18.127c.014.245.037.5.073.774a8.673,8.673,0,0,0,.674,2.554c.017.083.035.165.053.248a38.1,38.1,0,0,1-11.963-4.045q-.61-.312-1.248-.654-.273-1.179-.524-2.417c-.023-.113-.045-.227-.068-.34,1.869-.984,3.751-1.937,5.6-2.828,2.336,1.519,4.636,3.088,6.909,4.648Q808.4,523.436,808.645,524.463Zm.19,4.346c-1.252.22-2.458.4-3.729.587-1.926.285-4.071.6-6.8,1.126q-.99-2.8-1.8-6.07c.2.1.392.2.585.3A39.55,39.55,0,0,0,808.835,528.809ZM795.243,522.8c-.582-.324-1.183-.668-1.811-1.036q.708-.384,1.422-.764l.018.093C794.991,521.676,795.117,522.236,795.243,522.8Zm6.9-5.478c1.414-.671,2.8-1.3,4.133-1.884.548,1.88,1.073,3.8,1.563,5.717C805.956,519.869,804.062,518.581,802.139,517.322Zm-1.707-.088c-1.627.792-3.292,1.635-4.956,2.5-.4-2.033-.741-4.078-.984-6.111C796.5,514.77,798.477,515.978,800.432,517.234Zm-4,14.131c-.977.244-2.194.58-3.557.958-5.7,1.577-15.225,4.217-18.047,2.781-.168-.086-.176-.159-.169-.247.156-1.886,8.464-7.44,17.9-12.617,1.041.617,2.013,1.172,2.937,1.673a67.355,67.355,0,0,0,1.963,6.774A3.439,3.439,0,0,0,796.435,531.365Zm14.483,14v0c-.285.56-.627.661-1.22.359-4.732-2.408-8.4-7.158-11.1-14.389,2.648-.5,4.744-.816,6.629-1.095,1.535-.227,2.977-.443,4.518-.732C811.265,537.045,811.917,543.4,810.918,545.364Zm4.436-18.058c-1.385.392-2.616.7-3.759.953-.308-.018-.617-.046-.927-.076a2.771,2.771,0,0,1-.425-.609q-.354-1.638-.753-3.317a6.262,6.262,0,0,1,.018-.922C811.432,524.657,813.411,526.014,815.354,527.306Zm-2.648-14.364c4.464-1.453,5.371-.91,5.543-.71s.1.635-.205,1.229a12.5,12.5,0,0,1-6.114,6.025,5.937,5.937,0,0,0-2.858,2.331c-.023.045-.044.09-.066.137l-.1-.066c-.576-2.277-1.2-4.561-1.855-6.784C809.1,514.232,811.023,513.49,812.706,512.942ZM801.333,516.8c-2.283-1.477-4.6-2.9-6.958-4.221-.57-5.616-.27-11.084,2.125-15.789.25-.491.518-.747.8-.762.3-.016.985.222,2.138,2,2.128,3.276,4.518,9.6,6.6,16.615C804.541,515.291,802.961,516.018,801.333,516.8Z" fill="#9b61d8"/>
          <path id="Path_95636" data-name="Path 95636" d="M799.111,521.035a2.776,2.776,0,1,0,3.733-1.215A2.779,2.779,0,0,0,799.111,521.035Zm4.187,2.131a1.922,1.922,0,1,1-.841-2.584A1.925,1.925,0,0,1,803.3,523.166Z" fill="#9b61d8"/>
        </g>
      </g>
    </g>
  </g>
</svg>
