<svg id="user" xmlns="http://www.w3.org/2000/svg" width="17.841" height="20.3" viewBox="0 0 17.841 20.3">
  <g id="Group_64168" data-name="Group 64168" transform="translate(3.568)">
    <g id="Group_64167" data-name="Group 64167">
      <path id="Path_96875" data-name="Path 96875" d="M126.352,0A5.352,5.352,0,1,0,131.7,5.352,5.358,5.358,0,0,0,126.352,0Z" transform="translate(-121)" fill="#1e6370"/>
    </g>
  </g>
  <g id="Group_64170" data-name="Group 64170" transform="translate(0 11.894)">
    <g id="Group_64169" data-name="Group 64169">
      <path id="Path_96876" data-name="Path 96876" d="M46.58,302.307A7.63,7.63,0,0,0,41.11,300H38.731a7.63,7.63,0,0,0-5.47,2.307,7.8,7.8,0,0,0-2.261,5.5.6.6,0,0,0,.595.595H48.247a.6.6,0,0,0,.595-.595A7.8,7.8,0,0,0,46.58,302.307Z" transform="translate(-31 -300)" fill="#1e6370"/>
    </g>
  </g>
</svg>
