<svg id="teacher" xmlns="http://www.w3.org/2000/svg" width="20.299" height="20.3" viewBox="0 0 20.299 20.3">
  <g id="Group_64160" data-name="Group 64160">
    <g id="Group_64159" data-name="Group 64159">
      <ellipse id="Ellipse_10367" data-name="Ellipse 10367" cx="5.536" cy="5.536" rx="5.536" ry="5.536" transform="translate(4.614)" fill="#1e6370"/>
      <path id="Path_96871" data-name="Path 96871" d="M18.029,279.414a20.427,20.427,0,0,0-3.923-1.523.459.459,0,0,0-.554.29l-1.891,5.276-.573-2.863.884-2.652a.462.462,0,0,0-.438-.607H8.766a.462.462,0,0,0-.438.607l.884,2.652-.573,2.863L6.748,278.18a.46.46,0,0,0-.554-.29,20.425,20.425,0,0,0-3.923,1.523A4.152,4.152,0,0,0,0,283.117v.675a1.848,1.848,0,0,0,1.845,1.845H18.454a1.848,1.848,0,0,0,1.845-1.845v-.675A4.152,4.152,0,0,0,18.029,279.414Z" transform="translate(0 -265.338)" fill="#1e6370"/>
    </g>
  </g>
</svg>
