<svg id="true" xmlns="http://www.w3.org/2000/svg" xmlns:xlink="http://www.w3.org/1999/xlink" width="38.436" height="38.436" viewBox="0 0 38.436 38.436">
  <defs>
    <radialGradient id="radial-gradient" cx="0.5" cy="0.5" r="0.5" gradientUnits="objectBoundingBox">
      <stop offset="0.021" stop-color="#77e4d3"/>
      <stop offset="1" stop-color="#01c2a0"/>
    </radialGradient>
  </defs>
  <ellipse id="Ellipse_10368" data-name="Ellipse 10368" cx="19.218" cy="19.218" rx="19.218" ry="19.218" fill="url(#radial-gradient)"/>
  <g id="Group_64176" data-name="Group 64176" transform="translate(26.065 28.281)">
    <path id="Path_96877" data-name="Path 96877" d="M184.812,204.009a1.52,1.52,0,0,1,.381-2.115,15.819,15.819,0,0,0,1.588-1.264,1.52,1.52,0,1,1,2.041,2.252,18.86,18.86,0,0,1-1.894,1.507A1.52,1.52,0,0,1,184.812,204.009Z" transform="translate(-184.54 -200.236)" fill="#adede3"/>
  </g>
  <g id="Group_64177" data-name="Group 64177" transform="translate(30.994 20.507)">
    <path id="Path_96878" data-name="Path 96878" d="M220.323,151.446a1.52,1.52,0,0,1-.737-2.019,13.11,13.11,0,0,0,.976-3.01,1.52,1.52,0,1,1,2.983.584,16.16,16.16,0,0,1-1.2,3.709A1.52,1.52,0,0,1,220.323,151.446Z" transform="translate(-219.444 -145.188)" fill="#adede3"/>
  </g>
  <g id="Group_64178" data-name="Group 64178" transform="translate(6.743 10.442)">
    <path id="Path_96879" data-name="Path 96879" d="M53.927,90.7,48.3,84.267a2.28,2.28,0,0,1,3.433-3l4.118,4.713L68.9,74.5a2.28,2.28,0,0,1,3.012,3.423L57.149,90.914a2.28,2.28,0,0,1-3.223-.211Z" transform="translate(-47.74 -73.93)" fill="#fff"/>
  </g>
</svg>
