<svg xmlns="http://www.w3.org/2000/svg" width="30.712" height="30.713" viewBox="0 0 30.712 30.713">
  <g id="user_1_" data-name="user (1)" transform="translate(0.5 0.5)">
    <path id="Path_66479" data-name="Path 66479" d="M23.369,26.81,27.8,29.228a3.983,3.983,0,0,1,.711.506,14.847,14.847,0,0,1-19.076.049,3.933,3.933,0,0,1,.781-.524l4.747-2.373a1.81,1.81,0,0,0,1-1.619V23.405a7.168,7.168,0,0,1-.449-.577,10.922,10.922,0,0,1-1.476-2.973,1.491,1.491,0,0,1-1.057-1.418V16.448a1.484,1.484,0,0,1,.5-1.1V12.473S12.89,8,18.947,8s5.466,4.472,5.466,4.472v2.874a1.482,1.482,0,0,1,.5,1.1v1.988a1.49,1.49,0,0,1-.687,1.251,9.865,9.865,0,0,1-1.8,3.719v1.816A1.812,1.812,0,0,0,23.369,26.81Z" transform="translate(-4.092 -3.516)" fill="#546d83" stroke="#707070" stroke-width="1"/>
    <g id="Group_56650" data-name="Group 56650">
      <path id="Path_66480" data-name="Path 66480" d="M14.6,0a14.847,14.847,0,0,1,9.813,26.212,3.947,3.947,0,0,0-.7-.5l-4.433-2.418a1.811,1.811,0,0,1-.944-1.589V19.889a9.855,9.855,0,0,0,1.8-3.719,1.491,1.491,0,0,0,.687-1.251V12.932a1.484,1.484,0,0,0-.5-1.1V8.957s.59-4.472-5.466-4.472S9.39,8.957,9.39,8.957v2.874a1.482,1.482,0,0,0-.5,1.1V14.92A1.491,1.491,0,0,0,9.95,16.338a10.922,10.922,0,0,0,1.476,2.973,7.169,7.169,0,0,0,.449.577v1.862a1.81,1.81,0,0,1-1,1.619L6.128,25.744a3.952,3.952,0,0,0-.779.522A14.853,14.853,0,0,1,14.6,0Z" transform="translate(0 0)" fill="#eceef3" stroke="#707070" stroke-width="1"/>
    </g>
  </g>
</svg>
